<svg width="1440" height="66" viewBox="0 0 1440 66" fill="none" xmlns="http://www.w3.org/2000/svg">
<path d="M-117 23.6646L106.947 37.8343C109.271 37.3467 111.596 36.7371 113.921 35.8838L193.542 22.4477C203.228 18.9124 215.046 18.5467 225.313 21.3505L321.207 47.4384C323.532 48.048 326.05 48.5356 328.569 48.9013L715.439 5.75597C718.345 6.12169 721.444 6.24362 724.35 6.12171L872.744 19.3621C874.875 19.2402 877.006 19.1183 879.137 18.7526L1090.49 1.19093C1091.46 1.06903 1092.24 0.947101 1093.2 0.825195L1201 34.7526C1207.59 34.0212 1240.28 36.4155 1245.31 33.6117L1379.18 13.2418C1383.83 10.6817 1389.45 8.85313 1395.45 7.99979L1470 18.0141V65.9998H-116.613V23.6646H-117Z" fill="#8A81CC"/>
</svg>
