<svg width="176" height="104" viewBox="0 0 176 104" fill="none" xmlns="http://www.w3.org/2000/svg">
<g clip-path="url(#clip0_1158_58544)">
<g clip-path="url(#clip1_1158_58544)">
<path d="M91.3746 83.3601C91.8242 78.5207 101.049 82.3592 98.1011 88.9778C98.1011 88.9778 100.912 91.6629 103.258 105.117H97.0515C97.0124 104.602 96.9581 104.083 96.8886 103.558C102.245 103.729 97.5188 92.3638 97.1261 91.6113C96.7333 90.8577 95.5928 92.7611 95.5537 88.1948C95.5145 83.6285 93.3473 83.4293 89.9058 83.8629C90.0965 83.7785 90.2796 83.7094 90.4551 83.6496C90.7911 83.5348 91.0992 83.4515 91.3746 83.3601Z" fill="#FFFFCC"/>
<path d="M97.1259 95.4988C97.9456 95.3077 98.2689 96.7365 97.7321 97.877C97.0905 99.2413 96.3062 95.6886 97.1259 95.4988Z" fill="#EDEDE4"/>
<path d="M91.9305 91.439H91.9292C90.4124 91.5632 89.2568 91.2491 88.4346 90.6947C86.5238 89.4055 86.4177 86.8129 87.783 85.3819C88.38 84.7343 89.1026 84.2173 89.906 83.8629C93.3475 83.4292 95.5147 83.6285 95.5539 88.1948C95.5931 92.7611 96.7335 90.8577 97.1263 91.6113C97.5191 92.3637 102.245 103.729 96.8888 103.558H96.8876C96.2902 99.0608 94.5764 94.348 91.9305 91.439ZM97.7325 97.877C98.2692 96.7366 97.9459 95.3079 97.1263 95.499C96.3066 95.6888 97.0909 99.2413 97.7325 97.877V97.877Z" fill="white"/>
<path d="M94.1306 96.6337C94.2026 97.6264 93.0609 102.425 82.4344 102.955C80.8128 103.035 79.3073 103.052 77.9219 103.012H77.9181C68.2009 101.474 68.0418 96.534 69.9249 96.3688C70.5585 96.5287 71.1681 96.7735 71.7372 97.0966C74.2442 98.4984 82.6491 99.2813 86.2144 97.692C89.589 96.1895 89.3528 94.2134 91.7373 94.2825C93.5711 94.3353 94.0637 95.6949 94.1306 96.6337Z" fill="white"/>
<path d="M89.906 83.8629C89.1026 84.2173 88.38 84.7343 87.7829 85.3818C85.7218 80.4334 78.3664 77.8795 75.7559 77.501C76.1177 77.5121 76.4784 77.547 76.8357 77.6053C82.0062 78.4316 88.4258 80.219 90.4554 83.6495C90.2798 83.7093 90.0967 83.7785 89.906 83.8629Z" fill="#FFFFCC"/>
<path d="M87.7829 85.382C86.4177 86.8131 86.5238 89.4057 88.4346 90.6949C87.4192 92.0873 85.8582 93.6332 81.0084 94.0306C80.142 94.0809 79.3338 94.1067 78.5836 94.1079V94.1067C69.3135 93.1023 69.2958 87.1448 71.7522 87.3159C71.9657 87.4406 72.1677 87.5841 72.3559 87.7449C73.6416 88.8349 75.1698 89.0494 76.9076 89.1548C79.4904 89.3119 82.3244 89.1279 82.8486 87.3159L82.8498 87.3147C85.0448 84.4842 82.2209 82.8668 78.2262 82.0722C74.2403 81.2799 73.437 77.8563 75.7167 77.5C75.7293 77.5 75.7432 77.5012 75.7558 77.5012C78.3663 77.8797 85.7218 80.4336 87.7829 85.382Z" fill="white"/>
<path d="M78.2261 82.072C82.2208 82.8667 85.0448 84.4841 82.8498 87.3146C82.8994 87.1378 82.9274 86.9556 82.9331 86.772C83.0405 83.8594 76.9871 83.9098 73.2791 82.1236C69.8729 80.4827 71.7067 77.4014 75.7166 77.4999C73.437 77.8562 74.2402 81.2797 78.2261 82.072Z" fill="#EDEDE4"/>
<path d="M78.5835 94.1067V94.1079C69.3159 94.1384 68.4811 90.8004 68.3005 89.2498C68.0846 87.3956 69.8678 86.22 71.7522 87.3159C69.2957 87.1448 69.3134 93.1023 78.5835 94.1067Z" fill="#EDEDE4"/>
<path d="M66.824 98.2215C67.2446 96.2549 68.6452 96.065 69.9246 96.3685C68.0415 96.5338 68.2007 101.474 77.9178 103.012C70.2328 102.787 66.2734 100.801 66.824 98.2215Z" fill="#EDEDE4"/>
<path d="M67.9732 69.0214C67.9732 69.0214 69.9257 70.7525 68.7562 73.2713C68.3735 74.0952 67.8368 74.6461 67.127 74.9813C66.4425 75.3036 65.5988 75.4267 64.5796 75.3986C66.0017 75.1864 67.0121 72.6032 66.7734 71.6808C66.5182 70.6881 64.1767 70.1595 65.739 69.7246C66.1967 69.5998 66.5925 69.3089 66.8504 68.9077C67.5109 68.9909 67.9732 69.0214 67.9732 69.0214Z" fill="#FFFFCC"/>
<path d="M67.127 74.981C67.127 74.981 68.3824 75.8471 68.2965 77.3086C68.2182 78.6248 67.9215 80.6771 63.5264 80.5458C65.2692 80.4098 65.5635 79.5718 66.1571 78.1525C66.8555 76.4847 62.6499 75.2095 64.245 75.4017C64.3562 75.4152 64.4687 75.4141 64.5797 75.3982C65.5989 75.4263 66.4425 75.3033 67.127 74.981Z" fill="#FFFFCC"/>
<path d="M66.7734 71.6808C67.0121 72.6032 66.0017 75.1864 64.5796 75.3985C63.4215 75.3657 62.0361 75.1395 60.4018 74.7926C59.7843 74.6658 59.1883 74.4495 58.6324 74.1503C58.6324 74.1491 58.6324 74.1491 58.6311 74.148C57.079 72.3125 57.6864 70.2251 58.9519 69.7926C60.2174 69.3613 63.0351 71.0854 61.4096 69.1468C60.9403 68.5735 60.6529 67.8711 60.5849 67.1309C61.2896 67.0969 62.1232 67.1989 62.7572 67.7005C63.6387 68.4003 65.6001 68.7495 66.8504 68.9077C66.5925 69.3089 66.1967 69.5998 65.739 69.7247C64.1768 70.1595 66.5183 70.6881 66.7734 71.6808Z" fill="white"/>
<path d="M64.2453 75.4021C62.6502 75.2099 66.8559 76.4851 66.1575 78.1529C65.5639 79.5723 65.2696 80.4103 63.5267 80.5463C62.8369 80.5211 62.1489 80.4589 61.4656 80.3599C60.6078 80.249 59.7648 80.0422 58.9523 79.7434V79.7422C56.2243 77.479 56.8306 76.3808 58.0379 75.7971C59.2453 75.2146 60.1812 75.9823 58.6328 74.1504C59.1887 74.4496 59.7847 74.6659 60.4022 74.7927C62.0365 75.1396 63.4219 75.3658 64.58 75.3986C64.4691 75.4145 64.3566 75.4157 64.2453 75.4021V75.4021Z" fill="white"/>
<path d="M65.0557 83.6391C67.1485 83.5946 67.4806 87.1248 65.5319 91.8012C63.9759 95.533 63.6311 102.467 63.5553 105.117H61.7304C61.8023 104.401 61.9198 103.481 62.108 102.303C62.8683 97.5384 61.9653 98.8171 61.9173 97.2735C61.8705 95.7288 63.2497 91.316 63.8951 89.8603C64.5417 88.4046 65.4359 87.5654 62.2507 87.0345C59.9483 86.6501 61.671 85.8308 62.1332 84.8393C62.4578 84.6588 62.7938 84.4126 63.1853 84.1888H63.1866C63.7521 83.8459 64.396 83.6565 65.0557 83.6391V83.6391Z" fill="#FFFFCC"/>
<path d="M62.1335 84.8392C61.6713 85.8308 59.9486 86.65 62.251 87.0345C65.4361 87.5654 64.5419 88.4046 63.8953 89.8603C63.2499 91.316 61.8708 95.7287 61.9175 97.2735C61.9655 98.8171 62.8685 97.5383 62.1082 102.303C61.9201 103.481 61.8026 104.401 61.7306 105.117H57.4631C58.0112 100.621 58.9862 91.4261 58.0378 89.6399C56.7723 87.2572 56.9264 84.4325 58.0378 83.6379C58.918 83.0085 60.181 83.0729 61.8178 83.6402C62.304 84.0563 62.3103 84.4606 62.1335 84.8392ZM61.0966 102.84C61.9706 101.567 61.617 99.9539 61.0789 100.174C60.695 100.331 60.1115 101.499 59.9473 102.419C59.8349 103.045 60.7291 103.375 61.0966 102.84V102.84Z" fill="white"/>
<path d="M61.4096 69.1468C63.035 71.0853 60.2174 69.3613 58.9519 69.7926C57.6864 70.2251 57.079 72.3125 58.6311 74.1479C58.6324 74.1491 58.6324 74.1491 58.6324 74.1503C58.1097 73.8697 57.6426 73.4947 57.2545 73.0438C55.7137 71.2248 56.1456 68.5983 59.159 67.3782C59.6226 67.2376 60.1014 67.1545 60.5849 67.1309C60.6529 67.871 60.9403 68.5735 61.4096 69.1468V69.1468Z" fill="#EDEDE4"/>
<path d="M61.0788 100.174C61.6168 99.9538 61.9705 101.567 61.0965 102.839C60.729 103.375 59.8348 103.044 59.9472 102.419C60.1114 101.499 60.6949 100.331 61.0788 100.174Z" fill="#FFFFCC"/>
<path d="M58.9522 79.7422V79.7434C55.1115 78.276 55.3149 75.115 57.2548 73.0439C57.6429 73.4948 58.11 73.8698 58.6327 74.1504C60.181 75.9823 59.2452 75.2146 58.0378 75.7971C56.8304 76.3808 56.2242 77.479 58.9522 79.7422Z" fill="#EDEDE4"/>
<path d="M56.2343 96.1075C56.2936 97.5971 54.9903 99.5122 51.6485 100.317C49.9107 100.737 47.4858 100.851 44.8033 100.671C39.1276 98.5523 47.7548 100.349 51.4098 98.6567C54.8716 97.0545 53.279 95.9832 51.9263 95.2695C52.2824 95.1239 52.6202 94.9366 52.9329 94.7116C54.2413 93.7892 56.1737 94.585 56.2343 96.1075Z" fill="#FFFFCC"/>
<path d="M55.0584 105.117H52.4505C52.0692 104.721 51.7514 104.268 51.5083 103.774C52.8609 102.871 54.9347 103.546 55.0521 104.964C55.0567 105.015 55.0588 105.066 55.0584 105.117V105.117Z" fill="#FFFFCC"/>
<path d="M52.4504 105.117H46.0308V104.952C49.4395 104.952 50.705 104.311 51.5082 103.774C51.7512 104.268 52.0691 104.721 52.4504 105.117V105.117Z" fill="white"/>
<path d="M52.1611 85.7568C57.3164 86.2702 55.8312 90.5552 50.768 91.3381C49.2924 91.5682 47.7979 91.6526 46.306 91.5901C47.1219 91.5901 43.2573 90.3852 48.7006 89.6175C53.4215 88.9518 53.2181 86.7742 52.1611 85.7568Z" fill="#FFFFCC"/>
<path d="M52.1612 85.7572C53.2183 86.7745 53.4216 88.9522 48.7007 89.6179C43.2574 90.3856 47.122 91.5905 46.3061 91.5905C46.2897 91.5893 46.2733 91.5893 46.2581 91.5893C46.2404 91.5881 46.224 91.5869 46.2063 91.5858H46.2013C42.199 91.3936 37.1838 90.0598 31.9072 85.8099C34.2917 84.5441 34.255 81.3386 32.2255 79.8219C31.9145 79.5888 31.5806 79.3885 31.229 79.2242C38.789 73.7332 50.9828 74.3285 51.6244 76.5132C52.266 78.6968 49.2703 80.0212 45.0634 79.8219C40.8552 79.6239 36.2909 81.212 39.7135 83.9921C43.1374 86.7722 47.7724 85.647 50.6974 85.7126C51.1858 85.6966 51.6747 85.7115 52.1612 85.7572V85.7572Z" fill="white"/>
<path d="M51.9262 95.2693C53.2789 95.9831 54.8714 97.0543 51.4097 98.6565C47.7547 100.349 39.1275 98.5522 44.8032 100.671C38.4619 100.249 30.6746 98.1865 27.0688 94.6317C26.4115 94.0064 26.0006 93.1626 25.912 92.256C25.7402 90.1146 27.4907 88.1632 30.5142 89.9482C34.4369 92.2653 35.6493 94.1547 43.8509 95.3935C48.4961 96.0956 50.6848 95.778 51.9262 95.2693Z" fill="white"/>
<path d="M46.031 104.952V105.117H24.8539C24.5937 104.941 24.3483 104.76 24.1176 104.572C23.3964 103.988 22.9165 103.225 22.8104 102.398C22.554 100.409 24.3411 98.5313 27.6033 100.092C31.8367 102.119 33.1868 103.84 41.9138 104.717C43.5582 104.883 44.9095 104.952 46.031 104.952Z" fill="white"/>
<path d="M31.2289 79.2239C31.5805 79.3882 31.9144 79.5885 32.2254 79.8217C34.255 81.3383 34.2916 84.5438 31.9071 85.8096C31.2377 86.1489 30.5004 86.3297 29.7513 86.3382C31.4259 85.5893 31.6558 83.864 30.5141 82.0228C29.2309 79.9541 29.5631 80.0936 29.4873 78.6895L29.5479 78.7V78.7012C30.1279 78.8032 30.6927 78.9789 31.2289 79.2239Z" fill="#FFFFCC"/>
<path d="M29.4876 78.6894C29.5634 80.0935 29.2312 79.954 30.5144 82.0227C31.6561 83.864 31.4262 85.5892 29.7516 86.3381C29.6846 86.3405 29.6164 86.3417 29.547 86.3417C29.4699 86.3932 29.3941 86.446 29.3171 86.5011C28.9634 86.6064 28.5998 86.6748 28.2322 86.705C25.2365 86.9699 25.6482 86.0721 24.158 87.3156C22.6689 88.558 17.8192 95.1906 16.8922 100.154C15.9652 105.117 14.7528 102.432 13.3976 103.774C13.0112 104.162 12.6968 104.617 12.4694 105.117H9.86768C9.90556 105.005 9.94472 104.892 9.98639 104.778C12.1852 101.267 14.1743 99.0924 15.9968 96.9698C17.8192 94.846 19.1024 90.2352 21.2418 87.3121C22.6854 85.3407 22.2231 83.7901 22.0779 82.27V82.2676C22.1726 81.6007 22.1082 80.9995 22.338 80.0478V80.0466C22.4522 79.5867 22.6025 79.1368 22.7877 78.7011C24.1491 75.4194 28.5467 74.4993 29.4447 78.1526C29.4661 78.3542 29.48 78.5311 29.4876 78.6894ZM14.1819 101.631C16.0145 101.8 16.5348 98.0235 15.3943 99.0162C14.2526 100.009 13.1122 101.533 14.1819 101.631Z" fill="white"/>
<path d="M28.2321 86.7054C28.5998 86.6752 28.9633 86.6068 29.317 86.5015C24.7565 89.7844 20.0798 99.503 19.0012 105.117H12.4692C12.6967 104.617 13.0111 104.162 13.3975 103.774C14.7527 102.432 15.9651 105.117 16.8921 100.155C17.8191 95.191 22.6688 88.5584 24.1579 87.316C25.6481 86.0725 25.2364 86.9703 28.2321 86.7054Z" fill="#FFFFCC"/>
<path d="M22.0778 82.27C22.2231 83.7902 22.6853 85.3408 21.2418 87.3122C19.1023 90.2353 17.8192 94.8461 15.9967 96.9698C14.1743 99.0924 12.1851 101.267 9.98633 104.778C12.1889 98.6002 17.4428 89.164 20.1253 85.8448C21.5954 84.0246 21.9591 83.0963 22.0778 82.27Z" fill="#EDEDE4"/>
<path d="M15.3941 99.0162C16.5345 98.0234 16.0142 101.8 14.1816 101.631C13.1119 101.533 14.2524 100.009 15.3941 99.0162Z" fill="#EDEDE4"/>
<path d="M63.5792 76.1919C58.9685 76.192 56.5425 73.4404 56.0333 72.4025C55.516 71.348 55.7161 69.7704 56.5312 68.4766C57.3673 67.1497 58.6576 66.4088 60.0751 66.4344H60.0752C60.2669 66.4384 60.4733 66.4373 60.7064 66.431C61.9485 66.4004 62.6718 66.7596 63.3713 67.1093C64.0269 67.4371 64.7044 67.7758 66.0343 67.88C67.4092 67.724 68.6152 68.2056 69.3547 69.2109C70.1421 70.2817 70.2641 71.7635 69.6731 73.0782C68.8864 74.8279 67.0291 75.9476 64.5771 76.1501C64.2339 76.1784 63.9013 76.1924 63.5792 76.1919ZM59.9938 68.041C58.8648 68.041 58.1843 68.8509 57.8771 69.3385C57.3044 70.2474 57.236 71.2284 57.4625 71.6899C57.8046 72.3872 59.9906 74.9147 64.447 74.548C66.3048 74.3945 67.6804 73.6171 68.2209 72.4146C68.573 71.6312 68.5167 70.7705 68.0739 70.1682C67.6685 69.6169 66.9876 69.3736 66.1573 69.4842C66.1045 69.4911 66.0511 69.4928 65.998 69.4891C64.831 69.4283 63.6919 69.1073 62.6628 68.5493C62.0428 68.2391 61.5955 68.0159 60.7486 68.0379C60.4903 68.045 60.2594 68.0458 60.0427 68.0416C60.0263 68.0412 60.01 68.041 59.9938 68.041H59.9938Z" fill="#34248F"/>
<path d="M63.5348 106.99H63.5307C63.3193 106.989 63.117 106.903 62.9682 106.752C62.8195 106.6 62.7365 106.395 62.7375 106.182C62.7395 105.779 62.8088 96.2602 64.7967 91.4903C66.2189 88.078 66.2492 85.6081 65.6756 84.757C65.6139 84.6534 65.5249 84.5691 65.4185 84.5135C65.3121 84.4579 65.1924 84.4332 65.0729 84.4422C64.2184 84.4602 63.6315 84.84 63.0638 85.2072C62.4217 85.6227 61.6941 86.0936 60.7499 85.824C60.5464 85.7659 60.3742 85.6287 60.2711 85.4426C60.168 85.2565 60.1425 85.0367 60.2001 84.8316C60.2578 84.6265 60.3938 84.4529 60.5785 84.3489C60.7631 84.245 60.9811 84.2193 61.1845 84.2774C61.4142 84.3433 61.6589 84.2063 62.2026 83.8544C62.8495 83.436 63.7355 82.8627 65.0395 82.8352C65.4249 82.82 65.8076 82.9058 66.1502 83.0843C66.4928 83.2628 66.7836 83.5278 66.9942 83.8535C68.0448 85.4118 67.7727 88.4994 66.2666 92.1131C64.4017 96.5879 64.3324 106.095 64.3319 106.19C64.3308 106.403 64.2464 106.606 64.097 106.756C63.9477 106.906 63.7455 106.99 63.5348 106.99V106.99Z" fill="#34248F"/>
<path d="M57.1461 108.402C57.0321 108.402 56.9193 108.377 56.8155 108.33C56.7117 108.282 56.6192 108.213 56.5443 108.126C56.4694 108.039 56.4138 107.937 56.3812 107.827C56.3487 107.717 56.3399 107.601 56.3556 107.487C56.3609 107.448 56.8973 103.559 57.2724 99.4337C57.959 91.8821 57.4937 90.3184 57.3347 90.0191C55.9272 87.3687 56.0402 84.0807 57.5766 82.9829C59.2413 81.7932 61.6215 82.6097 63.5093 83.4539C63.6051 83.4966 63.6916 83.558 63.7639 83.6345C63.8361 83.7109 63.8927 83.801 63.9304 83.8995C63.9681 83.998 63.9862 84.1031 63.9836 84.2086C63.981 84.3142 63.9578 84.4182 63.9154 84.5148C63.8729 84.6113 63.8119 84.6984 63.736 84.7712C63.6601 84.844 63.5707 84.9009 63.473 84.9389C63.3752 84.9768 63.271 84.9949 63.1663 84.9922C63.0616 84.9895 62.9584 84.9661 62.8627 84.9232C60.6923 83.9526 59.2647 83.7467 58.4986 84.2943C57.9023 84.7203 57.5325 86.9859 58.7404 89.2604C59.1283 89.991 59.5628 91.8562 58.8597 99.5859C58.4811 103.748 57.9401 107.67 57.9347 107.709C57.9081 107.901 57.8137 108.077 57.6688 108.204C57.5239 108.332 57.3383 108.402 57.1461 108.402V108.402Z" fill="#34248F"/>
<path d="M47.268 92.4136C45.6316 92.4143 43.9998 92.2393 42.4002 91.8917C38.5646 91.0574 34.867 89.2226 31.41 86.4381C31.3282 86.3722 31.2601 86.2907 31.2095 86.1983C31.159 86.1059 31.127 86.0043 31.1153 85.8994C31.1037 85.7945 31.1127 85.6884 31.1418 85.587C31.1708 85.4856 31.2194 85.391 31.2848 85.3085C31.3501 85.2261 31.431 85.1574 31.5226 85.1064C31.6143 85.0554 31.715 85.0232 31.8191 85.0115C31.9231 84.9997 32.0284 85.0088 32.129 85.0381C32.2296 85.0674 32.3234 85.1164 32.4052 85.1823C38.0609 89.7377 44.1982 91.5417 50.6476 90.5442C53.3276 90.1296 54.6484 88.7239 54.5714 87.8684C54.5059 87.1417 53.2898 86.4411 50.72 86.5161C50.7064 86.5163 50.6928 86.5164 50.6792 86.5162C50.0654 86.5028 49.3453 86.5455 48.5835 86.5909C45.7036 86.763 42.1197 86.9774 39.2139 84.6179C37.5969 83.3049 37.5757 82.1832 37.8427 81.4735C38.5527 79.5855 42.1026 78.8772 45.1002 79.0194C48.3458 79.173 50.1427 78.3969 50.6952 77.686C50.8002 77.558 50.8708 77.4049 50.9002 77.2414C50.9296 77.0779 50.9169 76.9096 50.8632 76.7525C50.8372 76.7149 50.57 76.3756 49.3144 76.0838C45.5258 75.2033 37.3056 75.8001 31.6931 79.8786C31.5216 80.0033 31.308 80.0541 31.0993 80.02C30.8905 79.9858 30.7038 79.8695 30.5802 79.6966C30.4566 79.5237 30.4061 79.3083 30.44 79.0979C30.4738 78.8875 30.5892 78.6993 30.7608 78.5746C37.3631 73.7769 46.9835 73.5405 50.5139 74.756C51.5663 75.1184 52.1971 75.6326 52.3887 76.2846C52.5186 76.6888 52.5465 77.1193 52.4699 77.5371C52.3933 77.9549 52.2147 78.3469 51.9501 78.6777C50.8822 80.0513 48.2928 80.7793 45.0257 80.625C43.6564 80.5606 42.2416 80.6981 41.143 81.0029C39.9756 81.3267 39.4429 81.7527 39.3336 82.0433C39.2239 82.3348 39.5531 82.8294 40.2141 83.3661C42.6401 85.336 45.7474 85.1502 48.4892 84.9863C49.2763 84.9392 50.0201 84.8948 50.6945 84.9088C55.5191 84.7744 56.0968 87.0286 56.1593 87.7232C56.3412 89.7444 54.0757 91.6402 50.8894 92.133C49.6911 92.3191 48.4804 92.4129 47.268 92.4136V92.4136Z" fill="#34248F"/>
<path d="M29.5465 87.1505C28.7252 87.1412 27.908 87.0316 27.1129 86.8239C27.0112 86.7986 26.9155 86.7534 26.8312 86.6908C26.7469 86.6281 26.6756 86.5494 26.6215 86.459C26.5674 86.3686 26.5315 86.2684 26.5158 86.164C26.5001 86.0596 26.505 85.9531 26.5302 85.8506C26.5553 85.7481 26.6003 85.6516 26.6624 85.5667C26.7246 85.4817 26.8028 85.4099 26.8924 85.3554C26.9821 85.3009 27.0816 85.2647 27.1851 85.249C27.2887 85.2332 27.3943 85.2382 27.496 85.2636C30.0518 85.9012 31.9912 85.3982 32.6831 83.9175C33.2266 82.7545 32.8257 81.2716 31.7506 80.4679C30.7063 79.6871 29.628 79.5191 28.7616 79.384C27.8199 79.2371 26.648 79.0543 26.5119 77.7911C26.4893 77.5809 26.5498 77.3701 26.6803 77.2046C26.8108 77.039 27.0008 76.932 27.2091 76.9067C27.4174 76.8814 27.6271 76.9398 27.7929 77.0694C27.9587 77.199 28.0672 77.3892 28.0948 77.5988C28.2472 77.6772 28.6814 77.7449 29.0053 77.7954C29.9904 77.949 31.3395 78.1593 32.7003 79.1766C34.4012 80.4481 35.0006 82.7301 34.1255 84.6027C33.8079 85.2821 32.6488 87.1503 29.5465 87.1505Z" fill="#34248F"/>
<path d="M9.15433 108.402C9.03561 108.402 8.91837 108.375 8.81118 108.324C8.70399 108.272 8.60955 108.197 8.53474 108.104C8.45993 108.011 8.40664 107.903 8.37876 107.787C8.35087 107.67 8.3491 107.549 8.37357 107.432C9.56423 101.751 16.2824 89.3271 19.5068 85.3373C21.2468 83.1844 21.2875 82.4787 21.3439 81.5019C21.3858 80.7752 21.438 79.8708 22.052 78.3914C22.9599 76.2037 25.178 74.7572 27.2115 75.0256C28.8971 75.2485 30.0659 76.5821 30.3378 78.5931C30.3662 78.8042 30.3102 79.018 30.1822 79.1875C30.0543 79.357 29.8648 79.4684 29.6554 79.4972C29.4461 79.526 29.2339 79.4698 29.0657 79.3409C28.8974 79.2121 28.7867 79.0212 28.758 78.8102C28.5841 77.524 27.9612 76.746 27.0042 76.6195C25.8443 76.466 24.2254 77.3191 23.5229 79.0119C23.014 80.2382 22.9741 80.9281 22.9356 81.5953C22.8566 82.965 22.6696 83.9687 20.7429 86.3527C17.6081 90.2315 11.0839 102.276 9.93354 107.764C9.89574 107.944 9.79773 108.106 9.6559 108.222C9.51407 108.338 9.33701 108.402 9.15433 108.402V108.402Z" fill="#34248F"/>
<path d="M18.7808 108.402C18.5792 108.402 18.3851 108.325 18.2377 108.186C18.0903 108.047 18.0005 107.857 17.9864 107.654C17.8203 105.263 19.1192 100.787 21.2953 96.2517C23.6946 91.2516 26.5414 87.3956 29.1057 85.6722C29.2816 85.5542 29.4968 85.5114 29.704 85.5533C29.9113 85.5951 30.0935 85.7182 30.2107 85.8955C30.3279 86.0727 30.3706 86.2897 30.3292 86.4986C30.2878 86.7075 30.1659 86.8913 29.9901 87.0097C27.69 88.5555 24.9762 92.2722 22.7306 96.9517C20.6985 101.186 19.4311 105.442 19.5769 107.542C19.5843 107.647 19.5709 107.753 19.5377 107.853C19.5045 107.953 19.4521 108.046 19.3834 108.125C19.3147 108.205 19.2311 108.27 19.1375 108.317C19.0438 108.365 18.9418 108.393 18.8373 108.4C18.8184 108.401 18.7995 108.402 18.7808 108.402Z" fill="#34248F"/>
<path d="M47.1497 101.56C44.3896 101.537 41.6381 101.246 38.9336 100.689C31.4225 99.1702 27.9267 96.602 26.5115 95.2063C25.7171 94.4451 25.2219 93.4205 25.1168 92.3207C25.0021 90.8887 25.585 89.5849 26.638 88.9181C27.3065 88.4952 28.7509 87.9765 30.9167 89.2553C31.7417 89.7425 32.4391 90.2044 33.1135 90.6512C35.6358 92.3219 37.628 93.6414 43.9687 94.5994C49.578 95.447 51.4171 94.7986 52.4764 94.0524H52.4763C52.9203 93.7422 53.4389 93.5583 53.9776 93.5198C54.5164 93.4813 55.0556 93.5898 55.5385 93.8337C56.4347 94.2817 56.9926 95.1198 57.0307 96.0757C57.0995 97.7986 55.7796 100.148 51.8335 101.1C50.5548 101.408 48.9463 101.56 47.1497 101.56ZM28.324 90.0539C28.0291 90.0471 27.7383 90.1253 27.486 90.2794C26.9382 90.6262 26.6394 91.3588 26.706 92.1914C26.7804 92.9046 27.1072 93.567 27.6265 94.0572C29.82 96.2204 34.0556 98.0633 39.2473 99.1132C43.8626 100.047 48.6574 100.213 51.4626 99.5364C54.6764 98.7614 55.4733 97.037 55.4376 96.1402C55.4169 95.6219 55.0059 95.3617 54.8302 95.2738C54.603 95.1599 54.3501 95.1089 54.097 95.1258C53.8439 95.1427 53.5998 95.227 53.3896 95.3701H53.3896C52.0065 96.3443 49.8793 97.1182 43.7323 96.1891C37.0453 95.1788 34.8175 93.7031 32.238 91.9946C31.5804 91.559 30.9004 91.1086 30.1108 90.6422C29.4499 90.2519 28.8406 90.0539 28.324 90.0539Z" fill="#34248F"/>
<path d="M44.3163 110.426C41.8394 110.416 39.3662 110.232 36.915 109.872C28.9361 108.714 25.1592 106.447 23.6179 105.199C22.7165 104.469 22.1487 103.511 22.019 102.501C21.8583 101.25 22.3464 100.042 23.2927 99.3492C23.9742 98.8502 25.4848 98.1889 27.9455 99.3667C28.8342 99.792 29.5877 100.198 30.3165 100.592C33.0555 102.069 35.2189 103.236 41.993 103.917C48.0078 104.523 49.9558 103.846 51.068 103.104C51.5591 102.787 52.1224 102.602 52.7044 102.566C53.2864 102.53 53.8678 102.645 54.3936 102.899C55.2464 103.316 55.7758 104.044 55.8462 104.898C55.981 106.533 54.6695 108.804 50.5294 109.822C48.8961 110.224 46.7341 110.426 44.3163 110.426ZM25.3668 100.32C24.9626 100.305 24.5643 100.421 24.2297 100.65C23.7485 101.002 23.5132 101.617 23.6002 102.295C23.6768 102.891 24.0377 103.477 24.6166 103.946C27.0232 105.895 31.5886 107.475 37.1423 108.281C42.0803 108.998 47.1867 108.99 50.1515 108.261C53.0957 107.537 54.3437 106.079 54.2572 105.031C54.2264 104.657 53.8934 104.441 53.6978 104.345C53.4211 104.213 53.116 104.153 52.8103 104.17C52.5045 104.187 52.208 104.282 51.9478 104.444C50.534 105.388 48.3301 106.17 41.8346 105.517C34.7458 104.803 32.3446 103.508 29.5644 102.009C28.8522 101.625 28.1157 101.227 27.2617 100.819C26.5687 100.487 25.9211 100.32 25.3668 100.32V100.32Z" fill="#34248F"/>
<path d="M78.4127 94.9126C71.5175 94.9126 67.9436 93.0807 67.5089 89.3434C67.3643 88.1011 67.907 86.9857 68.925 86.4327C70.0979 85.7951 71.6094 86.0624 72.8687 87.1298C73.9044 88.0075 75.1513 88.2427 76.9551 88.3524C79.4371 88.5032 81.0521 88.254 81.7544 87.6117C81.8756 87.5024 81.9725 87.3683 82.0384 87.2184C82.1044 87.0685 82.138 86.9062 82.137 86.7422C82.1794 85.5857 80.3174 85.0279 77.4718 84.3089C75.9146 83.9153 74.3041 83.5083 72.935 82.8486C71.5741 82.1929 70.3002 80.908 70.806 79.2689C71.3091 77.6387 73.5845 76.2709 76.9607 76.8114C79.1248 77.1576 82.2954 77.8014 85.1115 78.902C88.1002 80.0701 90.1286 81.529 91.1402 83.2381C91.1939 83.3287 91.2295 83.4292 91.2447 83.5337C91.2599 83.6381 91.2546 83.7446 91.229 83.8471C91.2034 83.9495 91.158 84.0458 91.0954 84.1305C91.0329 84.2152 90.9544 84.2867 90.8644 84.3408C90.7744 84.3949 90.6748 84.4306 90.5711 84.4459C90.4675 84.4611 90.3618 84.4557 90.2603 84.4297C90.1587 84.4038 90.0632 84.358 89.9792 84.2948C89.8952 84.2317 89.8244 84.1525 89.7708 84.0617C88.2863 81.5534 83.5261 79.4893 76.7108 78.3988C74.132 77.9868 72.5715 78.9591 72.3285 79.7463C72.0721 80.577 73.2542 81.2209 73.6225 81.3983C74.8472 81.9885 76.3786 82.3754 77.8596 82.7497C80.7918 83.4906 83.8238 84.2568 83.7303 86.8016C83.7247 87.18 83.6415 87.5531 83.4858 87.8974C83.3301 88.2417 83.1054 88.5498 82.8257 88.8022C81.7645 89.7728 79.8681 90.1394 76.8591 89.9569C75.1517 89.853 73.3579 89.6443 71.8428 88.3602C71.0945 87.7262 70.2665 87.5299 69.6814 87.8477C69.2448 88.0848 69.0247 88.5739 69.0925 89.1562C69.1918 90.0097 69.474 90.9951 70.815 91.8338C72.7337 93.0338 76.1441 93.5027 80.953 93.2285C85.5116 92.8534 86.8736 91.4785 87.792 90.219C87.854 90.134 87.9321 90.0621 88.0216 90.0075C88.1112 89.9528 88.2106 89.9165 88.3141 89.9006C88.4176 89.8847 88.5232 89.8895 88.6248 89.9147C88.7265 89.9399 88.8222 89.9851 88.9066 90.0476C88.9909 90.1101 89.0622 90.1888 89.1164 90.2791C89.1706 90.3694 89.2066 90.4695 89.2224 90.5739C89.2382 90.6782 89.2335 90.7847 89.2084 90.8871C89.1834 90.9896 89.1386 91.0861 89.0766 91.1712C87.8663 92.8308 86.059 94.4231 81.0725 94.8313C81.066 94.8319 81.0597 94.8323 81.0532 94.8327C80.1249 94.8859 79.2447 94.9126 78.4127 94.9126Z" fill="#34248F"/>
<path d="M79.4011 103.836C73.0004 103.836 68.4622 102.722 66.743 100.681C66.0857 99.9004 65.8445 98.9916 66.0453 98.0526C66.3533 96.612 67.125 95.986 67.7181 95.7146C69.3009 94.9904 71.3261 95.9484 72.1231 96.394C74.4408 97.6898 82.5522 98.4451 85.8921 96.9575C87.3347 96.3148 88.035 95.5967 88.653 94.9631C89.4204 94.1762 90.1445 93.435 91.7596 93.4794C93.9345 93.5422 94.8212 95.1199 94.9259 96.5755C94.9781 97.3028 94.6478 98.5976 93.5451 99.8535C91.0011 102.751 86.1203 103.575 82.4737 103.757C81.4083 103.81 80.3823 103.836 79.4011 103.836ZM69.0187 97.0556C68.7987 97.0501 68.58 97.0919 68.3772 97.1783C68.2363 97.2428 67.8075 97.439 67.6039 98.3914C67.5076 98.842 67.6202 99.2389 67.9585 99.6405C69.2207 101.139 73.6755 102.586 82.395 102.152C88.4477 101.85 91.15 100.156 92.3511 98.7881C93.2076 97.8127 93.3524 96.9255 93.3357 96.6917C93.2611 95.6552 92.7155 95.1151 91.714 95.0862C90.7924 95.0587 90.48 95.3826 89.79 96.09C89.1435 96.753 88.2579 97.6609 86.5365 98.4278C82.6546 100.157 73.9881 99.2744 71.3499 97.7998C70.6403 97.4031 69.7415 97.0556 69.0187 97.0556V97.0556Z" fill="#34248F"/>
<path d="M84.0011 110.794C83.6597 110.794 83.3096 110.79 82.949 110.783C78.4961 110.691 74.6247 110.311 71.7535 109.684C68.8533 109.051 67.0163 108.184 66.2937 107.109C66.1044 106.845 65.9835 106.537 65.9419 106.214C65.9003 105.891 65.9395 105.563 66.0557 105.259C66.1825 104.898 66.3835 104.567 66.6457 104.29C66.9078 104.012 67.2251 103.793 67.5769 103.648C69.2182 102.968 71.46 103.852 72.3475 104.264C74.7531 105.38 83.3604 106.432 86.9941 105.509C88.0763 105.254 89.1032 104.802 90.0243 104.175C90.8453 103.65 91.6201 103.154 93.2133 103.275V103.275C94.2682 103.355 95.0825 103.683 95.6338 104.25C96.0733 104.702 96.3288 105.303 96.3501 105.936C96.3719 106.538 96.0144 107.277 95.3939 107.912C94.0918 109.246 91.0585 110.794 84.0011 110.794ZM68.9626 105.002C68.6966 104.995 68.4318 105.04 68.1828 105.135C68.0333 105.196 67.899 105.289 67.7893 105.409C67.6796 105.528 67.5973 105.67 67.5481 105.825C67.5136 105.917 67.4902 106.023 67.6139 106.207C68.2848 107.206 72.2763 108.955 82.9817 109.176C88.5897 109.293 91.4957 108.439 92.9462 107.703C94.362 106.984 94.7346 106.208 94.7563 105.984C94.7193 105.172 93.8322 104.934 93.0928 104.878C92.0285 104.796 91.6201 105.057 90.879 105.532C89.8138 106.249 88.6303 106.769 87.384 107.067C83.2816 108.111 74.3447 106.96 71.6811 105.724C70.8476 105.337 69.8013 105.002 68.9626 105.002Z" fill="#34248F"/>
<path d="M91.301 92.2603C89.2207 92.2605 87.5812 91.4823 86.6869 89.9967C85.6975 88.353 85.9169 86.1777 87.2087 84.8243C88.6031 83.3633 89.8592 82.9831 90.7764 82.7055C91.415 82.5123 91.6694 82.4174 91.8076 82.1864C91.8617 82.096 91.9329 82.0171 92.0172 81.9544C92.1015 81.8917 92.1972 81.8463 92.2989 81.8209C92.4006 81.7956 92.5062 81.7906 92.6098 81.8064C92.7134 81.8222 92.8129 81.8584 92.9026 81.913C92.9922 81.9676 93.0704 82.0394 93.1325 82.1244C93.1946 82.2095 93.2395 82.306 93.2646 82.4086C93.2897 82.5111 93.2945 82.6176 93.2788 82.722C93.263 82.8264 93.227 82.9267 93.1727 83.0171C92.7037 83.8005 91.957 84.0265 91.2349 84.245C90.4039 84.4965 89.4621 84.7816 88.3576 85.9388C87.5587 86.7758 87.4294 88.1317 88.05 89.1627C88.9492 90.6566 91.1395 91.0578 93.9085 90.2364C94.1113 90.1763 94.3294 90.1999 94.515 90.3019C94.7006 90.4039 94.8383 90.5761 94.898 90.7805C94.9577 90.9849 94.9344 91.2049 94.8333 91.392C94.7322 91.5791 94.5614 91.7181 94.3587 91.7783C93.3674 92.0847 92.3378 92.247 91.301 92.2603Z" fill="#34248F"/>
<path d="M103.758 109.02C103.567 109.02 103.383 108.951 103.239 108.825C103.094 108.7 102.999 108.526 102.971 108.336C100.693 93.1713 97.685 89.7078 97.5469 89.5564C97.4243 89.4445 97.3412 89.2955 97.3099 89.1318C97.2786 88.9682 97.3009 88.7987 97.3735 88.6489C98.5253 86.0628 97.4761 84.314 96.7482 83.5016C95.8528 82.5025 94.24 81.699 93.0911 82.0836C92.5377 82.2688 92.236 82.711 92.1687 83.4355C92.1591 83.5406 92.1289 83.6428 92.0801 83.7362C92.0312 83.8297 91.9645 83.9124 91.8839 83.9799C91.8033 84.0473 91.7103 84.098 91.6102 84.1292C91.5101 84.1604 91.4049 84.1714 91.3006 84.1615C91.1963 84.1517 91.0949 84.1212 91.0023 84.0719C90.9097 84.0225 90.8276 83.9552 90.7608 83.8739C90.694 83.7926 90.6438 83.6987 90.6129 83.5978C90.5821 83.4969 90.5713 83.3908 90.5812 83.2857C90.7064 81.9374 91.4381 80.9433 92.5885 80.558C94.2246 80.0105 96.4715 80.7951 97.9313 82.4241C99.5096 84.1852 99.8947 86.5026 99.0176 88.8448C99.9693 90.1702 102.553 94.8171 104.547 108.096C104.564 108.21 104.556 108.327 104.525 108.438C104.493 108.55 104.438 108.653 104.363 108.74C104.288 108.828 104.195 108.898 104.09 108.947C103.986 108.995 103.873 109.02 103.758 109.02H103.758Z" fill="#34248F"/>
<path d="M97.1262 107.829C97.0215 107.829 96.9178 107.808 96.8211 107.767C96.7244 107.727 96.6365 107.668 96.5624 107.593C96.4884 107.519 96.4297 107.43 96.3896 107.332C96.3496 107.235 96.3289 107.13 96.329 107.025C96.329 101.394 94.2782 95.2078 91.3417 91.9815C91.2708 91.9038 91.2158 91.8127 91.1798 91.7135C91.1439 91.6143 91.1276 91.5089 91.1321 91.4034C91.1365 91.2979 91.1615 91.1943 91.2057 91.0985C91.2499 91.0027 91.3124 90.9167 91.3896 90.8453C91.4668 90.7739 91.5572 90.7185 91.6557 90.6824C91.7541 90.6462 91.8587 90.63 91.9633 90.6346C92.068 90.6392 92.1708 90.6645 92.2657 90.7092C92.3606 90.7538 92.4459 90.8169 92.5167 90.8948C96.2516 94.9986 97.9234 101.953 97.9234 107.025C97.9234 107.13 97.9028 107.235 97.8627 107.332C97.8227 107.43 97.7639 107.519 97.6899 107.593C97.6159 107.668 97.528 107.727 97.4313 107.767C97.3345 107.808 97.2309 107.829 97.1262 107.829V107.829Z" fill="#34248F"/>
<path d="M89.3805 74.272C94.0211 74.0987 95.7099 78.1183 94.7247 80.4525C93.7396 82.7867 89.322 84.2138 85.4822 92.6424C81.6425 101.071 85.4822 104 85.4822 104C85.4822 104 85.2668 104.087 84.8695 104.209C83.8507 101.458 80.9525 103.288 81.432 98.9308C81.924 94.4576 82.6986 91.151 86.1448 87.6491C89.591 84.1484 92.2637 82.4951 92.4032 80.9554C92.544 79.4157 91.9113 78.767 91.2076 77.7291C90.5051 76.6923 93.3684 75.6544 89.5449 74.5522L89.2323 75.1699C89.2883 74.884 89.3369 74.5855 89.3805 74.272Z" fill="#FFFFCC"/>
<path d="M91.2074 77.7294C91.9111 78.7673 92.5438 79.416 92.403 80.9557C92.2636 82.4954 89.5908 84.1487 86.1447 87.6494C82.6985 91.1512 81.9238 94.4579 81.4319 98.9311C80.9524 103.288 83.8505 101.458 84.8693 104.209C84.8108 104.226 84.7485 104.245 84.6837 104.264C84.5654 104.299 84.4359 104.334 84.2939 104.371C84.2379 104.386 84.1806 104.401 84.1208 104.416C83.9402 104.461 83.7434 104.506 83.5305 104.551C83.4595 104.566 83.3872 104.581 83.3125 104.596C83.1643 104.626 83.0111 104.655 82.8492 104.682C82.8093 104.689 82.7682 104.696 82.7284 104.703C82.7234 104.704 82.7197 104.704 82.7147 104.705C82.6375 104.718 82.5578 104.73 82.4768 104.743C82.1368 104.795 81.7719 104.841 81.3845 104.877C81.336 104.882 81.2874 104.887 81.2376 104.891C80.9922 104.913 80.7386 104.93 80.4766 104.943C80.4243 104.945 80.372 104.947 80.3184 104.95C80.2661 104.952 80.2126 104.954 80.159 104.957C80.032 104.96 79.9037 104.963 79.7742 104.965C79.6285 104.967 79.479 104.967 79.3283 104.966C79.2698 104.966 79.2125 104.965 79.1539 104.963C78.9796 104.961 78.8015 104.955 78.6209 104.947C78.5611 104.945 78.5013 104.942 78.4403 104.938C77.9869 104.914 77.5174 104.874 77.0342 104.814C76.9545 104.804 76.8748 104.794 76.7938 104.782C76.7041 104.769 76.6132 104.757 76.5211 104.743C76.4364 104.729 76.3517 104.717 76.267 104.702C76.1051 104.675 75.9432 104.647 75.78 104.616C75.6729 104.595 75.5658 104.574 75.4574 104.551C75.3404 104.527 75.222 104.502 75.1037 104.474C74.9269 104.434 74.7475 104.391 74.5682 104.345C74.5084 104.33 74.4474 104.314 74.3876 104.298C74.2668 104.265 74.146 104.232 74.0252 104.198C73.9641 104.18 73.9031 104.162 73.8421 104.144C73.659 104.09 73.4759 104.032 73.2903 103.971C73.2306 103.952 73.1708 103.932 73.111 103.912C73.0848 103.904 73.0587 103.895 73.0313 103.884C72.964 103.861 72.8955 103.837 72.827 103.813C72.5356 103.71 72.2404 103.597 71.944 103.475C71.8705 103.446 71.7983 103.415 71.7248 103.384C71.6513 103.353 71.5778 103.322 71.5044 103.289C71.3574 103.225 71.2104 103.16 71.0622 103.09C70.9875 103.055 70.9128 103.02 70.8368 102.984C70.7633 102.948 70.6898 102.913 70.6164 102.876C70.4682 102.804 70.3187 102.728 70.1705 102.649C70.0958 102.61 70.021 102.57 69.9463 102.529C69.8716 102.489 69.7956 102.449 69.7209 102.407C69.6424 102.364 69.5627 102.319 69.4842 102.274L69.483 102.273L69.4818 102.272C66.1141 98.9357 60.7549 95.9493 62.0153 97.0516C63.2757 98.1538 63.0752 99.0608 61.3838 98.8794C52.4813 96.7795 39.7977 83.5758 38.881 79.8052C38.3044 77.4263 38.5298 76.9521 36.42 71.96C34.4011 67.1802 36.9556 65.2536 39.2758 64.4224C39.762 64.4619 40.2421 64.557 40.7069 64.706C40.6707 64.7932 40.6371 64.8816 40.6072 64.9712C40.596 65.0033 40.586 65.0343 40.5761 65.0665C40.5474 65.1549 40.5213 65.2444 40.4989 65.334C40.4901 65.3673 40.4827 65.4006 40.4752 65.4339C40.4167 65.6835 40.3772 65.9372 40.3569 66.1928C40.3531 66.2353 40.3507 66.2789 40.3482 66.3226C40.3469 66.3421 40.3457 66.3604 40.3444 66.38C40.3407 66.4408 40.3394 66.5028 40.337 66.5648C40.3297 66.9355 40.3493 67.3061 40.3955 67.6739L40.3357 67.6808C40.4752 69.7601 40.8899 70.8899 41.3744 71.6982C41.8486 72.6199 42.4091 73.4938 43.0483 74.3079C43.124 74.5295 43.2731 74.7181 43.4705 74.8418C46.7386 78.8557 53.1925 84.3014 65.4203 92.4131C76.0054 100.154 79.3993 97.0125 82.6063 90.5462C83.4159 88.9135 84.2603 87.1224 85.0362 85.4335C85.2622 85.0153 85.4598 84.5823 85.6278 84.1372C86.9729 81.1761 88.0041 78.7834 88.1075 78.5434C88.1077 78.5404 88.109 78.5375 88.1112 78.5354C88.1112 78.5342 88.1125 78.5319 88.1125 78.5308L88.1137 78.5297C88.1137 78.5274 88.115 78.5262 88.1162 78.5239C88.171 78.4114 88.2258 78.2966 88.2781 78.1806C88.3043 78.1221 88.3317 78.0635 88.3566 78.0038C88.516 77.641 88.6642 77.261 88.7962 76.8568C88.8398 76.7236 88.8822 76.5881 88.9233 76.4492C88.9469 76.3688 88.9693 76.2885 88.9918 76.2058C89.0104 76.1392 89.0279 76.0726 89.0453 76.0049C89.0528 75.975 89.0603 75.944 89.0677 75.9119C89.0864 75.843 89.1026 75.7718 89.1188 75.7006C89.1412 75.6065 89.1624 75.51 89.1823 75.4124C89.1985 75.3401 89.2134 75.2666 89.2271 75.192C89.2294 75.1849 89.2311 75.1776 89.2321 75.1702L89.5447 74.5525C93.3683 75.6547 90.505 76.6926 91.2074 77.7294ZM90.434 81.4907C91.3668 80.8948 90.9969 79.4803 90.434 79.6755C89.8723 79.8695 89.5198 82.074 90.434 81.4907ZM37.6156 70.6625C38.8113 71.1161 38.3193 68.062 37.6156 67.9678C36.4001 67.8071 36.42 70.209 37.6156 70.6625Z" fill="#50C5FF"/>
<path d="M90.4342 79.6756C90.9971 79.4804 91.3671 80.8949 90.4342 81.4908C89.52 82.0741 89.8725 79.8696 90.4342 79.6756Z" fill="#FFFFCC"/>
<path d="M81.6548 66.623C85.9939 67.9606 89.805 67.824 89.531 72.6726C89.4986 73.2444 89.4476 73.776 89.3803 74.272C89.3367 74.5854 89.2881 74.8839 89.2321 75.1698C89.231 75.1772 89.2294 75.1845 89.2271 75.1917C89.2134 75.2663 89.1985 75.3398 89.1823 75.4121C89.1623 75.5097 89.1412 75.6061 89.1188 75.7003C89.1026 75.7715 89.0864 75.8426 89.0677 75.9115C89.0602 75.9437 89.0528 75.9747 89.0453 76.0045C89.0278 76.0723 89.0104 76.1389 88.9917 76.2055C88.9693 76.2881 88.9469 76.3685 88.9232 76.4489C88.8821 76.5878 88.8398 76.7233 88.7962 76.8565C88.6642 77.2606 88.516 77.6406 88.3565 78.0035C88.3316 78.0632 88.3042 78.1217 88.2781 78.1803C88.2258 78.2962 88.171 78.411 88.1162 78.5236C88.1149 78.5259 88.1137 78.527 88.1137 78.5293L88.1124 78.5305C88.1124 78.5316 88.1112 78.5339 88.1112 78.535L88.0776 78.6005C88.0452 78.6682 88.0115 78.7348 87.9767 78.8014C87.7874 79.1711 87.5856 79.527 87.3739 79.8807C87.3266 79.9599 87.2792 80.0391 87.2307 80.1183C87.1696 80.2182 87.1086 80.317 87.0463 80.4169C86.9928 80.503 86.9392 80.5879 86.8844 80.674C86.6839 80.9909 86.4784 81.3124 86.2679 81.6431C86.2268 81.7074 86.1857 81.7728 86.1446 81.8383C85.9254 82.1827 85.705 82.5398 85.482 82.9164C85.4272 83.0094 85.37 83.1024 85.3127 83.1942C85.2728 83.2585 85.2317 83.3228 85.1894 83.3871C85.1844 83.3951 85.1794 83.4032 85.1744 83.4101C85.1483 83.4502 85.1221 83.4893 85.096 83.5283C85.0424 83.6087 84.9876 83.6879 84.9303 83.7671C84.873 83.8487 84.8145 83.929 84.7547 84.0094L84.7559 84.006C84.8095 83.8544 86.5394 78.9932 86.9006 76.8863C87.2693 74.7473 87.7612 71.986 86.4958 70.7081C85.2292 69.4303 84.3873 70.126 83.0148 68.7414C82.1592 67.878 82.1305 67.1994 81.6548 66.623Z" fill="#FFFFCC"/>
<path d="M88.1141 78.5293L88.1128 78.5304L88.1141 78.5293Z" fill="#EF84D6"/>
<path d="M88.1113 78.5352C88.109 78.5372 88.1077 78.5401 88.1075 78.5432C88.0976 78.5627 88.0876 78.5822 88.0776 78.6006L88.1113 78.5352Z" fill="#EF84D6"/>
<path d="M88.0777 78.6009C88.0877 78.5825 88.0977 78.563 88.1076 78.5435C88.0043 78.7834 86.973 81.1762 85.6279 84.1372C85.9155 83.4021 86.0898 82.6269 86.1448 81.8386C86.1859 81.7732 86.227 81.7078 86.2681 81.6435C86.4786 81.3128 86.6841 80.9913 86.8846 80.6744C86.9394 80.5883 86.9929 80.5033 87.0465 80.4172C87.1088 80.3173 87.1698 80.2186 87.2308 80.1187C87.2794 80.0395 87.3267 79.9603 87.3741 79.881C87.5858 79.5274 87.7875 79.1715 87.9769 78.8018C88.0117 78.7352 88.0454 78.6686 88.0777 78.6009Z" fill="#FFA4E5"/>
<path d="M86.4962 70.7085C87.7616 71.9864 87.2697 74.7477 86.901 76.8867C86.5398 78.9936 84.8099 83.8548 84.7564 84.0064L84.7551 84.0098C84.5708 84.2578 84.374 84.5001 84.1672 84.7366C84.1274 84.7825 84.0863 84.8285 84.0452 84.8732C84.0016 84.9226 83.9568 84.9708 83.9107 85.019C83.8858 85.0466 83.8596 85.0742 83.8322 85.1017C83.8111 85.1247 83.7899 85.1476 83.7675 85.1695C83.4512 85.4958 83.116 85.8029 82.7636 86.0891C82.7113 86.1316 82.659 86.1729 82.6067 86.2143C82.168 86.558 81.7056 86.87 81.223 87.1477C81.1246 87.204 81.0237 87.2602 80.9229 87.3153C80.7709 87.3969 80.6152 87.4761 80.457 87.553C80.4047 87.5794 80.3512 87.6047 80.2976 87.6299C79.8259 87.8506 79.3419 88.0434 78.8479 88.2075C78.8068 88.2212 78.7657 88.2339 78.7246 88.2476C78.6711 88.2649 78.6175 88.2821 78.5627 88.2982C78.5104 88.3154 78.4569 88.3315 78.4033 88.3475C78.356 88.3613 78.3074 88.3751 78.2588 88.3889C77.8727 88.5002 77.4713 88.5978 77.0545 88.6816C76.9959 88.6931 76.9362 88.7046 76.8764 88.7161C76.7979 88.731 76.7182 88.7459 76.6372 88.7597C76.6273 88.762 76.6173 88.7632 76.6074 88.7655C76.5264 88.7792 76.4442 88.793 76.3608 88.8056C76.2935 88.8171 76.2238 88.8275 76.1553 88.8366C75.8464 88.8826 75.5292 88.9205 75.2037 88.9503C75.139 88.9572 75.0717 88.9629 75.0057 88.9675C74.8949 88.9767 74.784 88.9859 74.6719 88.9928C74.5935 88.9985 74.515 89.0031 74.4365 89.0066C74.3406 89.0123 74.2435 89.0169 74.1463 89.0204C74.0691 89.0238 73.9919 89.0272 73.9134 89.0284C73.7939 89.033 73.6743 89.0353 73.5535 89.0364C73.4539 89.0376 73.353 89.0387 73.2509 89.0387C73.1313 89.0387 73.0105 89.0387 72.8897 89.0353C72.861 89.0353 72.8324 89.0353 72.8037 89.0341C72.6979 89.033 72.592 89.0295 72.4862 89.0261C72.404 89.0238 72.3218 89.0203 72.2383 89.0169C72.1486 89.0135 72.059 89.0089 71.9681 89.0043C71.8784 88.9997 71.7875 88.9939 71.6953 88.9882C71.562 88.9802 71.4263 88.971 71.2905 88.9595C71.1934 88.9526 71.095 88.9446 70.9954 88.9342C70.9729 88.9331 70.9493 88.9308 70.9256 88.9285C70.8721 88.9239 70.8185 88.9193 70.765 88.9136C70.6641 88.9044 70.5644 88.8941 70.4623 88.8826C70.3701 88.8734 70.278 88.8631 70.1846 88.8516C70.131 88.8458 70.0762 88.8389 70.0214 88.8321C69.9131 88.8194 69.8047 88.8056 69.6964 88.7907C69.6914 88.7896 69.6864 88.7896 69.6802 88.7884C69.6079 88.7792 69.5357 88.7689 69.4622 88.7586C69.2779 88.7322 69.0923 88.7046 68.9055 88.6748C68.8183 88.661 68.7311 88.6472 68.6427 88.6323C68.5493 88.6173 68.4546 88.6013 68.36 88.584C68.279 88.5703 68.1981 88.5553 68.1159 88.5404C68.1141 88.5406 68.1124 88.5402 68.1109 88.5393C67.8693 88.4956 67.6239 88.4486 67.3773 88.398C67.2528 88.3728 67.1282 88.3475 67.0024 88.32C66.9153 88.3016 66.8268 88.2821 66.7384 88.2626L66.7048 88.2557C66.6076 88.2339 66.5092 88.212 66.4096 88.1891C69.2131 91.6921 72.262 92.7966 77.0719 91.7346C80.5679 90.963 83.5134 88.2752 85.0366 85.4335C84.2607 87.1225 83.4162 88.9136 82.6067 90.5462C79.3997 97.0126 76.0058 100.154 65.4207 92.4131C53.1929 84.3015 46.739 78.8558 43.4709 74.8419C44.5233 75.4309 46.318 72.7396 43.5954 69.3342C40.8393 65.8863 43.5357 62.327 46.3342 60.3935L46.3354 60.3924C46.9544 60.1501 47.6332 59.9109 48.3717 59.6748C48.5486 59.6174 48.7304 59.5611 48.9148 59.5049C58.4026 56.6047 71.7974 61.2615 75.7356 62.6875C79.6737 64.1147 76.0357 64.6325 80.7385 66.3191C80.9054 66.3788 81.0736 66.4363 81.2404 66.4914C81.3027 66.512 81.365 66.5316 81.426 66.5511C81.502 66.5763 81.578 66.5993 81.6539 66.6223L81.6552 66.6234C82.1309 67.1998 82.1596 67.8783 83.0152 68.7417C84.3877 70.1264 85.2296 69.4306 86.4962 70.7085ZM85.0901 79.6572C85.6319 78.594 85.5111 78.0544 85.0901 78.1841C84.6679 78.3139 84.8087 80.2083 85.0901 79.6572V79.6572ZM71.4101 81.88C78.0621 82.601 82.8085 77.7214 82.2331 72.5869C82.2331 72.5863 82.2331 72.5856 82.2329 72.585C82.2326 72.5844 82.2323 72.5839 82.2318 72.5834C81.1632 68.0965 76.8764 70.9404 73.414 67.961C69.8981 64.9345 72.3591 67.1619 63.0755 64.7048C53.9576 62.2914 49.7928 64.3616 48.2833 65.6038C47.8773 66.4833 47.8773 67.5718 48.2036 68.7417C48.8587 71.0954 50.8365 73.7833 53.5105 75.7845C58.0115 79.1566 64.2363 81.1016 71.4101 81.88ZM46.2669 63.2765C47.216 63.1744 47.9545 61.73 47.4277 61.8127C45.7812 62.0721 45.3166 63.3787 46.2669 63.2765Z" fill="#FFA4E5"/>
<path d="M86.1446 81.8384C86.0896 82.6267 85.9153 83.4018 85.6278 84.137C85.4372 84.5595 85.24 84.9916 85.0362 85.4332C83.513 88.2749 80.5675 90.9627 77.0715 91.7342C72.2616 92.7963 69.2127 91.6918 66.4092 88.1888C66.5088 88.2117 66.6072 88.2336 66.7043 88.2554L66.738 88.2623C66.8264 88.2818 66.9148 88.3013 67.002 88.3197C67.1278 88.3472 67.2523 88.3725 67.3769 88.3977C67.6235 88.4483 67.8688 88.4953 68.1105 88.539C68.112 88.5399 68.1137 88.5403 68.1154 88.5401C68.1976 88.555 68.2786 88.57 68.3596 88.5837C68.4542 88.601 68.5489 88.617 68.6423 88.632C68.7307 88.6469 68.8179 88.6607 68.9051 88.6744C69.0919 88.7043 69.2775 88.7318 69.4618 88.7583C69.5353 88.7686 69.6075 88.7789 69.6797 88.7881C69.686 88.7893 69.6909 88.7893 69.6959 88.7904C69.8043 88.8053 69.9126 88.8191 70.021 88.8317C70.0758 88.8386 70.1306 88.8455 70.1841 88.8513C70.2776 88.8627 70.3697 88.8731 70.4619 88.8823C70.564 88.8937 70.6636 88.9041 70.7645 88.9133C70.8181 88.919 70.8716 88.9236 70.9252 88.9282C70.9489 88.9305 70.9725 88.9328 70.9949 88.9339C71.0946 88.9443 71.193 88.9523 71.2901 88.9592C71.4259 88.9707 71.5616 88.9798 71.6949 88.9879C71.787 88.9936 71.878 88.9994 71.9676 89.004C72.0585 89.0086 72.1482 89.0131 72.2379 89.0166C72.3213 89.02 72.4035 89.0235 72.4857 89.0258C72.5916 89.0292 72.6975 89.0327 72.8033 89.0338C72.832 89.035 72.8606 89.035 72.8893 89.035C73.0101 89.0384 73.1309 89.0384 73.2504 89.0384C73.3526 89.0384 73.4535 89.0373 73.5531 89.0361C73.6739 89.035 73.7935 89.0327 73.913 89.0281C73.9915 89.0269 74.0687 89.0235 74.1459 89.02C74.2431 89.0166 74.3402 89.012 74.4361 89.0063C74.5146 89.0028 74.5943 88.9982 74.6715 88.9925C74.7836 88.9856 74.8944 88.9764 75.0053 88.9672C75.0713 88.9626 75.1386 88.9569 75.2033 88.95C75.5284 88.9201 75.8456 88.8823 76.1548 88.8363C76.2233 88.8271 76.2931 88.8168 76.3603 88.8053C76.4438 88.7927 76.526 88.7789 76.6069 88.7651C76.6169 88.7628 76.6269 88.7617 76.6368 88.7594C76.7178 88.7456 76.7975 88.7307 76.876 88.7158C76.9357 88.7043 76.9955 88.6928 77.0541 88.6813C77.4713 88.5975 77.8727 88.4999 78.2584 88.3886C78.307 88.3748 78.3556 88.361 78.4029 88.3472C78.4564 88.3311 78.51 88.3151 78.5623 88.2978C78.6171 88.2818 78.6707 88.2646 78.7242 88.2473C78.7653 88.2336 78.8064 88.2209 78.8475 88.2071C79.3414 88.0431 79.8255 87.8503 80.2972 87.6296C80.3508 87.6044 80.4043 87.5791 80.4566 87.5527C80.6148 87.4758 80.7705 87.3966 80.9224 87.315C81.0233 87.2599 81.1242 87.2037 81.2226 87.1474C81.7052 86.8697 82.1676 86.5577 82.6063 86.214C82.6586 86.1726 82.7109 86.1313 82.7632 86.0888C83.1156 85.8026 83.4508 85.4955 83.767 85.1692C83.7895 85.1473 83.8106 85.1244 83.8318 85.1014C83.8592 85.0739 83.8854 85.0463 83.9103 85.0187C83.9564 84.9705 84.0012 84.9223 84.0448 84.8729C84.0859 84.8282 84.127 84.7822 84.1668 84.7363C84.3736 84.4998 84.5704 84.2575 84.7547 84.0095C84.8145 83.9292 84.873 83.8488 84.9303 83.7673C84.9876 83.688 85.0424 83.6088 85.0959 83.5285C85.1221 83.4894 85.1483 83.4504 85.1744 83.4102C85.1794 83.4033 85.1844 83.3953 85.1894 83.3872C85.2317 83.3229 85.2728 83.2586 85.3127 83.1943C85.3699 83.1025 85.4272 83.0095 85.482 82.9165C85.705 82.5399 85.9254 82.1828 86.1446 81.8384Z" fill="#EF84D6"/>
<path d="M85.0897 78.184C85.5107 78.0543 85.6315 78.5939 85.0897 79.6571C84.8082 80.2083 84.6675 78.3138 85.0897 78.184Z" fill="#FFFFCC"/>
<path d="M85.0366 85.4335C85.2396 84.9926 85.4368 84.5605 85.6282 84.1372C85.4602 84.5822 85.2626 85.0153 85.0366 85.4335V85.4335Z" fill="#EF84D6"/>
<path d="M82.2328 72.5866C82.8082 77.7211 78.0618 82.6007 71.4099 81.8797C64.2361 81.1012 58.0113 79.1563 53.5102 75.7842C50.8362 73.7829 48.8585 71.0951 48.2034 68.7414C47.877 67.5715 47.877 66.483 48.2831 65.6035C49.7925 64.3612 53.9573 62.2911 63.0753 64.7045C72.3589 67.1616 69.8979 64.9342 73.4138 67.9607C76.8761 70.9401 81.163 68.0962 82.2316 72.5831C82.2321 72.5836 82.2324 72.5841 82.2326 72.5847C82.2328 72.5853 82.2329 72.5859 82.2328 72.5866V72.5866Z" fill="#EF84D6"/>
<path d="M81.54 66.5508L81.4877 66.622H81.4258V66.5508H81.54Z" fill="#F0E797"/>
<path d="M81.4878 66.622L81.5401 66.5508H81.6537V66.622H81.4878Z" fill="#EFE797"/>
<path d="M74.5739 88.9927L74.5637 89.0064H74.4365V88.9927H74.5739Z" fill="#B9EA97"/>
<path d="M74.564 89.0064L74.5741 88.9927H74.672V89.0064H74.564Z" fill="#B8EA97"/>
<path d="M71.8194 103.383L71.7519 103.475H71.7251V103.383H71.8194Z" fill="#8EED97"/>
<path d="M71.752 103.475L71.8195 103.383H71.9443V103.475H71.752Z" fill="#8DED97"/>
<path d="M71.6879 103.289L71.6188 103.383H71.5044V103.289H71.6879Z" fill="#8FED97"/>
<path d="M71.6187 103.383L71.6878 103.289H71.7248V103.383H71.6187Z" fill="#8EED97"/>
<path d="M69.4844 102.274C70.5542 103.333 70.8768 104.226 70.8208 104.952L68.0285 105.194C43.6139 92.3555 32.1259 79.0887 32.1259 69.8197C32.1188 69.1907 32.2083 68.5645 32.3912 67.9631V67.962C33.3825 64.8068 36.9395 64.1995 39.276 64.4222C36.9557 65.2535 34.4013 67.1801 36.4202 71.9598C38.53 76.952 38.3045 77.4261 38.8812 79.8051C39.7978 83.5756 52.4815 96.7793 61.384 98.8793C63.0753 99.0607 63.2758 98.1537 62.0154 97.0514C60.755 95.9492 66.1142 98.9355 69.4819 102.272L69.4831 102.273L69.4844 102.274Z" fill="#4198EF"/>
<path d="M70.0462 102.529L69.9585 102.649H69.9463V102.529H70.0462Z" fill="#9AEC97"/>
<path d="M70.1706 102.632L70.1581 102.649H69.9585L70.0462 102.529H70.1706V102.632Z" fill="#99EC97"/>
<path d="M70.1582 102.649L70.1707 102.632V102.649H70.1582Z" fill="#98EC97"/>
<path d="M69.7376 102.406L69.7212 102.429V102.406H69.7376Z" fill="#9CEC97"/>
<path d="M69.9371 102.406L69.8469 102.529H69.7212V102.429L69.7376 102.406H69.9371Z" fill="#9BEC97"/>
<path d="M69.8467 102.529L69.9369 102.406H69.9463V102.529H69.8467Z" fill="#9AEC97"/>
<path d="M47.4275 61.8125C47.9543 61.7298 47.2157 63.1743 46.2667 63.2765C45.3164 63.3787 45.781 62.072 47.4275 61.8125Z" fill="#EF84D6"/>
<path d="M46.122 60.4774C46.1918 60.4487 46.2628 60.4211 46.3338 60.3936C43.5352 62.327 40.8388 65.8863 43.595 69.3342C46.3176 72.7396 44.5229 75.4308 43.4705 74.8418C43.3235 74.6604 43.1828 74.4825 43.0483 74.308C43.042 74.2942 43.0358 74.2804 43.0308 74.2666C42.6124 73.1633 41.9448 72.6546 41.3744 71.6982C40.6059 70.1643 40.3668 68.8646 40.3955 67.674C40.3492 67.3062 40.3297 66.9355 40.3369 66.5648C40.3394 66.5028 40.3407 66.4409 40.3444 66.38C40.3456 66.3605 40.3469 66.3421 40.3481 66.3226C40.3506 66.279 40.3531 66.2353 40.3568 66.1929C40.3771 65.9372 40.4167 65.6835 40.4752 65.4339C40.4826 65.4006 40.4901 65.3673 40.4988 65.334C40.5212 65.2445 40.5474 65.1549 40.576 65.0665C40.586 65.0344 40.596 65.0034 40.6072 64.9712C40.6371 64.8817 40.6707 64.7933 40.7068 64.706C40.7541 64.5912 40.8064 64.4764 40.865 64.3639C40.8949 64.3041 40.926 64.2444 40.9596 64.1859C40.9696 64.1675 40.9808 64.148 40.992 64.1285C41.0095 64.0986 41.0269 64.0688 41.0456 64.0389C41.1203 63.9184 41.2 63.7978 41.2884 63.6796C41.3171 63.6405 41.347 63.6015 41.3769 63.5636C41.408 63.5223 41.4404 63.4821 41.4753 63.4407C41.5363 63.3673 41.5998 63.2926 41.6671 63.2203C41.6982 63.1858 41.7306 63.1514 41.7642 63.117C41.7704 63.1101 41.7767 63.102 41.7841 63.0951C41.89 62.9861 42.0008 62.8781 42.1204 62.7725C42.1615 62.7346 42.2026 62.6979 42.245 62.6623C42.2848 62.6279 42.3259 62.5934 42.367 62.559C42.5077 62.443 42.6584 62.3259 42.8191 62.2111C42.8988 62.1525 42.981 62.0951 43.0657 62.0389C43.0819 62.0274 43.0981 62.017 43.1155 62.0056C43.1641 61.9723 43.2139 61.9401 43.2637 61.908C43.3185 61.8724 43.3733 61.8379 43.4306 61.8023C43.544 61.7323 43.661 61.6623 43.7806 61.5934C43.8404 61.5589 43.9027 61.5233 43.9649 61.4889C44.021 61.4579 44.0783 61.4269 44.1355 61.3947C44.1542 61.3856 44.1729 61.3752 44.1916 61.3649C44.3074 61.304 44.427 61.242 44.549 61.1812C44.6163 61.1467 44.686 61.1134 44.7558 61.079C44.8255 61.0457 44.8965 61.0113 44.9675 60.978C44.9837 60.9699 44.9999 60.9619 45.0161 60.955C45.1319 60.901 45.2502 60.8471 45.3723 60.7931C45.5367 60.7208 45.7048 60.6484 45.8792 60.5773C45.9589 60.544 46.0398 60.5107 46.122 60.4774Z" fill="#EF84D6"/>
<path d="M44.5493 61.1808C44.6166 61.1464 44.6863 61.1119 44.7561 61.0786C44.6863 61.1131 44.6166 61.1464 44.5493 61.1808Z" fill="#A4A4F4"/>
<path d="M43.0483 74.3076C43.1828 74.4821 43.3236 74.6601 43.4705 74.8415C43.2731 74.7177 43.124 74.5292 43.0483 74.3076V74.3076Z" fill="#A4A4F4"/>
<path d="M43.031 74.2667C43.0359 74.2804 43.0422 74.2942 43.0484 74.308C42.4092 73.4939 41.8487 72.62 41.3745 71.6982C41.9449 72.6547 42.6125 73.1633 43.031 74.2667Z" fill="#FFA4E5"/>
<path d="M41.7845 63.0949C41.777 63.1018 41.7708 63.1099 41.7646 63.1168C41.7309 63.1512 41.6985 63.1857 41.6674 63.2201C41.5989 63.2936 41.5354 63.3671 41.4756 63.4405C41.4407 63.4819 41.4084 63.5221 41.3772 63.5634C41.3461 63.6013 41.3174 63.6403 41.2888 63.6794C41.2004 63.7976 41.1207 63.9182 41.0459 64.0387C41.0272 64.0686 41.0098 64.0984 40.9924 64.1283C40.9812 64.1478 40.97 64.1673 40.96 64.1857C40.9264 64.2454 40.894 64.3039 40.8653 64.3637C40.8068 64.4762 40.7545 64.591 40.7072 64.7058C40.2424 64.5568 39.7623 64.4617 39.2761 64.4222C39.3795 64.3843 39.4829 64.3499 39.585 64.3166C39.585 64.3166 33.4574 62.677 37.6795 61.6127C39.255 61.4198 40.8056 61.8217 41.7845 63.0949Z" fill="#50C5FF"/>
<path d="M41.6674 63.2202C41.6001 63.2925 41.5366 63.3672 41.4756 63.4407C41.5354 63.3672 41.5989 63.2937 41.6674 63.2202Z" fill="#A4A4F4"/>
<path d="M41.377 63.5635C41.3471 63.6014 41.3172 63.6404 41.2886 63.6794C41.3172 63.6404 41.3459 63.6014 41.377 63.5635Z" fill="#A4A4F4"/>
<path d="M40.9599 64.1855C40.9263 64.2441 40.8951 64.3038 40.8652 64.3635C40.8939 64.3038 40.9263 64.2453 40.9599 64.1855Z" fill="#A4A4F4"/>
<path d="M40.3957 67.6738C40.3671 68.8645 40.6062 70.1642 41.3746 71.6981C40.8902 70.8898 40.4754 69.76 40.3359 67.6807L40.3957 67.6738Z" fill="#A4A4F4"/>
<path d="M39.5848 64.3167C39.4827 64.35 39.3793 64.3844 39.2759 64.4223C36.9394 64.1996 33.3825 64.8069 32.3911 67.9621C32.3674 67.9092 32.345 67.8564 32.3238 67.8025C32.3201 67.791 32.3151 67.7795 32.3101 67.7669C32.3014 67.7451 32.2939 67.7221 32.2852 67.6991C32.2541 67.6119 32.2267 67.5246 32.203 67.4374C32.1893 67.3903 32.1781 67.3432 32.1669 67.2961C32.1582 67.2559 32.1507 67.2169 32.142 67.1767C32.1333 67.1274 32.1245 67.078 32.1183 67.0298C32.0971 66.8791 32.0863 66.7272 32.0859 66.5751C32.0859 66.5326 32.0872 66.4913 32.0884 66.4488C32.0897 66.4178 32.0922 66.3857 32.0934 66.3558C32.0959 66.3225 32.0984 66.2892 32.1021 66.2559C32.1046 66.2249 32.1084 66.1939 32.1121 66.1629C32.1158 66.1331 32.1208 66.1032 32.1245 66.0745C32.1308 66.0332 32.1382 65.9918 32.1457 65.9505C32.1632 65.8644 32.1831 65.7794 32.2043 65.6956C32.2142 65.6589 32.2254 65.6221 32.2366 65.5854C32.2491 65.5452 32.2615 65.505 32.2752 65.466C32.2827 65.443 32.2914 65.4212 32.2989 65.3994C32.3063 65.3756 32.3151 65.3522 32.3251 65.3294C32.3945 65.1496 32.4765 64.975 32.5704 64.8069C32.5816 64.7851 32.5941 64.7645 32.6065 64.7426C32.6451 64.6749 32.685 64.6095 32.7273 64.544C32.751 64.5073 32.7759 64.4705 32.8008 64.4338C32.8257 64.3982 32.8506 64.3615 32.8768 64.3259C33.0092 64.1437 33.1527 63.97 33.3065 63.8058C33.3376 63.7725 33.3687 63.7392 33.4024 63.7059C33.4435 63.6634 33.4858 63.6209 33.5294 63.5796C33.5543 63.5555 33.5792 63.5314 33.6054 63.5072C33.9004 63.2327 34.2188 62.9849 34.5569 62.7667C34.5893 62.746 34.6204 62.7254 34.6528 62.7058C34.7612 62.6381 34.8708 62.5726 34.9816 62.5106C35.0239 62.4865 35.0663 62.4636 35.1099 62.4406C35.2519 62.3637 35.3976 62.2925 35.5445 62.2259C35.6068 62.1972 35.6691 62.1696 35.7314 62.1432C35.7725 62.1249 35.8148 62.1076 35.8559 62.0916C35.8883 62.0778 35.9219 62.0652 35.9543 62.0525C35.9817 62.0411 36.0103 62.0307 36.0377 62.0204C36.0788 62.0043 36.1212 61.9894 36.1623 61.9745C36.2532 61.9423 36.3441 61.9125 36.435 61.8838C36.4736 61.8711 36.5123 61.8596 36.5521 61.8482C36.5969 61.8344 36.6418 61.8218 36.6879 61.8091C36.7215 61.7999 36.7551 61.7908 36.7887 61.7827C36.8672 61.7621 36.9457 61.7425 37.0254 61.7253C37.0914 61.7104 37.1562 61.6978 37.2222 61.6851C37.2658 61.6759 37.3093 61.6679 37.3529 61.661C37.4028 61.6518 37.4526 61.6438 37.5036 61.6369C37.5622 61.6277 37.6207 61.6197 37.6792 61.6128C33.4572 62.6771 39.5848 64.3167 39.5848 64.3167Z" fill="#4198EF"/>
<path d="M37.6156 67.9677C38.3193 68.0618 38.8113 71.1159 37.6156 70.6624C36.42 70.2089 36.4001 67.8069 37.6156 67.9677Z" fill="#4198EF"/>
<path d="M37.0257 61.7251C36.946 61.7424 36.8675 61.7619 36.789 61.7825C36.7554 61.7906 36.7218 61.7998 36.6882 61.8089C36.6421 61.8216 36.5972 61.8342 36.5524 61.848C36.5126 61.8595 36.4739 61.8709 36.4353 61.8836C36.3444 61.9123 36.2535 61.9421 36.1626 61.9743C36.1215 61.9892 36.0791 62.0041 36.038 62.0202C36.0106 62.0305 35.982 62.0409 35.9546 62.0524C35.9222 62.065 35.8886 62.0776 35.8562 62.0914C35.8151 62.1075 35.7728 62.1247 35.7317 62.1431C35.6694 62.1695 35.6071 62.1959 35.5448 62.2257C35.3979 62.2923 35.2522 62.3635 35.1102 62.4404C35.0666 62.4634 35.0242 62.4864 34.9819 62.5105C34.871 62.5725 34.7614 62.6379 34.6531 62.7057C34.6207 62.7252 34.5896 62.7458 34.5572 62.7665C34.2191 62.9847 33.9007 63.2325 33.6057 63.5071C33.5808 63.53 33.5546 63.5553 33.5297 63.5794C33.4861 63.6207 33.4438 63.6632 33.4027 63.7057C33.369 63.739 33.3379 63.7723 33.3068 63.8056C33.153 63.9698 33.0095 64.1435 32.8771 64.3257C32.8509 64.3613 32.826 64.398 32.8011 64.4336C32.7762 64.4704 32.7513 64.5071 32.7276 64.5438C32.6853 64.6093 32.6454 64.6747 32.6068 64.7425C32.5944 64.7643 32.5819 64.785 32.5707 64.8068C32.4768 64.9749 32.3948 65.1494 32.3253 65.3292C32.3154 65.352 32.3066 65.3754 32.2992 65.3992C32.2917 65.421 32.283 65.4428 32.2755 65.4658C32.2618 65.5048 32.2494 65.545 32.2369 65.5852C32.2257 65.622 32.2145 65.6587 32.2045 65.6954C32.1834 65.7793 32.1634 65.8642 32.146 65.9503C32.1385 65.9917 32.1311 66.033 32.1248 66.0743C32.1211 66.103 32.1161 66.1329 32.1124 66.1627C32.1086 66.1937 32.1049 66.2247 32.1024 66.2557C32.0987 66.289 32.0962 66.3223 32.0937 66.3556C32.0924 66.3855 32.0899 66.4176 32.0887 66.4486C32.0875 66.4911 32.0862 66.5324 32.0862 66.5749C32.0865 66.727 32.0974 66.879 32.1186 67.0296C32.1248 67.0778 32.1335 67.1272 32.1423 67.1766C32.151 67.2167 32.1585 67.2558 32.1672 67.296C32.1784 67.343 32.1896 67.3901 32.2033 67.4372C32.227 67.5244 32.2543 67.6117 32.2855 67.699C32.2942 67.7219 32.3017 67.7449 32.3104 67.7667C32.3154 67.7793 32.3204 67.7908 32.3241 67.8023C32.3453 67.8563 32.3677 67.9091 32.3913 67.9619C31.9432 67.1593 31.5932 66.305 31.3489 65.4176C31.1173 64.5209 31.0351 63.5564 31.3327 62.7114C31.6254 61.8801 32.0476 61.3566 32.5321 61.0466C33.3292 60.5379 34.2932 60.608 35.1239 60.8456C35.796 61.0463 36.4364 61.3424 37.0257 61.7251V61.7251Z" fill="#4198EF"/>
<path d="M35.7313 62.1431C35.669 62.1695 35.6067 62.197 35.5444 62.2257C35.6067 62.1959 35.669 62.1695 35.7313 62.1431Z" fill="#A4A4F4"/>
<path d="M35.0602 60.6906C35.0813 60.7411 35.1025 60.7928 35.1237 60.8456C34.293 60.608 33.329 60.5379 32.5319 61.0466C32.0941 60.6914 31.6289 60.3719 31.1407 60.0913C31.2665 58.888 29.4257 57.2944 28.4692 56.5527C31.0635 56.5091 33.7151 57.4678 35.0602 60.6906Z" fill="#EF84D6"/>
<path d="M33.6053 63.5073C33.5791 63.5314 33.5542 63.5555 33.5293 63.5797C33.5542 63.5555 33.5804 63.5303 33.6053 63.5073Z" fill="#A4A4F4"/>
<path d="M32.5318 61.0468C32.0473 61.3568 31.6251 61.8803 31.3324 62.7116C31.0347 63.5566 31.1169 64.5211 31.3486 65.4178C31.2153 65.5016 31.0821 65.5831 30.95 65.6612C29.6859 64.6554 30.0994 62.5428 28.438 61.9423C26.6445 61.2936 25.6942 62.0066 26.9472 61.196C28.1988 60.3866 29.8092 61.4555 29.5626 60.8722C29.316 60.289 27.7692 59.3486 27.7692 59.3486L31.1406 60.0938V60.0915C31.6288 60.3721 32.094 60.6916 32.5318 61.0468V61.0468Z" fill="#4198EF"/>
<path d="M28.4695 56.5527C29.426 57.2944 31.2667 58.8881 31.141 60.0913C29.9042 59.391 28.7771 59.1476 27.762 59.1969C26.3148 59.2635 25.0968 59.9214 24.1178 60.6861C24.7107 59.9513 25.6174 59.3025 26.9961 58.9271C31.2867 57.7606 16.1719 61.0225 26.331 56.7973C27.0348 56.6491 27.7507 56.5672 28.4695 56.5527V56.5527Z" fill="#FFA4E5"/>
<path d="M27.7794 59.1475L27.7617 59.2029V59.1475H27.7794Z" fill="#DAACD8"/>
<path d="M27.824 59.1475L27.7617 59.3438V59.2029L27.7794 59.1475H27.824Z" fill="#DBACD8"/>
<path d="M27.8687 59.1475L27.7617 59.4848V59.3438L27.824 59.1475H27.8687Z" fill="#DCACD7"/>
<path d="M27.9134 59.1475L27.7729 59.5907L27.7617 59.5871V59.4848L27.8687 59.1475H27.9134Z" fill="#DDACD6"/>
<path d="M27.9581 59.1475L27.8135 59.6037L27.7729 59.5907L27.9135 59.1475H27.9581Z" fill="#DEACD6"/>
<path d="M28.0029 59.1475L27.854 59.6168L27.8135 59.6037L27.9581 59.1475H28.0029Z" fill="#DFABD5"/>
<path d="M28.0475 59.1475L27.8945 59.6298L27.854 59.6168L28.0029 59.1475H28.0475Z" fill="#E0ABD5"/>
<path d="M28.0922 59.1475L27.9351 59.6429L27.8945 59.6298L28.0475 59.1475H28.0922Z" fill="#E1ABD4"/>
<path d="M28.1369 59.1475L27.9756 59.656L27.9351 59.6429L28.0922 59.1475H28.1369Z" fill="#E2ABD3"/>
<path d="M28.1815 59.1475L28.0161 59.6691L27.9756 59.656L28.1369 59.1475H28.1815Z" fill="#E3ABD3"/>
<path d="M28.2262 59.1475L28.0567 59.6822L28.0161 59.6691L28.1815 59.1475H28.2262Z" fill="#E4ABD2"/>
<path d="M28.2709 59.1475L28.0972 59.6952L28.0566 59.6822L28.2262 59.1475H28.2709Z" fill="#E5ABD2"/>
<path d="M28.3156 59.1475L28.1377 59.7082L28.0972 59.6952L28.2708 59.1475H28.3156Z" fill="#E6ABD1"/>
<path d="M28.3602 59.1475L28.1782 59.7213L28.1377 59.7082L28.3156 59.1475H28.3602Z" fill="#E7ABD0"/>
<path d="M28.4049 59.1475L28.2188 59.7344L28.1782 59.7213L28.3602 59.1475H28.4049Z" fill="#E8ABD0"/>
<path d="M28.4496 59.1475L28.2593 59.7475L28.2188 59.7344L28.4048 59.1475H28.4496Z" fill="#E9ABCF"/>
<path d="M28.4942 59.1475L28.2998 59.7606L28.2593 59.7475L28.4496 59.1475H28.4942Z" fill="#EAABCF"/>
<path d="M28.539 59.1475L28.3403 59.7737L28.2998 59.7606L28.4942 59.1475H28.539Z" fill="#EBABCE"/>
<path d="M28.5836 59.1475L28.3809 59.7866L28.3403 59.7737L28.539 59.1475H28.5836Z" fill="#ECAACE"/>
<path d="M28.6283 59.1475L28.4214 59.7997L28.3809 59.7866L28.5836 59.1475H28.6283Z" fill="#EDAACD"/>
<path d="M28.673 59.1475L28.4619 59.8128L28.4214 59.7997L28.6283 59.1475H28.673Z" fill="#EEAACC"/>
<path d="M28.7176 59.1475L28.5025 59.8259L28.4619 59.8128L28.6729 59.1475H28.7176Z" fill="#EFAACC"/>
<path d="M28.7623 59.1475L28.543 59.839L28.5024 59.8259L28.7176 59.1475H28.7623Z" fill="#F0AACB"/>
<path d="M28.8075 59.1475L28.584 59.8521L28.5435 59.839L28.7628 59.1475H28.8075Z" fill="#F1AACB"/>
<path d="M28.8522 59.1475L28.6245 59.8651L28.584 59.8521L28.8074 59.1475H28.8522Z" fill="#F2AACA"/>
<path d="M28.8968 59.1475L28.6651 59.8781L28.6245 59.8651L28.8522 59.1475H28.8968Z" fill="#F3AAC9"/>
<path d="M28.9416 59.1475L28.7056 59.8912L28.665 59.8781L28.8968 59.1475H28.9416Z" fill="#F4AAC9"/>
<path d="M28.9862 59.1475L28.7461 59.9043L28.7056 59.8912L28.9415 59.1475H28.9862Z" fill="#F5AAC8"/>
<path d="M29.0308 59.1475L28.7866 59.9174L28.7461 59.9043L28.9862 59.1475H29.0308Z" fill="#F6AAC8"/>
<path d="M29.0756 59.1475L28.8272 59.9305L28.7866 59.9174L29.0308 59.1475H29.0756Z" fill="#F7AAC7"/>
<path d="M29.1202 59.1475L28.8677 59.9435L28.8271 59.9305L29.0755 59.1475H29.1202Z" fill="#F8A9C7"/>
<path d="M29.1649 59.1475L28.9082 59.9566L28.8677 59.9435L29.1202 59.1475H29.1649Z" fill="#F9A9C6"/>
<path d="M29.2096 59.1475L28.9487 59.9697L28.9082 59.9566L29.1649 59.1475H29.2096Z" fill="#FAA9C5"/>
<path d="M29.2543 59.1475L28.9894 59.9827L28.9487 59.9697L29.2095 59.1475H29.2543Z" fill="#FBA9C5"/>
<path d="M29.2988 59.1475L29.0298 59.9958L28.9893 59.9827L29.2542 59.1475H29.2988Z" fill="#FCA9C4"/>
<path d="M29.3434 59.1475L29.0703 60.0089L29.0298 59.9958L29.2988 59.1475H29.3434Z" fill="#FDA9C4"/>
<path d="M29.3882 59.1475L29.1109 60.0219L29.0703 60.0089L29.3434 59.1475H29.3882Z" fill="#FEA9C3"/>
<path d="M29.4491 59.1475L29.1662 60.0398L29.1108 60.0219L29.3882 59.1475H29.4491Z" fill="#FEA9C3"/>
<path d="M29.5104 59.1475L29.2217 60.0576L29.1665 60.0398L29.4494 59.1475H29.5104Z" fill="#FEAAC2"/>
<path d="M29.5714 59.1475L29.277 60.0754L29.2217 60.0576L29.5104 59.1475H29.5714Z" fill="#FEABC2"/>
<path d="M29.6322 59.1475L29.3322 60.0933L29.2769 60.0754L29.5713 59.1475H29.6322Z" fill="#FEACC1"/>
<path d="M29.6931 59.1475L29.393 60.0935H29.3328L29.332 60.0933L29.632 59.1475H29.6931Z" fill="#FEADC0"/>
<path d="M29.7541 59.1475L29.4541 60.0935H29.3931L29.6932 59.1475H29.7541Z" fill="#FEAEBF"/>
<path d="M29.8151 59.1475L29.515 60.0935H29.4541L29.7541 59.1475H29.8151Z" fill="#FEAFBF"/>
<path d="M29.8762 59.1475L29.5762 60.0935H29.5151L29.8152 59.1475H29.8762Z" fill="#FEB0BE"/>
<path d="M29.8967 59.1475L29.9334 59.1593L29.6372 60.0935H29.5762L29.8762 59.1475H29.8967Z" fill="#FEB1BD"/>
<path d="M29.9334 59.1592L29.9888 59.1771L29.6981 60.0934H29.6372L29.9334 59.1592Z" fill="#FEB2BC"/>
<path d="M29.9889 59.1772L30.0442 59.195L29.7593 60.0936H29.6982L29.9889 59.1772Z" fill="#FEB3BC"/>
<path d="M30.0442 59.1948L30.0996 59.2126L29.8202 60.0934H29.7593L30.0442 59.1948Z" fill="#FEB4BB"/>
<path d="M30.0997 59.2129L30.155 59.2308L29.8814 60.0936H29.8203L30.0997 59.2129Z" fill="#FEB5BA"/>
<path d="M30.155 59.2305L30.2104 59.2483L29.9423 60.0933H29.8813L30.155 59.2305Z" fill="#FEB6B9"/>
<path d="M30.21 59.2485L30.2653 59.2663L30.0029 60.0936H29.9419L30.21 59.2485Z" fill="#FEB7B9"/>
<path d="M30.2653 59.2661L30.3206 59.284L30.064 60.0934H30.0029L30.2653 59.2661Z" fill="#FEB8B8"/>
<path d="M30.321 59.2842L30.3764 59.302L30.1254 60.0935H30.0645L30.321 59.2842Z" fill="#FEB9B7"/>
<path d="M30.376 59.3018L30.4314 59.3196L30.186 60.0933H30.125L30.376 59.3018Z" fill="#FEBAB7"/>
<path d="M30.4314 59.3198L30.4867 59.3377L30.247 60.0936H30.186L30.4314 59.3198Z" fill="#FEBBB6"/>
<path d="M30.4868 59.3379L30.5422 59.3557L30.3081 60.0937H30.2471L30.4868 59.3379Z" fill="#FEBCB5"/>
<path d="M30.5421 59.3555L30.5975 59.3734L30.3692 60.0935H30.3081L30.5421 59.3555Z" fill="#FEBDB4"/>
<path d="M30.5975 59.3735L30.6528 59.3913L30.4301 60.0937H30.3691L30.5975 59.3735Z" fill="#FEBEB4"/>
<path d="M30.6529 59.3911L30.7083 59.4089L30.4912 60.0934H30.4302L30.6529 59.3911Z" fill="#FEBFB3"/>
<path d="M30.7083 59.4092L30.7636 59.4271L30.5521 60.0937H30.4912L30.7083 59.4092Z" fill="#FEC0B2"/>
<path d="M30.7637 59.4268L30.8191 59.4446L30.6133 60.0934H30.5522L30.7637 59.4268Z" fill="#FEC1B1"/>
<path d="M30.8191 59.4448L30.8744 59.4626L30.6743 60.0936H30.6133L30.8191 59.4448Z" fill="#FEC2B1"/>
<path d="M30.8744 59.4624L30.9298 59.4803L30.7352 60.0934H30.6743L30.8744 59.4624Z" fill="#FEC3B0"/>
<path d="M30.9299 59.4805L30.9851 59.4983L30.7964 60.0936H30.7354L30.9299 59.4805Z" fill="#FEC4AF"/>
<path d="M30.9851 59.498L31.0405 59.5158L30.8573 60.0934H30.7964L30.9851 59.498Z" fill="#FEC5AE"/>
<path d="M31.0401 59.5161L31.0954 59.534L30.918 60.0936H30.8569L31.0401 59.5161Z" fill="#FEC6AE"/>
<path d="M31.0954 59.5342L31.1405 59.5486V59.5845L30.9789 60.0938H30.918L31.0954 59.5342Z" fill="#FFC8AD"/>
<path d="M31.1406 59.7764L31.04 60.0933H30.979L31.1406 59.584V59.7764Z" fill="#FFC9AC"/>
<path d="M31.1406 59.9692L31.1011 60.0937H31.04L31.1406 59.7769V59.9692Z" fill="#FFCAAC"/>
<path d="M31.1011 60.0933L31.1406 59.9688V60.0933H31.1011Z" fill="#FFCBAB"/>
<path d="M28.4383 61.942C30.0997 62.5425 29.6863 64.6551 30.9504 65.6608C29.9846 66.2345 28.9471 66.6754 27.8654 66.972C24.7119 67.2189 23.1165 65.3623 23.058 64.7044C23.0094 64.1717 22.8649 62.2382 24.1178 60.6859C25.0968 59.9213 26.3148 59.2634 27.762 59.1968L27.7695 59.3483C27.7695 59.3483 29.3164 60.2887 29.563 60.8719C29.8096 61.4552 28.1992 60.3863 26.9475 61.1957C25.6946 62.0063 26.6449 61.2933 28.4383 61.942Z" fill="#50C5FF"/>
<path d="M26.3306 56.7974C16.1714 61.0225 31.2862 57.7607 26.9956 58.9272C25.6169 59.3026 24.7102 59.9513 24.1174 60.6861C23.5795 61.1154 23.0734 61.5835 22.6029 62.0869C22.3669 62.3294 22.1001 62.5394 21.8096 62.7115C19.3884 61.7654 18.0047 59.9869 17.5825 58.8675C17.4256 58.4518 17.6983 58.0684 18.1816 58.1878C19.7608 58.5793 22.781 57.9099 24.6106 57.2727C25.1729 57.0763 25.7475 56.9176 26.3306 56.7974V56.7974Z" fill="#EF84D6"/>
<path d="M23.0579 64.7046C23.1164 65.3624 24.7118 67.219 27.8653 66.9721C23.0168 68.2845 18.9591 65.971 17.1781 64.6816C16.8194 64.4221 16.9962 63.8928 17.4508 63.8595C18.6614 63.7688 20.5072 63.5001 21.8099 62.7114C22.1005 62.5393 22.3672 62.3293 22.6033 62.0868C23.0737 61.5834 23.5799 61.1153 24.1177 60.686C22.8648 62.2383 23.0093 64.1718 23.0579 64.7046Z" fill="#4198EF"/>
<path d="M73.2534 89.841C70.7082 89.841 67.8872 89.4343 64.8124 88.6216C64.7111 88.5948 64.616 88.5482 64.5326 88.4844C64.4492 88.4206 64.3791 88.3409 64.3263 88.2497C64.2734 88.1586 64.2389 88.0579 64.2247 87.9533C64.2105 87.8487 64.2168 87.7424 64.2434 87.6403C64.2699 87.5382 64.3161 87.4424 64.3794 87.3583C64.4427 87.2742 64.5218 87.2035 64.6122 87.1502C64.7026 87.097 64.8025 87.0622 64.9062 87.0478C65.01 87.0335 65.1155 87.0399 65.2167 87.0666C77.2847 90.2569 82.526 86.3467 84.7977 82.505C85.1581 81.8956 85.5121 81.3414 85.8544 80.8052C87.154 78.7701 88.1806 77.1625 88.5906 74.1623C88.6194 73.9512 88.7303 73.7602 88.8988 73.6314C89.0673 73.5027 89.2796 73.4467 89.4891 73.4758C89.6986 73.5049 89.888 73.6166 90.0157 73.7865C90.1434 73.9564 90.1989 74.1705 90.1701 74.3816C89.712 77.7339 88.4895 79.6484 87.1951 81.6753C86.8601 82.2 86.5136 82.7425 86.1673 83.3282C84.5224 86.1097 82.0712 88.0316 78.8818 89.0406C77.1944 89.5743 75.3144 89.841 73.2534 89.841Z" fill="#34248F"/>
<path d="M41.1272 71.661C40.9557 71.6609 40.7889 71.605 40.6514 71.5018C40.5139 71.3985 40.4131 71.2534 40.3638 71.0878C39.6159 68.5725 39.0391 66.1338 40.1792 63.9493C41.3016 61.7985 43.9244 60.1906 48.6832 58.7359C52.8526 57.4615 58.1933 57.4443 64.5574 58.6848C69.9359 59.7333 74.504 61.3877 76.0051 61.9313C78.0891 62.686 78.4416 63.328 78.6862 64.0888C78.7953 64.4284 78.919 64.8135 81.0053 65.5612C82.0778 65.9457 83.13 66.2108 84.1475 66.4672C85.5332 66.8163 86.8421 67.1461 87.8884 67.723C88.0737 67.8254 88.2111 67.9977 88.2704 68.2022C88.3297 68.4066 88.3061 68.6264 88.2047 68.8133C88.1033 69.0002 87.9325 69.1389 87.7298 69.1989C87.527 69.2589 87.3089 69.2353 87.1235 69.1333C86.2568 68.6555 85.1001 68.3641 83.7609 68.0266C82.7556 67.7733 81.6163 67.4863 80.4712 67.0758C77.8525 66.1371 77.4384 65.4219 77.1693 64.5842C77.0672 64.2664 76.9791 63.9921 75.4661 63.4441C73.9935 62.9107 69.5125 61.2879 64.2548 60.2631C58.1477 59.0725 53.0644 59.0763 49.1458 60.2743C40.114 63.035 40.4752 65.864 41.8911 70.6263C41.9267 70.7463 41.9339 70.8731 41.9123 70.9964C41.8907 71.1198 41.8408 71.2364 41.7666 71.3369C41.6925 71.4373 41.596 71.519 41.485 71.5753C41.374 71.6315 41.2515 71.6609 41.1272 71.661V71.661Z" fill="#34248F"/>
<path d="M79.5012 105.771C79.4647 105.771 79.4286 105.771 79.3918 105.771C75.9363 105.752 70.7352 104.827 65.5816 100.523C65.501 100.455 65.4343 100.373 65.3854 100.279C65.3364 100.186 65.3062 100.084 65.2965 99.9789C65.2867 99.8739 65.2975 99.7679 65.3284 99.667C65.3592 99.5661 65.4095 99.4724 65.4763 99.3911C65.5431 99.3098 65.6251 99.2426 65.7176 99.1933C65.8102 99.144 65.9115 99.1135 66.0157 99.1037C66.12 99.0938 66.2251 99.1047 66.3252 99.1358C66.4252 99.1669 66.5182 99.2176 66.5988 99.2849C70.4245 102.48 74.7078 104.122 79.3297 104.163C80.9365 104.182 82.5389 103.99 84.0963 103.591C83.08 102.012 81.9227 98.5319 84.7581 92.3069C87.3185 86.6859 90.1704 84.0594 92.0575 82.3215C93.0191 81.4358 93.7138 80.7961 93.9913 80.1385C94.3888 79.1959 94.1986 77.8928 93.5179 76.8957C92.6705 75.6546 91.2119 75.0096 89.4098 75.0753C89.3998 75.0756 89.3898 75.0758 89.3798 75.0758C89.171 75.0756 88.9707 74.9928 88.8218 74.8453C88.6729 74.6977 88.5874 74.4972 88.5836 74.2867C88.5798 74.0763 88.6581 73.8727 88.8016 73.7198C88.945 73.5669 89.1423 73.4769 89.3509 73.469C90.7228 73.4177 93.2556 73.6768 94.8313 75.9844C95.8244 77.4391 96.0707 79.3165 95.4585 80.7675C95.0454 81.747 94.2014 82.5242 93.1329 83.5082C91.2336 85.2574 88.6325 87.6529 86.2071 92.9776C85.1897 95.2111 84.116 98.4401 84.7783 101.139C85.1607 102.698 85.9388 103.339 85.9717 103.365C86.0837 103.451 86.171 103.565 86.2246 103.696C86.2783 103.827 86.2962 103.97 86.2767 104.11C86.257 104.251 86.2006 104.384 86.1131 104.496C86.0257 104.608 85.9104 104.694 85.779 104.746C85.6744 104.788 83.198 105.771 79.5012 105.771Z" fill="#34248F"/>
<path d="M68.8232 106.413C68.6963 106.413 68.5713 106.382 68.4587 106.324C56.6382 100.183 46.9868 93.4771 40.548 86.9308C34.5163 80.7985 31.3281 74.8815 31.3281 69.8195C31.3281 67.7139 32.1261 66.0255 33.6357 64.9368C35.9112 63.296 39.2914 63.3689 40.9647 63.9445C41.1649 64.0133 41.3296 64.1595 41.4228 64.3508C41.516 64.5422 41.53 64.763 41.4617 64.9647C41.3934 65.1665 41.2484 65.3326 41.0586 65.4266C40.8688 65.5205 40.6498 65.5346 40.4497 65.4658C39.3149 65.0751 36.4234 64.9028 34.5633 66.2441C33.4746 67.0293 32.9226 68.2322 32.9226 69.8195C32.9226 74.4486 35.9509 79.9742 41.6802 85.799C48.0029 92.2272 57.5153 98.8305 69.189 104.895C69.3479 104.977 69.4747 105.111 69.549 105.275C69.6233 105.439 69.6407 105.624 69.5985 105.799C69.5563 105.974 69.4569 106.13 69.3163 106.241C69.1756 106.353 69.002 106.413 68.8232 106.413V106.413Z" fill="#34248F"/>
<path d="M72.6763 82.7516C72.2247 82.7516 71.7735 82.727 71.3245 82.6782C63.6068 81.8412 57.4531 79.7389 53.0344 76.4296C49.6706 73.9103 47.3738 70.4163 47.183 67.5282C47.0918 66.1483 47.4981 64.9729 48.3579 64.1292C48.433 64.0556 48.5216 63.9976 48.6189 63.9585C48.7161 63.9194 48.8201 63.9 48.9247 63.9014C49.0294 63.9029 49.1328 63.925 49.229 63.9667C49.3252 64.0084 49.4122 64.0688 49.4853 64.1444C49.5583 64.2201 49.6158 64.3094 49.6546 64.4075C49.6934 64.5055 49.7126 64.6103 49.7112 64.7158C49.7098 64.8214 49.6878 64.9256 49.6464 65.0226C49.6051 65.1195 49.5452 65.2073 49.4701 65.2809C48.9481 65.7932 48.7139 66.5134 48.7739 67.4215C48.9325 69.8221 51.0267 72.9236 53.9852 75.1393C58.1726 78.2753 64.0638 80.274 71.4951 81.08C74.7723 81.4363 77.8587 80.3027 79.7489 78.0497C81.3135 76.1846 81.8533 73.8313 81.2295 71.5929C81.201 71.4913 81.1927 71.385 81.2051 71.2801C81.2174 71.1752 81.2501 71.0738 81.3014 70.9817C81.3526 70.8896 81.4214 70.8086 81.5037 70.7432C81.586 70.6779 81.6803 70.6296 81.7811 70.601C81.882 70.5724 81.9874 70.5642 82.0915 70.5767C82.1955 70.5893 82.296 70.6224 82.3874 70.6741C82.4787 70.7258 82.559 70.7952 82.6237 70.8783C82.6884 70.9613 82.7363 71.0564 82.7645 71.1581C83.5337 73.9185 82.8783 76.8087 80.9663 79.0878C79.0004 81.4309 75.9702 82.7515 72.6763 82.7516Z" fill="#34248F"/>
<path d="M32.3945 68.7718C32.252 68.772 32.112 68.7336 31.9892 68.6606C31.8663 68.5877 31.7652 68.4828 31.6962 68.3571C30.9692 67.0324 29.8575 64.5027 30.5814 62.4431C31.0227 61.1875 31.772 60.377 32.8086 60.0342C34.9186 59.3365 37.3702 60.9894 37.4736 61.0602C37.5602 61.1194 37.6344 61.1953 37.6919 61.2835C37.7495 61.3717 37.7892 61.4705 37.8089 61.5741C37.8285 61.6778 37.8278 61.7844 37.8066 61.8877C37.7854 61.9911 37.7442 62.0892 37.6854 62.1766C37.6266 62.2639 37.5514 62.3387 37.4639 62.3967C37.3764 62.4547 37.2785 62.4948 37.1756 62.5146C37.0728 62.5344 36.9671 62.5337 36.8646 62.5123C36.762 62.491 36.6647 62.4495 36.578 62.3902C36.0516 62.0331 34.4341 61.1858 33.3025 61.5626C32.7537 61.7452 32.3552 62.2089 32.0843 62.9799C31.5497 64.5008 32.6105 66.7028 33.0914 67.5789C33.1585 67.7012 33.1928 67.8391 33.1909 67.9788C33.189 68.1186 33.151 68.2554 33.0807 68.3759C33.0103 68.4963 32.91 68.5962 32.7897 68.6656C32.6694 68.735 32.5332 68.7716 32.3945 68.7718V68.7718Z" fill="#34248F"/>
<path d="M32.3943 68.7719C32.2409 68.7719 32.0908 68.7274 31.9619 68.6437C31.833 68.5599 31.7308 68.4404 31.6676 68.2996C30.6554 66.0477 31.7025 63.5588 34.3353 61.9589C35.6445 61.1633 37.1347 60.7367 38.5288 60.7645C40.1449 60.7938 41.5246 61.4467 42.4138 62.6029C42.5434 62.7714 42.6013 62.9848 42.5747 63.1963C42.5482 63.4078 42.4394 63.6 42.2723 63.7306C42.1895 63.7952 42.095 63.8428 41.994 63.8707C41.893 63.8985 41.7875 63.906 41.6837 63.8927C41.4739 63.866 41.2833 63.7563 41.1537 63.5878C39.8275 61.8633 37.075 62.1707 35.1584 63.3355C33.7194 64.21 32.322 65.8611 33.1199 67.6362C33.1748 67.7586 33.1985 67.8929 33.1887 68.0269C33.1789 68.1609 33.1359 68.2902 33.0638 68.4032C32.9916 68.5161 32.8925 68.609 32.7756 68.6734C32.6586 68.7378 32.5275 68.7717 32.3943 68.7719Z" fill="#34248F"/>
<path d="M24.9502 68.1697C21.1904 68.1699 18.1773 66.3955 16.7126 65.3346C16.5043 65.188 16.3464 64.9796 16.2609 64.7385C16.1753 64.4973 16.1664 64.2353 16.2353 63.9888C16.3082 63.7318 16.4587 63.5042 16.6658 63.3373C16.873 63.1705 17.1264 63.0728 17.3911 63.0578C19.5671 62.8949 21.2572 62.3381 22.0279 61.5301C23.3572 60.1369 27.4024 55.8965 33.0289 60.4186C33.1942 60.5515 33.3004 60.7452 33.3241 60.957C33.3478 61.1688 33.2871 61.3815 33.1553 61.5481C33.0235 61.7148 32.8314 61.8219 32.6213 61.8458C32.4112 61.8697 32.2002 61.8084 32.0349 61.6756C28.0779 58.4953 25.3368 60.3806 23.1771 62.6444C22.0433 63.8328 20.1184 64.3493 18.4417 64.5662C20.8632 66.077 25.6607 68.0649 30.9336 64.7312C31.0223 64.675 31.1211 64.6369 31.2244 64.6192C31.3277 64.6016 31.4334 64.6046 31.5355 64.6281C31.6376 64.6516 31.7341 64.6952 31.8195 64.7564C31.9049 64.8175 31.9775 64.8951 32.0332 64.9845C32.0889 65.074 32.1265 65.1736 32.1439 65.2778C32.1614 65.3819 32.1583 65.4885 32.1348 65.5914C32.1114 65.6943 32.068 65.7916 32.0073 65.8776C31.9465 65.9636 31.8696 66.0368 31.7808 66.0928C29.3654 67.6201 27.042 68.1695 24.9502 68.1697Z" fill="#34248F"/>
<path d="M21.8094 63.5155C21.7109 63.5154 21.6132 63.497 21.5215 63.461C18.8729 62.4263 17.343 60.494 16.8376 59.1536C16.7462 58.9271 16.7181 58.6797 16.7564 58.4382C16.7946 58.1967 16.8978 57.9704 17.0547 57.7839C17.2181 57.6043 17.4279 57.474 17.6606 57.4076C17.8933 57.3411 18.1397 57.3413 18.3723 57.4079C19.6668 57.7288 22.4183 57.1865 24.3503 56.5133C28.5648 55.0455 33.8026 55.3342 35.864 60.5479C35.9423 60.7459 35.9394 60.9671 35.8558 61.163C35.7723 61.3588 35.615 61.5131 35.4186 61.592C35.2222 61.671 35.0028 61.668 34.8085 61.5838C34.6143 61.4996 34.4612 61.341 34.3829 61.143C32.3115 55.9042 26.5788 57.4378 24.8711 58.0326C23.7503 58.417 22.6007 58.7102 21.4334 58.9093C20.287 59.1016 19.3258 59.1551 18.5653 59.0692C19.066 59.9318 20.1913 61.2175 22.0976 61.9621C22.271 62.0299 22.4155 62.1567 22.506 62.3206C22.5965 62.4844 22.6273 62.6751 22.5931 62.8594C22.5589 63.0438 22.4618 63.2102 22.3187 63.3301C22.1756 63.4499 21.9954 63.5155 21.8094 63.5155V63.5155Z" fill="#34248F"/>
<path d="M48.2022 69.5452C48.0621 69.545 47.9246 69.5076 47.8034 69.4368C47.6822 69.366 47.5816 69.2643 47.5118 69.1419C47.442 69.0194 47.4054 68.8806 47.4058 68.7394C47.4061 68.5982 47.4433 68.4596 47.5137 68.3375C49.1736 65.4587 54.0374 65.012 55.6092 65.0835C55.8204 65.093 56.0192 65.1867 56.1619 65.344C56.3046 65.5013 56.3795 65.7093 56.3701 65.9223C56.3607 66.1352 56.2677 66.3357 56.1117 66.4795C55.9557 66.6234 55.7493 66.6989 55.5381 66.6894C54.3049 66.6651 53.0755 66.8343 51.8939 67.1909C50.8563 67.5071 49.4933 68.1028 48.8921 69.1452C48.822 69.267 48.7213 69.368 48.6002 69.4382C48.4791 69.5084 48.3419 69.5453 48.2022 69.5452V69.5452Z" fill="#34248F"/>
<path d="M75.7678 77.5033C76.5819 77.6215 77.8487 77.9499 79.2728 78.4941C78.2222 79.578 76.9058 80.3624 75.4573 80.7675C74.0394 79.4724 74.1347 77.7513 75.7109 77.501C75.7295 77.501 75.748 77.5021 75.7666 77.5033C75.7666 77.5033 75.7666 77.5021 75.7678 77.5033Z" fill="white"/>
<path d="M71.5426 80.3699C71.1789 78.9129 72.9134 77.4341 75.7108 77.5007C74.1346 77.751 74.0393 79.4721 75.4571 80.7672C74.3093 81.0923 73.1135 81.2101 71.9249 81.1151H71.9237C71.9224 81.1139 71.9224 81.1139 71.9224 81.1128C71.9051 81.0921 71.889 81.0703 71.8729 81.0485C71.863 81.0359 71.8531 81.0221 71.8445 81.0095C71.8296 80.9888 71.8148 80.9681 71.8012 80.9463C71.7193 80.8236 71.6517 80.6919 71.5995 80.5536C71.5896 80.5295 71.5822 80.5054 71.5748 80.4825L71.5599 80.4342C71.5537 80.4136 71.5476 80.3918 71.5426 80.3699Z" fill="#EDEDE4"/>
<path d="M69.1286 71.6259V71.6419C69.1096 72.1665 68.9828 72.6814 68.7562 73.1541C68.3615 74.0025 67.8036 74.5617 67.0625 74.8935C66.4785 75.1553 65.7795 75.2758 64.958 75.2839C66.1754 74.7282 66.9895 72.5191 66.773 71.681C66.5181 70.689 64.1761 70.1597 65.7387 69.7245C66.1965 69.5998 66.5925 69.3091 66.8509 68.9082C67.5116 68.992 67.9731 69.0219 67.9731 69.0219C67.9731 69.0219 69.1101 70.0288 69.1286 71.6259Z" fill="#FFFFCC"/>
<path d="M68.2862 76.914C68.3001 77.0447 68.3034 77.1764 68.2961 77.3078C68.2948 77.3376 68.2923 77.3686 68.2899 77.3996C68.2466 77.968 68.0993 78.7326 67.6292 79.3595C67.6263 79.3647 67.6225 79.3693 67.6181 79.3733C67.3199 79.7223 66.8832 80.0277 66.2423 80.2401C65.8613 80.1598 65.4856 80.0752 65.1153 79.9864C65.5804 79.5777 65.8204 78.9588 66.1582 78.1528C66.8547 76.4845 62.6495 75.2101 64.2443 75.4018C64.3537 75.4153 64.4644 75.4137 64.5734 75.3972C65.5953 75.426 66.4415 75.3042 67.1269 74.9805C67.3717 75.163 67.5877 75.3817 67.7678 75.6292C67.7789 75.6452 67.7913 75.6613 67.8024 75.6774C68.0629 76.0428 68.2291 76.4677 68.2862 76.914V76.914Z" fill="#FFFFCC"/>
<path d="M66.7731 71.6807C66.9897 72.5189 66.1756 74.7279 64.9582 75.2836C64.9582 75.2836 64.9582 75.2848 64.9569 75.2836C63.7259 75.2974 62.2178 75.0609 60.4016 74.6751C59.7194 74.5371 59.0645 74.2869 58.4629 73.9346C57.1267 72.1538 57.7342 70.2088 58.9516 69.7932C60.2172 69.3603 63.0356 71.086 61.4086 69.1468C60.9403 68.5729 60.6537 67.8706 60.5859 67.1306C61.0223 67.1038 61.4602 67.1484 61.8825 67.2627C62.1237 67.3855 62.4454 67.5589 62.8129 67.7437C63.2397 68.0595 63.888 68.3017 64.5833 68.4854C64.5877 68.4871 64.5923 68.4883 64.5969 68.4889C64.8441 68.5668 65.0968 68.6256 65.3528 68.6645C65.8886 68.7736 66.4131 68.8528 66.8511 68.908C66.5927 69.3089 66.1967 69.5995 65.7389 69.7243C64.1763 70.1594 66.5183 70.6887 66.7731 71.6807Z" fill="white"/>
<path d="M64.2445 75.4017C62.6498 75.21 66.855 76.4844 66.1585 78.1527C65.8207 78.9587 65.5807 79.5775 65.1155 79.9863C62.0485 79.248 59.351 78.2419 57.0229 76.9678C57.0675 76.4316 57.4906 76.0608 58.0375 75.7967C59.245 75.2146 60.1828 75.9827 58.6313 74.1479C59.1872 74.4484 59.7837 74.6654 60.4018 74.7921C62.0336 75.1388 63.4156 75.365 64.5736 75.3971C64.4646 75.4136 64.3539 75.4151 64.2445 75.4017V75.4017Z" fill="white"/>
<path d="M61.4085 69.1465C63.0354 71.0858 60.2171 69.3601 58.9514 69.7929C57.734 70.2086 57.1266 72.1536 58.4627 73.9344C58.0264 73.6794 57.633 73.3562 57.2973 72.9768C56.7395 72.3665 56.4165 71.5753 56.3867 70.7459C56.4127 69.4347 57.2886 68.135 59.1593 67.3772C59.6232 67.2372 60.1021 67.1543 60.5858 67.1304C60.6536 67.8703 60.9402 68.5727 61.4085 69.1465V69.1465Z" fill="#EDEDE4"/>
<path d="M58.631 74.148C60.1825 75.9827 59.2447 75.2146 58.0372 75.7967C57.4903 76.0608 57.0672 76.4316 57.0227 76.9678C56.7393 76.814 56.461 76.6555 56.19 76.4913C56.0136 76.1599 55.9334 75.7851 55.9587 75.4098C55.9599 75.4086 55.9599 75.4086 55.9599 75.4075C56.1457 74.6687 56.4847 73.978 56.9546 73.381C56.9568 73.3767 56.9597 73.3728 56.9633 73.3695C57.0561 73.2616 57.1526 73.1525 57.2553 73.0435C57.6425 73.4939 58.1089 73.8683 58.631 74.148V74.148Z" fill="#EDEDE4"/>
<path d="M64.8069 76.0865C63.4125 76.0865 61.8483 75.8034 60.2381 75.4616C57.608 74.9036 55.7887 73.1633 55.6032 71.0284C55.4354 69.0969 56.6537 67.4096 58.8622 66.5147C58.8964 66.5008 58.9316 66.4893 58.9675 66.4804C59.3184 66.3926 61.1225 65.9816 62.1791 66.5135C62.2874 66.568 62.4142 66.6342 62.5558 66.7085C63.4131 67.1575 65.0095 67.9919 65.9676 67.8882C67.3416 67.7375 67.6752 67.7805 68.3478 68.193L68.3873 68.2172C68.4273 68.2416 68.4651 68.2696 68.5003 68.3007C69.3307 69.0372 70.604 71.0703 69.4781 73.495C68.5629 75.4657 66.8712 76.0865 64.8069 76.0865ZM59.4043 68.0277C57.9157 68.6476 57.0896 69.7137 57.1916 70.8881C57.3312 72.4958 58.9872 73.5536 60.5665 73.8887C65.3681 74.9076 67.1828 74.6465 68.034 72.8135C68.8499 71.0564 67.7324 69.7939 67.4869 69.5465C67.2204 69.3842 67.1595 69.3746 66.1397 69.4862C64.7015 69.6436 62.8981 68.6991 61.8208 68.1349C61.6876 68.0652 61.5687 68.0028 61.467 67.9516C61.099 67.7662 60.0538 67.8747 59.4043 68.0277Z" fill="#34248F"/>
<path d="M64.0668 81.3546C63.8562 81.3545 63.6543 81.2704 63.505 81.1207C63.3558 80.971 63.2713 80.7679 63.27 80.5557C63.2688 80.3434 63.3509 80.1393 63.4984 79.9879C63.6459 79.8364 63.8468 79.7499 64.0573 79.7473C67.3564 79.7069 67.4396 78.293 67.5005 77.2607C67.5586 76.272 66.6036 75.5502 66.5939 75.543C66.4241 75.4176 66.3103 75.2295 66.2775 75.0199C66.2447 74.8103 66.2954 74.596 66.4187 74.424C66.542 74.2519 66.7277 74.136 66.9354 74.1015C67.1432 74.067 67.356 74.1168 67.5275 74.2399C67.5959 74.2894 69.2028 75.4744 69.092 77.3559C69.0286 78.4335 68.8602 81.296 64.0767 81.3545C64.0733 81.3546 64.0701 81.3546 64.0668 81.3546Z" fill="#34248F"/>
<path d="M56.0185 78.1463C55.8546 78.1463 55.6947 78.0953 55.5605 78.0004C55.4263 77.9054 55.3245 77.7711 55.2687 77.6157C54.6159 75.7963 55.5263 73.698 56.7182 72.4257C56.8633 72.2708 57.0636 72.1803 57.2749 72.1742C57.4863 72.1681 57.6914 72.2468 57.8451 72.3932C57.9988 72.5395 58.0886 72.7414 58.0947 72.9545C58.1007 73.1675 58.0226 73.3743 57.8774 73.5293C56.8645 74.6106 56.4084 76.0662 56.7681 77.069C56.8116 77.1904 56.8254 77.3205 56.8085 77.4485C56.7916 77.5764 56.7444 77.6983 56.6709 77.804C56.5973 77.9096 56.4997 77.9959 56.3861 78.0555C56.2726 78.115 56.1465 78.1462 56.0185 78.1463H56.0185Z" fill="#34248F"/>
<path d="M72.9486 82.7548C72.8118 82.7549 72.6773 82.7192 72.5581 82.6512C71.0285 81.7827 70.3834 80.4882 70.8324 79.1885C71.4695 77.3448 74.0469 76.3445 76.961 76.8113C78.2634 77.0197 79.523 77.2688 80.7048 77.5515C80.9105 77.6008 81.0884 77.7303 81.1993 77.9118C81.3103 78.0932 81.3452 78.3117 81.2964 78.519C81.2475 78.7264 81.119 78.9058 80.939 79.0176C80.759 79.1295 80.5424 79.1646 80.3366 79.1154C79.1937 78.8421 77.9739 78.6009 76.711 78.3987C74.1507 77.9894 72.6125 78.9231 72.3382 79.7173C72.0868 80.4449 72.9555 81.0321 73.3407 81.2508C73.4942 81.3381 73.6148 81.4742 73.6835 81.6378C73.7522 81.8015 73.7652 81.9835 73.7204 82.1553C73.6756 82.3272 73.5755 82.4793 73.4359 82.5878C73.2963 82.6962 73.1249 82.755 72.9486 82.7548V82.7548Z" fill="#34248F"/>
</g>
<g clip-path="url(#clip2_1158_58544)">
<path d="M156.446 116.009H153.093C153.706 115.039 154.311 113.847 154.316 112.92C154.336 107.742 149.448 106.433 151.12 96.6244C152.069 91.0557 144.137 80.778 137.648 79.2814C134.327 78.514 130.243 79.9194 130.077 77.0848C130.076 77.0677 130.076 77.0505 130.073 77.0333C131.256 75.9608 131.506 75.0032 131.309 74.2437C137.21 76.3716 141.233 78.2247 144.898 81.5322C144.898 81.5322 147.431 83.6614 148.781 85.7352C155.063 93.6947 156.446 116.009 156.446 116.009Z" fill="#FFFFCC"/>
<path d="M122.823 68.0752C122.034 66.5166 116.8 63.7018 109.691 62.1802C105.309 61.2424 103.193 61.6941 102.17 62.344L102.185 62.3625C100.506 63.4046 102.703 67.6301 108.874 69.6391C114.532 71.4791 121.963 70.322 122.823 68.0752ZM130.073 77.0333C130.076 77.0505 130.076 77.0677 130.077 77.0849C130.243 79.9194 134.327 78.514 137.648 79.2815C144.137 80.778 152.069 91.0557 151.12 96.6244C149.448 106.433 154.336 107.742 154.316 112.92C154.311 113.847 153.706 115.039 153.093 116.009H144.73C144.73 116.009 144.73 104.468 144.164 98.5542C143.535 96.5478 143.443 94.2059 141.421 92.8573C139.261 91.4149 143.026 99.3626 142.417 101.699C141.808 104.037 140.626 107.075 142.011 109.313C142.923 110.785 142.619 113.991 142.304 116.009H83.5352C83.7854 114.036 80.7467 110.644 80.4392 106.971C79.9668 101.302 82.4919 102.42 83.572 101.152C84.6521 99.8843 84.0694 95.26 81.2456 94.663C78.4203 94.0673 78.0039 97.8713 76.7987 101.152L76.6957 101.146C76.8004 99.8563 76.8235 98.5614 76.7649 97.269L76.6751 97.2743C75.6215 98.6665 74.7357 96.9758 73.7939 98.0695C72.8521 99.1645 74.0705 104.385 72.9081 106.623C71.7441 108.861 66.925 112.291 68.9748 113.187C70.2579 113.747 69.7385 115.086 69.1705 116.009H53.7551C49.7055 111.361 53.6329 109.045 56.8982 105.181C60.5534 100.854 58.0607 97.8713 60.5534 93.5442C62.9872 89.32 70.4639 73.2147 82.0107 71.0736C82.2888 71.0221 82.5684 70.9789 82.8495 70.9441C82.8495 70.9441 90.6352 70.7949 87.726 72.9585C84.8375 75.1075 94.7348 80.9669 101.51 80.1123C101.554 80.107 101.596 80.1017 101.64 80.0951C101.64 80.0951 93.7091 72.6203 94.1241 70.5518C94.5405 68.482 96.7007 68.3513 96.867 66.366C97.0332 64.3821 92.888 59.1726 106.043 57.2256C109.447 57.0393 112.848 57.6501 115.979 59.0101C120.125 60.821 123.282 62.0124 125.379 63.1642C127.389 66.1018 125.73 69.6299 122.599 70.9692C119.109 72.4605 123.636 72.4526 125.848 70.5518C127.412 69.2085 125.811 73.6044 126.144 74.6492C126.475 75.6861 129.87 74.2674 130.073 77.0333V77.0333ZM149.355 114.331C150.741 111.347 148.706 112.739 148.781 111.546C148.858 110.352 150.147 109.557 148.781 108.611C146.615 107.112 147.971 117.314 149.355 114.331V114.331ZM140.935 100.804C141.34 98.6731 138.665 101.744 139.192 103.091C139.718 104.439 140.529 102.151 140.935 100.804ZM131.65 80.9695C132.864 82.1979 135.697 83.1067 134.634 81.4715C133.495 79.7187 130.436 79.7411 131.65 80.9695V80.9695ZM85.3775 101.8C86.0367 101.352 86.6018 98.8158 85.3775 99.8104C84.4152 100.592 84.7183 102.247 85.3775 101.8ZM84.0797 113.237C85.9264 114.678 85.482 111.74 84.7065 110.225C83.931 108.712 84.9478 107.94 84.0797 107.232C82.6582 106.897 82.2329 111.795 84.0797 113.237Z" fill="#7273C5"/>
<path d="M144.731 116.009H142.304C142.619 113.991 142.924 110.785 142.011 109.313C140.627 107.075 141.808 104.037 142.417 101.699C143.027 99.3626 139.261 91.4149 141.421 92.8573C143.443 94.2059 143.536 96.5478 144.164 98.5542C144.731 104.468 144.731 116.009 144.731 116.009Z" fill="#FFFFCC"/>
<path d="M139.192 103.092C138.665 101.744 141.34 98.6733 140.935 100.804C140.529 102.151 139.718 104.439 139.192 103.092Z" fill="#FFFFCC"/>
<path d="M134.635 81.4714C135.697 83.1066 132.865 82.1979 131.651 80.9695C130.437 79.7411 133.496 79.7186 134.635 81.4714Z" fill="#FFFFCC"/>
<path d="M131.309 74.244C131.506 75.0035 131.256 75.9611 130.073 77.0337C129.87 74.2678 126.475 75.6864 126.144 74.6495C125.811 73.6047 127.412 69.2088 125.848 70.5522C123.636 72.4529 119.109 72.4608 122.599 70.9696C125.73 69.6302 127.389 66.1022 125.379 63.1646C127.946 64.5726 128.926 65.9186 128.194 68.2591C126.865 72.511 127.347 72.2297 129.191 72.4357C129.9 72.515 131.035 73.1899 131.309 74.244Z" fill="#FFFFCC"/>
<path d="M102.185 62.3627L102.17 62.3442C103.193 61.6943 105.309 61.2426 109.691 62.1804C116.8 63.702 122.034 66.5168 122.823 68.0754C121.963 70.3222 114.532 71.4793 108.875 69.6393C102.703 67.6303 100.506 63.4048 102.185 62.3627Z" fill="#6A599F"/>
<path d="M101.641 80.0951C101.597 80.1017 101.554 80.107 101.51 80.1122C95.1735 76.8906 91.1019 72.7022 90.5177 69.8134C90.1793 68.1478 91.0004 66.9141 93.2106 66.543C95.253 66.2009 91.383 63.6344 94.4569 61.0984C96.3919 59.5014 100.767 57.4911 106.043 57.2256C92.8883 59.1725 97.0335 64.382 96.8672 66.366C96.7009 68.3512 94.5408 68.482 94.1244 70.5518C93.7094 72.6203 101.641 80.0951 101.641 80.0951Z" fill="#6A599F"/>
<path d="M101.509 80.1123C94.7347 80.9669 84.8374 75.1075 87.7259 72.9585C90.6351 70.7949 82.8494 70.9441 82.8494 70.9441C82.5684 70.9785 82.2888 71.0216 82.0107 71.0736L81.9209 70.6971C84.7328 70.1677 87.5837 69.8761 90.4438 69.8254L90.5174 69.8135C91.1016 72.7022 95.1732 76.8907 101.509 80.1123Z" fill="#6A599F"/>
<path d="M85.3775 99.8103C86.6017 98.8157 86.0367 101.352 85.3775 101.8C84.7182 102.247 84.4151 100.592 85.3775 99.8103Z" fill="#6A599F"/>
<path d="M81.2456 94.6632C84.0694 95.2602 84.6521 99.8846 83.572 101.153C82.4919 102.421 79.9668 101.302 80.4392 106.971C80.7467 110.644 83.7854 114.036 83.5352 116.01H74.5562C74.5562 116.01 76.2513 107.444 76.6957 101.146L76.7987 101.153C78.0039 97.8716 78.4203 94.0675 81.2456 94.6632Z" fill="#6A599F"/>
<path d="M81.9211 70.6973L82.0109 71.0737C70.4641 73.2148 62.9874 89.3202 60.5535 93.5443C58.0608 97.8715 60.5535 100.854 56.8984 105.181C53.6331 109.045 49.7057 111.361 53.7552 116.01H44.5996C54.2394 89.9648 68.4202 77.1946 71.8546 74.5991C74.5872 72.5333 78.4337 71.3617 81.9211 70.6973Z" fill="#6A599F"/>
<path d="M76.7648 97.269C76.8235 98.5615 76.8004 99.8563 76.6957 101.146C76.2513 107.444 74.5561 116.01 74.5561 116.01H69.1705C69.7385 115.086 70.2579 113.747 68.9748 113.187C66.925 112.291 71.7441 108.861 72.9081 106.623C74.0705 104.385 72.8521 99.1645 73.7939 98.0695C74.7357 96.9758 75.6215 98.6665 76.6751 97.2743L76.7648 97.269Z" fill="#FFFFCC"/>
<path d="M127.39 113.484C127.117 113.487 126.846 113.434 126.594 113.329C126.341 113.223 126.113 113.068 125.921 112.872C114.26 100.657 108.164 96.6309 104.156 94.4883C103.219 93.9875 102.898 92.8783 103.439 92.0108C103.979 91.1434 105.177 90.8458 106.114 91.3469C114.188 95.6626 122.142 103.435 128.857 110.47C129.026 110.642 129.157 110.849 129.241 111.076C129.325 111.303 129.36 111.546 129.344 111.788C129.328 112.03 129.261 112.266 129.147 112.48C129.034 112.694 128.877 112.881 128.686 113.03C128.318 113.327 127.861 113.487 127.39 113.484V113.484Z" fill="#FFC2DF"/>
<path d="M102.3 113.484C101.97 113.489 101.645 113.412 101.352 113.259C101.059 113.106 100.808 112.883 100.622 112.609C100.062 111.752 100.359 110.637 101.285 110.118C102.845 109.245 116.791 101.315 125.936 91.9528C126.302 91.5932 126.785 91.3814 127.295 91.3577C127.805 91.334 128.306 91.5 128.703 91.8242C128.892 91.9746 129.047 92.1638 129.157 92.3792C129.268 92.5946 129.332 92.8313 129.345 93.0735C129.358 93.3157 129.32 93.558 129.234 93.7842C129.147 94.0105 129.013 94.2156 128.842 94.3859C119.321 104.132 104.922 112.321 103.312 113.222C103.002 113.395 102.654 113.485 102.3 113.484Z" fill="#FFC2DF"/>
<path d="M102.434 81.3698C102.316 81.3698 102.2 81.3434 102.094 81.2925C94.5184 77.68 89.1815 72.2404 89.6796 68.6394C89.801 67.7624 90.394 66.2323 92.9925 65.7655C92.9532 65.6376 92.8971 65.4825 92.8508 65.3546C92.464 64.2863 91.7439 62.2978 93.9526 60.4759C97.046 57.9243 106.578 54.0281 116.296 58.272C117.673 58.873 118.961 59.4148 120.098 59.8929C123.448 61.3016 125.869 62.3194 127.372 63.493C129.099 64.8409 129.602 66.4319 128.955 68.5002C128.44 70.1456 128.198 71.1556 128.235 71.5074C128.455 71.5513 128.679 71.5815 128.903 71.5978C129.022 71.6095 129.147 71.6219 129.28 71.6368C130.367 71.7589 131.75 72.7202 132.086 74.0601C132.342 75.0778 132.126 76.6554 129.646 78.3916C129.56 78.4518 129.463 78.4944 129.361 78.5168C129.259 78.5393 129.153 78.5412 129.05 78.5225C128.947 78.5037 128.849 78.4647 128.761 78.4077C128.673 78.3507 128.597 78.2767 128.537 78.19C128.477 78.1033 128.435 78.0056 128.413 77.9025C128.39 77.7994 128.388 77.6928 128.407 77.589C128.426 77.4851 128.464 77.386 128.521 77.2972C128.577 77.2084 128.651 77.1317 128.737 77.0715C130.087 76.1264 130.727 75.1971 130.541 74.4548C130.361 73.7393 129.509 73.2799 129.103 73.2344C128.978 73.2203 128.86 73.2086 128.747 73.1976C128.008 73.1245 127.309 73.0555 126.901 72.4326C126.414 71.689 126.617 70.629 127.434 68.0169C128.307 65.2267 126.362 64.2687 119.484 61.3764C118.343 60.8964 117.049 60.3523 115.662 59.7469C110.754 57.6034 106.098 57.8219 103.056 58.3828C99.208 59.0923 96.2911 60.6239 94.9623 61.72C93.63 62.8189 93.979 63.7829 94.3485 64.8035C94.5725 65.4221 94.8041 66.0617 94.4634 66.6506C94.252 67.016 93.8746 67.2466 93.3418 67.3359C92.0702 67.5489 91.3694 68.0622 91.2588 68.8614C91.0926 70.0626 92.1066 71.9175 93.9712 73.8235C96.1204 76.0203 99.2472 78.1568 102.776 79.8393C102.939 79.9175 103.072 80.0495 103.151 80.2136C103.231 80.3777 103.252 80.5642 103.212 80.7423C103.173 80.9205 103.074 81.0797 102.932 81.1938C102.791 81.3078 102.615 81.3699 102.434 81.3698H102.434Z" fill="#34248F"/>
<path d="M44.5994 116.813C44.5042 116.813 44.4099 116.796 44.3208 116.763C44.1227 116.688 43.9621 116.537 43.8743 116.343C43.7865 116.149 43.7786 115.928 43.8525 115.729C47.9907 104.547 53.3974 94.5519 59.9226 86.0201C65.7995 78.336 70.4951 74.6223 71.3768 73.9558C74.1019 71.8959 78.146 70.4396 83.3968 69.6275C85.7291 69.2619 88.0838 69.0594 90.4439 69.0215C90.6553 69.0215 90.8581 69.1061 91.0076 69.2568C91.1572 69.4075 91.2412 69.612 91.2412 69.8251C91.2412 70.0383 91.1573 70.2427 91.0078 70.3934C90.8583 70.5442 90.6555 70.6289 90.4441 70.6289C90.3239 70.6289 78.3597 70.6865 72.3332 75.2419C71.4806 75.8864 66.936 79.4824 61.1853 87.0017C54.7577 95.4058 49.4287 105.26 45.3464 116.291C45.2896 116.444 45.1876 116.576 45.0541 116.67C44.9206 116.763 44.7619 116.813 44.5994 116.813V116.813Z" fill="#34248F"/>
<path d="M156.446 116.813C156.244 116.813 156.049 116.735 155.901 116.595C155.753 116.455 155.664 116.263 155.651 116.06C155.638 115.839 154.211 93.9058 148.158 86.2357C148.027 86.069 147.966 85.8563 147.99 85.6445C148.014 85.4327 148.12 85.2392 148.286 85.1064C148.451 84.9737 148.662 84.9127 148.872 84.9368C149.082 84.9609 149.274 85.0681 149.406 85.2349C152.095 88.6427 154.232 94.8619 155.756 103.72C156.881 110.261 157.239 115.903 157.243 115.959C157.256 116.172 157.185 116.381 157.045 116.541C156.905 116.701 156.708 116.798 156.497 116.812C156.48 116.813 156.463 116.813 156.446 116.813Z" fill="#34248F"/>
<path d="M144.899 82.3355C144.702 82.3357 144.513 82.2628 144.367 82.1308C140.773 78.8893 136.759 77.062 131.041 75.001C130.842 74.9293 130.679 74.7807 130.589 74.588C130.498 74.3954 130.488 74.1743 130.559 73.9736C130.63 73.7729 130.777 73.6089 130.968 73.5177C131.16 73.4265 131.379 73.4156 131.578 73.4873C137.482 75.6154 141.641 77.5159 145.43 80.9327C145.551 81.0412 145.636 81.184 145.674 81.3422C145.712 81.5004 145.701 81.6666 145.644 81.8187C145.586 81.9707 145.484 82.1016 145.351 82.1939C145.218 82.2861 145.06 82.3355 144.899 82.3355H144.899Z" fill="#34248F"/>
<path d="M74.5567 116.813C74.4388 116.813 74.3223 116.787 74.2156 116.736C74.109 116.685 74.0148 116.611 73.94 116.519C73.8651 116.427 73.8114 116.32 73.7828 116.204C73.7541 116.089 73.7511 115.969 73.7741 115.852C73.8025 115.709 76.6054 101.446 75.886 96.4955C75.8556 96.2847 75.9095 96.0704 76.0358 95.8996C76.162 95.7288 76.3504 95.6155 76.5594 95.5847C76.7685 95.5538 76.9811 95.6078 77.1507 95.7349C77.3202 95.862 77.4328 96.0517 77.4637 96.2625C78.2228 101.487 75.4559 115.57 75.3377 116.167C75.3016 116.349 75.2041 116.513 75.0617 116.631C74.9194 116.748 74.7409 116.813 74.5567 116.813Z" fill="#34248F"/>
<path d="M144.73 116.813C144.626 116.813 144.522 116.793 144.425 116.752C144.329 116.712 144.241 116.653 144.167 116.578C144.093 116.503 144.034 116.415 143.994 116.317C143.954 116.22 143.933 116.115 143.933 116.01C143.933 115.859 143.923 100.88 143.095 96.5307C143.075 96.4269 143.076 96.3201 143.097 96.2164C143.117 96.1128 143.158 96.0143 143.217 95.9266C143.276 95.8389 143.351 95.7638 143.439 95.7056C143.526 95.6473 143.624 95.6071 143.728 95.5872C143.831 95.5672 143.936 95.568 144.039 95.5894C144.142 95.6108 144.24 95.6525 144.326 95.712C144.413 95.7715 144.487 95.8477 144.545 95.9362C144.602 96.0247 144.642 96.1238 144.661 96.2277C145.518 100.726 145.528 115.388 145.528 116.01C145.528 116.115 145.507 116.22 145.467 116.317C145.427 116.415 145.368 116.503 145.294 116.578C145.22 116.653 145.132 116.712 145.035 116.752C144.939 116.793 144.835 116.813 144.73 116.813V116.813Z" fill="#34248F"/>
<path d="M115.026 71.3553C112.791 71.3554 110.546 71.0271 108.63 70.4033C103.444 68.716 100.749 65.4916 100.846 63.3144C100.889 62.3346 101.495 61.6172 102.466 61.3957C102.672 61.3488 102.889 61.3864 103.067 61.5001C103.246 61.6139 103.373 61.7945 103.419 62.0022C103.466 62.21 103.429 62.428 103.316 62.6082C103.203 62.7884 103.024 62.9162 102.818 62.9634C102.513 63.033 102.448 63.1712 102.439 63.3865C102.388 64.5253 104.296 67.304 109.119 68.8737C111.478 69.641 114.387 69.9217 117.101 69.6437C119.993 69.3474 121.535 68.5549 121.977 67.9661C122.132 67.7598 122.179 67.5763 121.963 67.2493C121.905 67.1614 121.865 67.0629 121.845 66.9594C121.825 66.8558 121.825 66.7493 121.845 66.6458C121.866 66.5423 121.907 66.444 121.965 66.3563C122.023 66.2687 122.098 66.1935 122.185 66.135C122.272 66.0765 122.37 66.036 122.473 66.0156C122.576 65.9952 122.681 65.9954 122.784 66.0161C122.887 66.0369 122.984 66.0779 123.071 66.1367C123.158 66.1955 123.233 66.271 123.291 66.3588C123.853 67.2112 123.838 68.1507 123.248 68.9362C122.005 70.5919 118.648 71.1009 117.262 71.2428C116.519 71.3183 115.772 71.3558 115.026 71.3553Z" fill="#34248F"/>
</g>
</g>
<defs>
<clipPath id="clip0_1158_58544">
<rect width="176" height="104" fill="white"/>
</clipPath>
<clipPath id="clip1_1158_58544">
<rect width="123" height="124" fill="white" transform="translate(0 -20)"/>
</clipPath>
<clipPath id="clip2_1158_58544">
<rect width="123" height="124" fill="white" transform="translate(45 -20)"/>
</clipPath>
</defs>
</svg>
