<svg width="1440" height="129" viewBox="0 0 1440 129" fill="none" xmlns="http://www.w3.org/2000/svg">
<path d="M151.897 113.797L172.908 108.732C191.117 104.459 210.727 105.567 228.136 112.056L257.751 123.135C276.36 130.099 297.771 130.891 316.981 125.351L427.837 93.5378C435.641 91.322 443.845 90.0557 452.249 89.8975L610.329 86.7319C616.532 86.5737 622.535 85.9406 628.538 84.6744L870.461 39.9182C877.064 38.4937 883.867 37.8606 890.471 37.8606L1010.53 48.149C1021.54 48.149 1032.34 50.0483 1042.35 53.5303L1181.42 96.3872C1186.42 98.1282 1191.62 99.5527 1197.03 100.502L1365.51 118.862C1377.52 120.92 1389.72 120.603 1401.53 118.229L1581 88.7896V0H-40V68.372L101.472 112.214C117.68 117.121 135.489 117.754 151.897 113.797Z" fill="#FCEDF1"/>
</svg>
