<svg width="64" height="64" viewBox="0 0 64 64" fill="none" xmlns="http://www.w3.org/2000/svg">
<path d="M35.1288 59.4097C35.1217 59.299 35.1147 59.2359 35.1147 59.2359C35.1147 59.2359 35.1177 59.2992 35.1288 59.4097ZM35.1298 59.4255C35.1772 60.2053 35.1936 63.1233 32.7871 63.0816C30.0107 63.0337 30.5923 58.5428 28.6515 56.6489C26.877 56.0045 23.6438 56.9668 18.3619 55.7047C13.081 54.4435 6.76756 46.0258 14.3561 36.2928C23.226 24.9167 38.4383 23.7366 47.6984 29.2269C47.6984 29.2269 50.234 30.6722 51.8281 32.5693C59.5675 41.1545 56.0656 52.8912 49.805 53.9604L48.1952 54.3157C48.3787 57.0921 48.2812 61.3111 46.048 61.6791C44.6747 61.9062 44.2788 61.1187 43.893 57.7817C43.893 57.7817 44.0592 62.366 41.6037 62.5219C39.6936 62.6431 39.5121 58.6234 39.5121 58.6234C39.5121 58.6234 39.727 62.636 37.2668 62.7972C35.5688 62.908 35.199 60.1781 35.1298 59.4255L35.1298 59.4255ZM52.3132 43.53C52.1017 40.1988 49.8539 37.6298 47.2915 37.7925C44.7291 37.9552 42.8233 40.7878 43.0348 44.1191C43.2462 47.4503 45.4949 50.0183 48.0574 49.8556C50.6198 49.6929 52.5247 46.8613 52.3132 43.53ZM32.1647 46.7996C32.1134 43.3629 29.6367 40.6209 26.6334 40.6747C23.6301 40.7284 21.237 43.5573 21.2894 46.9939C21.3407 50.4296 23.8163 53.1716 26.8196 53.1179C29.8229 53.0641 32.2161 50.2352 32.1647 46.7996Z" fill="#8DF4A5"/>
<path d="M47.2916 37.7925C49.854 37.6298 52.1017 40.1987 52.3132 43.53C52.5247 46.8613 50.6199 49.6929 48.0574 49.8556C45.495 50.0182 43.2463 47.4503 43.0348 44.1191C42.8233 40.7878 44.7291 37.9552 47.2916 37.7925Z" fill="#373780"/>
<path d="M26.6335 40.6746C29.6367 40.6209 32.1134 43.3628 32.1648 46.7995C32.2161 50.2352 29.8229 53.064 26.8197 53.1178C23.8164 53.1715 21.3407 50.4295 21.2894 46.9938C21.237 43.5572 23.6302 40.7284 26.6335 40.6746Z" fill="#373780"/>
<path d="M52.9851 52.1622C56.5318 47.4176 54.7599 42.1881 54.6839 43.4094C54.6069 44.6297 54.1356 45.7014 53.6522 45.3739C54.8679 39.6343 50.494 36.8938 50.4057 36.7118C50.3174 36.5309 50.6984 36.47 51.4748 36.8682C52.2513 37.2674 51.8019 35.6528 51.5118 35.2754C50.5672 33.8401 49.1261 32.5634 46.9015 31.6489C43.5937 30.2903 44.2131 28.6823 45.8684 28.3529L45.9038 28.2812C46.5239 28.5703 47.1221 28.8855 47.6985 29.227C47.6985 29.227 50.2341 30.6724 51.8282 32.5694C58.0704 39.4945 56.9997 48.4694 53.0659 52.2424L52.9851 52.1622Z" fill="#FFFFCC"/>
<path d="M35.1289 59.4095C35.1219 59.2988 35.1148 59.2358 35.1148 59.2358C35.1148 59.2358 35.1178 59.2991 35.1289 59.4095ZM47.9905 52.2499L47.9062 52.2602C46.6588 50.8263 45.957 52.1041 46.2481 54.1583C46.5392 56.2125 47.2381 59.3065 46.4115 59.359C45.5859 59.4114 46.8138 62.3586 44.9582 61.3562L44.8315 61.3921C44.3678 60.9066 44.1289 59.8194 43.8931 57.7815C43.8931 57.7815 44.0593 62.3658 41.6039 62.5217C39.6938 62.643 39.5122 58.6232 39.5122 58.6232C39.5122 58.6232 39.7271 62.6359 37.2669 62.7971C35.569 62.9078 35.1992 60.178 35.1299 59.4253C35.1666 60.0352 35.1854 61.9598 34.0338 62.7444C32.9002 62.8471 32.0791 60.6817 32.5057 60.0176C33.0319 59.1994 33.1423 56.3914 32.0234 56.9665C30.9045 57.5415 30.823 56.2578 29.5928 55.1602C28.3625 54.0616 24.2663 54.9378 23.1691 54.9509C22.0719 54.965 19.3207 54.4114 17.6419 53.4534C15.9631 52.4953 13.6416 49.6175 13.7003 45.9814C13.7581 42.3453 16.4992 37.2768 20.52 34.164C24.5417 31.0511 23.6947 32.2816 23.6947 32.2816C23.6947 32.2816 21.9362 35.5316 25.6251 33.5601C29.3141 31.5895 33.1214 30.563 38.801 30.8185C44.4806 31.0741 44.2433 27.3357 39.3264 26.359L39.33 26.3359C41.6036 26.6642 43.8177 27.3193 45.9039 28.281L45.8685 28.3527C44.2131 28.682 43.5937 30.29 46.9016 31.6486C49.1261 32.5631 50.5672 33.8398 51.5119 35.2751C51.8019 35.6526 52.2513 37.2671 51.4748 36.8679C50.6984 36.4698 50.3175 36.5306 50.4057 36.7116C50.494 36.8935 54.868 39.6341 53.6523 45.3737C54.1356 45.7012 54.6069 44.6295 54.684 43.4091C54.7599 42.1879 56.5318 47.4173 52.9852 52.162L53.066 52.2422C52.1236 53.1473 51.0159 53.7534 49.8051 53.9603L48.1953 54.3155C48.1361 53.4154 48.0467 52.667 47.9905 52.2499V52.2499ZM52.3133 43.5299C52.1018 40.1986 49.8541 37.6297 47.2916 37.7923C44.7292 37.955 42.8234 40.7877 43.0349 44.1189C43.2464 47.4502 45.4951 50.0181 48.0575 49.8554C50.6199 49.6927 52.5248 46.8611 52.3133 43.5299V43.5299ZM46.2386 33.2802C48.155 33.4185 46.3352 32.0775 44.8214 31.4453C43.3444 30.8277 44.3222 33.141 46.2386 33.2802V33.2802ZM34.3116 46.4071C34.7175 44.4347 34.6214 41.6646 31.5171 40.3198C31.3108 40.2307 31.1318 40.4892 31.2987 40.6363C33.2597 42.3801 33.7382 44.6784 33.7797 46.3625C33.7872 46.6746 34.2492 46.7137 34.3116 46.4071ZM32.1649 46.7994C32.1135 43.3627 29.6368 40.6208 26.6335 40.6745C23.6303 40.7283 21.2371 43.5572 21.2895 46.9938C21.3408 50.4295 23.8165 53.1715 26.8197 53.1177C29.823 53.064 32.2162 50.2351 32.1649 46.7994V46.7994ZM20.9698 36.2369C21.5304 36.4255 23.3793 34.5996 22.2659 34.8102C20.9311 35.0626 20.4083 36.0483 20.9698 36.2369ZM19.8047 53.5403C21.1638 52.8001 18.4519 52.252 17.8974 51.7236C16.9748 50.8436 17.0889 50.4811 16.4436 50.6342C15.2237 50.924 17.9876 54.5298 19.8047 53.5403ZM15.5062 48.4901C16.7896 49.1369 16.4028 45.7671 15.4859 45.8978C14.854 45.9875 14.2228 47.8433 15.5062 48.4901Z" fill="#FDEAD9"/>
<path d="M48.1954 54.316C48.3788 57.0924 48.2813 61.3114 46.0481 61.6794C45.5134 61.7679 45.1275 61.7021 44.8315 61.3925L44.9582 61.3567C46.8138 62.3591 45.5859 59.4118 46.4115 59.3594C47.2381 59.3069 46.5392 56.213 46.2481 54.1588C45.957 52.1046 46.6588 50.8267 47.9062 52.2606L47.9905 52.2503C48.0467 52.6674 48.1362 53.4158 48.1954 54.316Z" fill="#FFFFCC"/>
<path d="M44.8214 31.4454C46.3352 32.0776 48.155 33.4186 46.2386 33.2803C44.3222 33.141 43.3443 30.8278 44.8214 31.4454Z" fill="#FFFFCC"/>
<path d="M39.3262 26.359C44.2431 27.3357 44.4805 31.0741 38.8009 30.8186C33.1213 30.563 29.314 31.5896 25.625 33.5601C21.936 35.5316 23.6946 32.2817 23.6946 32.2817C23.6946 32.2817 24.5416 31.0512 20.5198 34.164C16.4991 37.2768 13.7579 42.3453 13.7002 45.9814C13.6414 49.6176 15.963 52.4954 17.6418 53.4534C19.3206 54.4114 22.0718 54.965 23.1689 54.9509C24.2662 54.9378 28.3624 54.0616 29.5927 55.1603C30.8229 56.2579 30.9044 57.5416 32.0233 56.9665C33.1421 56.3914 33.0318 59.1994 32.5056 60.0176C32.079 60.6817 32.9001 62.8471 34.0336 62.7444C33.7158 62.961 33.3075 63.0902 32.7871 63.0815C30.0107 63.0336 30.5923 58.5427 28.6515 56.6488C26.877 56.0044 23.6438 56.9667 18.3619 55.7046C13.081 54.4435 6.76756 46.0257 14.3561 36.2927C20.88 27.9251 30.8355 25.0735 39.3299 26.336L39.3262 26.359Z" fill="#F9CCA7"/>
<path d="M31.5171 40.32C34.6215 41.6648 34.7175 44.4348 34.3116 46.4073C34.2492 46.7139 33.7872 46.6747 33.7797 46.3627C33.7383 44.6786 33.2597 42.3803 31.2988 40.6365C31.1318 40.4893 31.3109 40.2309 31.5171 40.32Z" fill="#FFFFCC"/>
<path d="M22.266 34.8104C23.3794 34.5998 21.5304 36.4258 20.9699 36.2371C20.4084 36.0485 20.9312 35.0628 22.266 34.8104Z" fill="#F9CCA7"/>
<path d="M17.8974 51.7241C18.4518 52.2524 21.1638 52.8006 19.8046 53.5407C17.9875 54.5302 15.2237 50.9245 16.4436 50.6347C17.0888 50.4816 16.9747 50.844 17.8974 51.7241Z" fill="#F9CCA7"/>
<path d="M15.4858 45.8982C16.4026 45.7676 16.7895 49.1373 15.506 48.4905C14.2226 47.8438 14.8539 45.988 15.4858 45.8982Z" fill="#F9CCA7"/>
<path d="M39.5244 47.8855C42.6995 49.8278 43.7076 53.2658 42.0213 53.8563C40.822 54.2761 39.8711 52.9648 39.8711 52.9648C39.8711 52.9648 39.1167 55.0031 37.4526 54.4986C35.4829 53.3549 37.1311 49.568 38.3921 48.1316C38.674 47.8109 39.1602 47.6623 39.5244 47.8855Z" fill="#373780"/>
<path d="M48.1947 54.8755C48.0567 54.8754 47.9236 54.8243 47.821 54.7321C47.7184 54.6398 47.6534 54.513 47.6385 54.3758C47.6237 54.2386 47.66 54.1008 47.7405 53.9887C47.821 53.8766 47.94 53.7982 48.0748 53.7685L49.685 53.4139C49.6936 53.412 49.7023 53.4103 49.7111 53.4088C51.9911 53.0191 53.9636 51.0244 54.9876 48.0729C55.7575 45.8539 55.9096 43.2595 55.416 40.7676C54.8543 37.9318 53.4698 35.2265 51.4121 32.9441C51.3627 32.8895 51.3245 32.8257 51.2998 32.7563C51.2751 32.687 51.2643 32.6134 51.268 32.5399C51.2718 32.4663 51.29 32.3943 51.3216 32.3278C51.3532 32.2613 51.3976 32.2017 51.4523 32.1524C51.507 32.1031 51.5709 32.065 51.6403 32.0404C51.7097 32.0159 51.7833 32.0052 51.8568 32.0091C51.9304 32.013 52.0024 32.0313 52.0688 32.0631C52.1353 32.0948 52.1948 32.1394 52.244 32.1942C54.4369 34.6266 55.9137 37.516 56.5147 40.55C57.054 43.2728 56.8919 46.0011 56.0457 48.44C54.8878 51.7776 52.596 54.0458 49.9132 54.5105L48.3157 54.8623C48.276 54.8711 48.2354 54.8755 48.1947 54.8755Z" fill="#373780"/>
<path d="M32.8387 63.6421C32.8183 63.6421 32.798 63.6419 32.7775 63.6416C30.7393 63.6065 30.1569 61.6852 29.6431 59.99C29.3205 58.9257 28.9874 57.8266 28.3456 57.137C27.7071 56.9435 26.792 56.9522 25.6507 56.963C23.8518 56.9802 21.3881 57.0036 18.2322 56.2497C15.6163 55.6249 12.3461 53.1947 10.9372 49.1742C10.2509 47.2154 10.1069 45.1495 10.5094 43.0337C10.9632 40.6483 12.1088 38.2645 13.9144 35.9487C18.0714 30.5897 24.0965 26.9954 30.787 25.8831C36.8976 24.8454 43.1658 25.8885 47.984 28.7451C48.1118 28.8208 48.2042 28.9442 48.241 29.0881C48.2778 29.232 48.2559 29.3846 48.1802 29.5124C48.1044 29.6401 47.981 29.7326 47.8371 29.7693C47.6932 29.8061 47.5406 29.7842 47.4129 29.7085C42.8192 26.9851 36.8278 25.9931 30.9745 26.9874C27.9158 27.5009 24.9732 28.5559 22.2851 30.1029C19.3895 31.7755 16.8466 33.9948 14.7976 36.6374C13.1025 38.8115 12.0299 41.034 11.6097 43.243C11.2445 45.1626 11.3739 47.0335 11.9942 48.8038C13.2635 52.4258 16.1725 54.6062 18.4925 55.1604C21.5148 55.8824 23.802 55.8606 25.6401 55.8431C26.9643 55.8303 28.0104 55.8206 28.8422 56.1222C28.9171 56.1494 28.9853 56.1923 29.0424 56.2479C29.9467 57.1305 30.3373 58.419 30.715 59.6652C31.2478 61.4232 31.6335 62.5017 32.7968 62.5217C33.2939 62.5312 33.6729 62.3844 33.9536 62.0757C34.5362 61.4351 34.6072 60.2019 34.577 59.5484C34.5634 59.4071 34.5575 59.307 34.5554 59.2638C34.5481 59.1187 34.5976 58.9763 34.6934 58.867C34.7891 58.7576 34.9237 58.6898 35.0686 58.6778C35.2134 58.6659 35.3573 58.7107 35.4697 58.8029C35.5821 58.895 35.6543 59.0273 35.671 59.1717C35.6731 59.1899 35.6835 59.2851 35.6916 59.4362C35.7602 60.1329 36.0082 61.4795 36.619 62.0227C36.7 62.0998 36.7963 62.1589 36.9017 62.196C37.0072 62.2332 37.1192 62.2476 37.2306 62.2384C39.0701 62.1182 38.9599 58.8288 38.9528 58.6598C38.9527 58.6559 38.9525 58.6524 38.9524 58.6491C38.9457 58.5012 38.9979 58.3566 39.0976 58.2471C39.1972 58.1375 39.3362 58.0719 39.4841 58.0646C39.632 58.0573 39.7768 58.1089 39.8868 58.208C39.9968 58.3072 40.063 58.4459 40.071 58.5938C40.0711 58.5963 40.0714 58.6022 40.0718 58.6111C40.1169 59.5384 40.4227 61.2064 41.0571 61.7747C41.1241 61.8403 41.2043 61.891 41.2923 61.9235C41.3803 61.956 41.4742 61.9694 41.5677 61.9631C43.172 61.8612 43.3201 58.7721 43.3334 58.1539C43.3367 58.0066 43.3956 57.866 43.4984 57.7605C43.6011 57.6549 43.74 57.5921 43.8871 57.5848C44.0342 57.5775 44.1787 57.6261 44.2914 57.7209C44.4041 57.8158 44.4767 57.9498 44.4946 58.096C44.6537 59.3841 44.8738 60.744 45.2999 61.0627C45.3879 61.1285 45.542 61.1954 45.9566 61.1269C47.3789 60.8922 47.6539 58.1769 47.6913 56.5792C47.7451 54.2789 47.3908 52.0043 47.3873 51.9815C47.3643 51.8349 47.4004 51.6852 47.4878 51.5652C47.5751 51.4452 47.7065 51.3648 47.8531 51.3417C47.9997 51.3185 48.1494 51.3544 48.2695 51.4416C48.3896 51.5288 48.4702 51.6601 48.4935 51.8067C48.7265 53.3908 48.8328 54.991 48.8113 56.592C48.7326 60.0547 47.8335 61.9523 46.1389 62.232C45.736 62.2984 45.1411 62.3425 44.629 61.9595C44.3513 61.7518 44.14 61.4508 43.9712 61.0469C43.3785 62.6382 42.3819 63.0336 41.6387 63.0808C41.3965 63.0963 41.1537 63.0624 40.9251 62.9811C40.6964 62.8998 40.4867 62.7729 40.3087 62.6079C40.0035 62.3171 39.7607 61.967 39.5954 61.5791C39.0194 62.9404 38.0612 63.3065 37.3036 63.356C37.0439 63.3743 36.7832 63.3395 36.5373 63.254C36.2914 63.1684 36.0654 63.0338 35.8731 62.8583C35.6295 62.6336 35.4261 62.3689 35.2719 62.0755C35.1488 62.3492 34.9845 62.6024 34.7848 62.8263C34.2939 63.3678 33.6393 63.6421 32.8387 63.6421Z" fill="#373780"/>
<path d="M26.7347 53.6788C25.302 53.6788 23.919 53.1023 22.8305 52.0489C21.5241 50.7847 20.7582 48.9452 20.7291 47.002C20.6732 43.2636 23.3175 40.1742 26.6238 40.1151C28.0898 40.0897 29.5107 40.6674 30.6233 41.7442C31.9297 43.0083 32.6957 44.8478 32.7247 46.791V46.791C32.7807 50.5294 30.1363 53.6189 26.83 53.678C26.7983 53.6785 26.7664 53.6788 26.7347 53.6788ZM26.7187 41.2342C26.6938 41.2342 26.6688 41.2345 26.6438 41.2349C23.9532 41.283 21.8023 43.8626 21.849 46.9853C21.8736 48.6331 22.5153 50.1853 23.6093 51.244C24.5066 52.1122 25.6432 52.5795 26.81 52.5581C29.5006 52.5101 31.6516 49.9304 31.6049 46.8077V46.8078C31.5802 45.16 30.9386 43.6078 29.8445 42.549C28.9665 41.6994 27.8591 41.2342 26.7187 41.2342Z" fill="#373780"/>
<path d="M47.8292 50.4234C45.0734 50.4235 42.6996 47.6768 42.476 44.1544C42.3659 42.4207 42.7858 40.7517 43.6583 39.4549C44.5615 38.1125 45.8392 37.3236 47.2559 37.2337C48.6728 37.1434 50.0398 37.7647 51.1055 38.9821C52.135 40.1581 52.7626 41.7606 52.8726 43.4944C52.9827 45.2281 52.5628 46.897 51.6903 48.1938C50.7871 49.5363 49.5095 50.3251 48.0927 50.4151C48.0046 50.4207 47.9167 50.4235 47.8292 50.4234ZM47.5216 38.3453C47.4568 38.3453 47.3918 38.3473 47.3268 38.3515C46.2651 38.4189 45.2922 39.0328 44.5876 40.0801C43.8522 41.1731 43.4992 42.5949 43.5937 44.0835C43.7798 47.0134 45.6578 49.3034 47.8261 49.3035C47.8911 49.3035 47.9564 49.3015 48.0218 49.2973C49.0836 49.2299 50.0564 48.616 50.761 47.5686C51.4964 46.4756 51.8494 45.0539 51.7549 43.5653C51.6604 42.0767 51.1305 40.711 50.2628 39.7198C49.4822 38.8281 48.5155 38.3453 47.5216 38.3453V38.3453Z" fill="#373780"/>
<path d="M37.9744 55.1406C37.7423 55.1392 37.5118 55.1035 37.2902 55.0347C37.2487 55.0221 37.2089 55.0047 37.1714 54.983C36.549 54.6215 36.1531 54.0205 36.0264 53.245C35.8543 52.1915 36.1983 51.0227 36.5172 50.2278C36.8919 49.2941 37.4354 48.3724 37.9713 47.7623C38.4544 47.2121 39.2477 47.0597 39.8168 47.4079C40.9165 48.0686 41.8511 48.9713 42.5497 50.0474C43.1683 51.024 43.4614 52.0095 43.3748 52.8223C43.2937 53.5835 42.8678 54.1529 42.2062 54.3847C41.2885 54.7061 40.5101 54.3054 40.0104 53.9015C39.5898 54.5272 38.9041 55.1405 37.9744 55.1406ZM37.6784 53.9803C38.7706 54.2525 39.3227 52.8302 39.3461 52.7684C39.3818 52.6738 39.4424 52.5905 39.5215 52.5275C39.6006 52.4646 39.6953 52.4241 39.7955 52.4106C39.8957 52.397 39.9977 52.4107 40.0908 52.4504C40.1838 52.4901 40.2644 52.5541 40.324 52.6358C40.3298 52.6436 41.0496 53.6033 41.836 53.3276C41.9959 53.2716 42.214 53.146 42.2611 52.7036C42.3833 51.5559 41.2838 49.6185 39.2322 48.3633C39.1288 48.3 38.9329 48.3646 38.8128 48.5013C37.9585 49.4741 36.9057 51.6806 37.1318 53.0645C37.2005 53.4852 37.3796 53.7856 37.6784 53.9803V53.9803Z" fill="#373780"/>
<path d="M51.526 31.5109C51.5633 32.2332 51.3172 32.7651 50.7952 33.0927C50.7244 33.1377 50.0127 33.4882 46.8543 32.1304C45.0614 31.3593 43.2632 30.3664 42.6544 29.9466C41.7591 29.3294 40.8615 29.2806 40.191 29.8125C39.1349 30.6514 38.9299 32.6843 39.7033 34.6479C40.5354 36.7593 40.8965 39.7813 40.0287 40.9814C39.7544 41.3601 39.3802 41.5224 38.8529 41.4934C37.729 41.4294 37.3458 40.6408 36.8894 39.4445C36.6829 38.905 36.4886 38.3952 36.1548 38.044C36.0644 37.9488 35.942 37.8903 35.8112 37.8796C35.6803 37.8689 35.5501 37.9068 35.4454 37.9861C34.8328 38.4516 34.3063 38.6017 33.8804 38.4318C33.2449 38.1781 32.7717 37.1906 32.6338 36.3456L32.6178 36.2495C32.4006 34.9108 32.1027 33.0767 29.0084 30.5135C27.4547 29.2265 25.3517 28.9956 23.5199 29.9115C21.7384 30.8023 20.6869 32.519 20.7776 34.3919C20.8751 36.4126 19.8937 37.8756 18.8734 38.2764C18.5694 38.396 18.1442 38.4646 17.8456 38.1103C17.3038 37.4687 17.4051 36.9963 17.6665 36.0728C17.809 35.5676 17.9713 34.9946 17.9713 34.3233C17.9713 33.5499 17.511 32.9822 16.8512 32.9419C15.9269 32.8855 14.8686 33.8669 14.5851 36.1863C14.5836 36.1947 14.5828 36.2031 14.5821 36.2115C14.4518 37.9785 14.1226 38.492 13.939 38.6414C13.8033 38.7511 13.6387 38.7419 13.2966 38.6955C12.8951 38.6406 12.223 38.5484 11.8474 39.2372C11.3841 40.0838 10.8827 41.8317 10.6366 42.7476C8.95798 41.9536 8.31869 40.1668 8.29431 38.6642C8.25621 36.3631 9.5005 34.8955 10.7494 34.4612C10.7859 34.4483 10.8225 34.4361 10.8591 34.4239C9.60032 35.8777 9.43116 38.2124 9.86472 38.7122C10.424 39.3576 11.3688 35.9897 12.5095 35.5226C13.6509 35.0548 15.405 32.1723 17.2177 32.4298C19.0296 32.6881 18.5999 34.0223 19.7185 32.9899C20.837 31.9566 21.9556 26.3204 28.7112 28.687C35.4668 31.0529 34.4343 33.9294 36.1983 34.7934C37.9622 35.6575 38.8232 32.4733 37.9195 30.7093C37.0158 28.9446 39.1654 25.7291 42.7161 28.1118C45.0089 29.6502 45.2938 28.9492 44.967 28.082L45.0767 28.0371C45.1147 28.1564 45.1935 28.2586 45.2992 28.3259C46.7309 29.2357 47.8045 29.5229 48.5893 29.5229C48.9615 29.5288 49.3305 29.4534 49.6706 29.3019C49.8659 29.2125 50.0461 29.0932 50.2047 28.9484C50.8227 29.3858 51.4719 30.4533 51.526 31.5109Z" fill="url(#paint0_linear_545_8079)"/>
<path d="M49.8809 27.3481C49.8375 27.6209 49.7278 27.9508 49.4657 28.1763C48.9033 28.2266 48.0789 28.0468 47.0639 27.0943C45.0905 25.2412 43.2122 26.1907 44.1068 26.8482C44.4237 27.0806 44.7872 27.6064 44.967 28.0819C45.2939 28.949 45.0089 29.65 42.7162 28.1116C39.1654 25.7289 37.0159 28.9444 37.9196 30.7091C38.8233 32.4731 37.9623 35.6573 36.1983 34.7933C34.4344 33.9292 35.4668 31.0528 28.7112 28.6869C21.9556 26.3202 20.8371 31.9565 19.7185 32.9897C18.6 34.0221 19.0297 32.6879 17.2177 32.4296C15.405 32.1721 13.651 35.0546 12.5096 35.5225C11.3689 35.9895 10.4241 39.3574 9.86477 38.712C9.43121 38.2122 9.60037 35.8775 10.8591 34.4237C11.2455 34.2934 11.6546 34.1745 12.0859 34.0488C13.1367 33.7433 14.2232 33.4271 15.0568 32.9104C15.8325 32.4304 16.3011 31.8201 16.4581 31.0886C17.1118 31.1815 18.254 32.2932 19.8046 29.9342C21.7834 26.9221 25.1475 24.8229 29.016 26.8193C32.8853 28.8156 37.8525 28.011 38.8088 26.0505C39.7674 24.0853 38.9048 22.5195 38.7059 21.7042C38.5635 21.1167 38.7654 20.9194 40.2428 21.2425C40.1567 22.6628 41.7058 24.1257 44.1068 24.5989C45.7496 24.9227 47.787 25.3693 48.9437 25.7723C48.9468 25.7754 48.9506 25.7777 48.9536 25.7807C49.5533 26.276 49.8558 26.7797 49.8809 27.3481ZM43.5993 25.4165C44.6066 26.0185 44.9365 25.3205 44.1068 25.1315C43.1535 24.9151 42.592 24.8138 43.5993 25.4165H43.5993ZM35.5095 31.6128C36.8437 31.1823 37.102 31.2684 36.0261 30.0637C35.3327 29.2873 34.1761 32.0426 35.5095 31.6128ZM10.7372 35.7861C11.1129 35.8722 12.0775 35.4699 11.4138 34.9655C10.9064 34.5807 10.3616 35.7 10.7372 35.7861Z" fill="#FF83AB"/>
<path d="M47.0641 27.0943C48.0791 28.0468 48.9035 28.2266 49.4658 28.1763C49.3933 28.2397 49.3119 28.2924 49.2243 28.3325C48.5149 28.6594 47.2935 28.3287 45.8716 27.425C45.7792 27.3663 45.6709 27.3375 45.5615 27.3425C45.4521 27.3474 45.3469 27.3859 45.2601 27.4527C45.1733 27.5195 45.1092 27.6114 45.0764 27.7159C45.0437 27.8204 45.0438 27.9325 45.0769 28.0368L44.9672 28.0818C44.7874 27.6063 44.4239 27.0806 44.1069 26.8482C43.2124 26.1906 45.0906 25.2412 47.0641 27.0943Z" fill="#FF83AB"/>
<path d="M48.9438 25.7721C47.7871 25.369 45.7496 24.9225 44.1068 24.5986C41.7059 24.1255 40.1568 22.6625 40.2429 21.2422C40.9386 21.3946 41.4323 21.4129 41.7707 21.339C42.1052 22.5284 43.7838 23.2408 45.5508 23.9914C46.7981 24.5209 48.0874 25.0688 48.9438 25.7721Z" fill="#FFFFCC"/>
<path d="M44.1068 25.1315C44.9366 25.3205 44.6067 26.0185 43.5994 25.4165C42.592 24.8138 43.1536 24.9151 44.1068 25.1315Z" fill="#FFFFCC"/>
<path d="M41.7105 20.8979C41.7101 21.047 41.7304 21.1955 41.7707 21.3391C41.4324 21.413 40.9386 21.3947 40.243 21.2423C40.31 20.1344 39.6745 18.6364 38.082 17.9277C39.0589 18.103 40.1325 18.5228 40.8564 19.1659C41.4232 19.6696 41.7105 20.2517 41.7105 20.8979Z" fill="#FFFFCC"/>
<path d="M38.0819 17.9278C39.6744 18.6364 40.3099 20.1344 40.2428 21.2423C38.7654 20.9193 38.5634 21.1166 38.7059 21.7041H38.7021C38.5613 21.1021 38.2891 20.5388 37.9049 20.0544C37.5208 19.57 37.0343 19.1766 36.4802 18.9023C36.612 18.5747 36.7721 18.209 36.9595 17.8371C37.3358 17.8277 37.712 17.8581 38.0819 17.9278V17.9278Z" fill="#FDE75D"/>
<path d="M38.7059 21.7044C38.9048 22.5197 39.7673 24.0855 38.8088 26.0506C37.8525 28.0112 32.8853 28.8158 29.016 26.8195C25.1475 24.8231 21.7834 26.9223 19.8046 29.9344C18.254 32.2934 17.1118 31.1817 16.458 31.0888C16.5126 30.8294 16.53 30.5636 16.5099 30.2994C16.5051 30.2295 16.4866 30.1612 16.4554 30.0984C16.4242 30.0357 16.381 29.9797 16.3282 29.9336C16.2753 29.8876 16.2139 29.8525 16.1475 29.8302C16.0811 29.8079 16.0109 29.7989 15.941 29.8038C15.8711 29.8086 15.8028 29.8272 15.7401 29.8585C15.6774 29.8897 15.6215 29.933 15.5755 29.9859C15.5296 30.0388 15.4945 30.1003 15.4723 30.1667C15.4501 30.2332 15.4412 30.3034 15.4462 30.3733C15.4538 30.4778 15.4523 30.5829 15.4416 30.6872C14.8145 31.0583 13.8018 31.5246 13.3332 31.0103C12.7267 30.3443 13.0475 29.2037 14.925 28.2954C15.2051 28.3716 15.4942 28.4098 15.7845 28.4089C15.8599 28.4089 15.9361 28.4066 16.0123 28.4013C17.9713 28.2733 19.4945 27.7963 21.4847 25.7367C21.5334 25.6863 21.5717 25.6269 21.5974 25.5617C21.6231 25.4965 21.6358 25.4269 21.6346 25.3569C21.6333 25.2868 21.6184 25.2177 21.5904 25.1534C21.5625 25.0892 21.5222 25.031 21.4718 24.9824C21.4636 24.9739 21.4547 24.9663 21.4451 24.9595C21.9518 24.4002 22.4143 23.8699 22.8105 23.3853C22.8113 23.3853 22.8121 23.386 22.8128 23.3868C22.868 23.4299 22.9312 23.4617 22.9987 23.4803C23.0662 23.499 23.1367 23.5041 23.2062 23.4955C23.2757 23.4869 23.3429 23.4646 23.4037 23.43C23.4646 23.3954 23.5181 23.3491 23.5611 23.2938C24.0899 22.6165 24.6134 21.8697 25.1627 21.011C26.468 18.972 27.8967 17.6393 31.3301 16.8697C32.264 16.7564 33.2056 16.7197 34.1456 16.76C34.5913 16.7988 34.909 16.939 35.0889 17.1783C35.2504 17.3932 35.386 17.7909 35.306 18.5262C34.4629 18.3889 33.598 18.5136 32.828 18.8834C32.058 19.2533 31.42 19.8505 31.0001 20.5944C30.5803 21.3383 30.3989 22.1932 30.4803 23.0435C30.5617 23.8938 30.9021 24.6987 31.4554 25.3495C32.0088 26.0002 32.7485 26.4655 33.5747 26.6825C34.4009 26.8995 35.2738 26.8578 36.0755 26.563C36.8773 26.2682 37.5692 25.7344 38.058 25.0339C38.5468 24.3333 38.8088 23.4996 38.8088 22.6454C38.8088 22.3287 38.773 22.013 38.7021 21.7044H38.7059ZM14.2826 29.9252C15.0713 30.0639 15.4362 29.2715 14.816 28.9895C14.5859 28.8851 13.4948 29.7866 14.2826 29.9252Z" fill="#FDE75D"/>
<path d="M37.742 22.6451C37.7423 22.8045 37.7301 22.9638 37.7055 23.1213C37.4837 22.3974 36.8315 22.4066 36.241 21.8549C35.5979 21.253 35.8432 20.542 36.2821 20.0117C36.7287 20.291 37.097 20.6791 37.3523 21.1398C37.6077 21.6004 37.7418 22.1184 37.742 22.6451V22.6451Z" fill="#FFFFCC"/>
<path d="M37.7056 23.1213C37.6039 23.7769 37.2943 24.3824 36.8225 24.8487C36.6754 24.6575 36.4011 24.4891 36.1123 24.3565C35.2909 23.9786 33.3586 26.3627 32.4976 23.8231C31.9474 22.1986 32.2568 20.8652 33.0111 19.998C33.6348 19.615 34.3736 19.4644 35.0974 19.5729C35.089 19.6033 35.0806 19.6346 35.0715 19.6666C35.041 19.7664 35.0235 19.8312 35.0174 19.8533C34.9801 19.9885 34.9977 20.1331 35.0663 20.2555C35.1349 20.3779 35.249 20.4683 35.3839 20.507C35.4319 20.5212 35.4817 20.5283 35.5317 20.5284C35.6464 20.5282 35.7579 20.4912 35.8499 20.4227C35.9418 20.3542 36.0093 20.258 36.0422 20.1482C36.0521 20.1154 36.062 20.0819 36.072 20.0491C36.0826 20.014 36.0971 19.9683 36.1139 19.9142C36.1146 19.9135 36.1146 19.9142 36.1146 19.9142C36.1718 19.9447 36.2274 19.9775 36.2823 20.0118C35.8434 20.5421 35.598 21.253 36.2411 21.855C36.8316 22.4066 37.4839 22.3975 37.7056 23.1213ZM33.8181 24.5554C34.3911 24.5988 34.708 23.8673 33.8181 23.6517C33.3517 23.5389 33.2451 24.5127 33.8181 24.5554V24.5554Z" fill="#E5606D"/>
<path d="M36.1123 24.3565C36.4011 24.4891 36.6754 24.6575 36.8225 24.8487C36.5116 25.1576 36.1389 25.3971 35.7289 25.5517C35.3189 25.7062 34.8808 25.7722 34.4434 25.7454C34.006 25.7185 33.5793 25.5994 33.1913 25.3959C32.8032 25.1923 32.4626 24.909 32.1919 24.5644C31.9212 24.2199 31.7264 23.8219 31.6205 23.3967C31.5145 22.9716 31.4997 22.5288 31.5771 22.0975C31.6545 21.6662 31.8223 21.2561 32.0694 20.8943C32.3166 20.5324 32.6375 20.227 33.0111 19.998C32.2568 20.8652 31.9474 22.1986 32.4975 23.8231C33.3586 26.3627 35.2909 23.9786 36.1123 24.3565Z" fill="#CE495C"/>
<path d="M36.0261 30.0635C37.102 31.2682 36.8437 31.1821 35.5095 31.6126C34.1761 32.0424 35.3327 29.2871 36.0261 30.0635Z" fill="url(#paint1_linear_545_8079)"/>
<path d="M33.818 23.6517C34.708 23.8673 34.391 24.5988 33.818 24.5554C33.245 24.5127 33.3517 23.5389 33.818 23.6517Z" fill="#CE495C"/>
<path d="M32.5553 14.5956L33.456 15.676H33.43C32.6762 15.6777 31.9231 15.7237 31.1746 15.8139C29.128 16.057 26.9648 16.6171 24.8419 17.4651C21.5883 18.7666 18.7774 20.5922 16.8085 22.6694L16.7247 22.2648L16.5395 21.3641C16.4949 21.1494 16.5032 20.927 16.5637 20.7162C16.6242 20.5053 16.7352 20.3124 16.887 20.1541C16.9182 20.1221 16.9495 20.0893 16.9815 20.0573C18.6814 18.3193 21.1121 16.7649 23.8437 15.673C26.2927 14.6946 28.8537 14.1445 31.1091 14.1094C31.1853 14.1087 31.2615 14.1079 31.3369 14.1079C31.4047 14.1079 31.4725 14.1079 31.5404 14.1094C31.7346 14.1125 31.9258 14.1576 32.101 14.2415C32.2762 14.3254 32.4312 14.4462 32.5553 14.5956V14.5956Z" fill="#FFBF5C"/>
<path d="M24.8617 7.33332L29.9699 13.0961C27.8791 13.2614 25.6542 13.8009 23.4483 14.6832C21.0427 15.6448 18.8521 16.9547 17.1445 18.4405L17.7236 3.83437C17.844 2.09328 18.0391 1.75345 18.6448 1.48981C18.9649 1.35037 19.3192 1.39989 19.6986 1.63763C20.2968 2.01099 22.796 4.43023 24.5501 6.18047L24.5447 6.1858C23.7942 6.92491 22.9164 7.7745 22.1293 8.91897C21.2889 10.1396 20.9186 11.6605 21.1875 11.7794C21.2576 11.8099 21.5898 11.0449 22.4935 9.86153C23.8948 8.02671 24.3261 7.77374 24.8617 7.33332ZM20.2884 13.8329C21.0092 13.9274 20.8782 13.3589 20.1909 13.0412C19.5752 12.7562 19.5676 13.7376 20.2884 13.8329Z" fill="#FFBF5C"/>
<path d="M25.2382 18.4558C25.5605 18.327 25.8833 18.2054 26.2066 18.0908C25.4401 18.7621 24.8351 19.5447 24.2644 20.4354C23.7325 21.2659 23.2273 21.9867 22.7199 22.6382C22.6652 22.7081 22.629 22.7904 22.6143 22.8779C22.5997 22.9653 22.6072 23.055 22.636 23.1388C22.0215 23.718 21.3671 24.2535 20.6778 24.7413C18.1968 26.4778 16.6508 26.3962 16.5114 26.0503C16.3163 25.5657 17.6962 25.5025 18.4315 24.3565C19.006 23.4619 20.6984 21.416 22.2886 19.8586C23.2409 19.3286 24.2261 18.86 25.2382 18.4558V18.4558ZM19.1752 24.3565C19.9768 24.3405 20.4347 23.2646 20.0553 23.3507C19.675 23.4368 18.3736 24.3717 19.1752 24.3565Z" fill="#A4E2E7"/>
<path d="M22.6362 23.1392C22.6695 23.2363 22.7301 23.3218 22.8107 23.3853C22.4145 23.8699 21.952 24.4002 21.4453 24.9595C21.3567 24.8841 21.2458 24.8398 21.1296 24.8335C21.0135 24.8272 20.8984 24.8591 20.8022 24.9244L20.678 24.7416C21.3673 24.2538 22.0217 23.7183 22.6362 23.1392V23.1392Z" fill="#A4E2E7"/>
<path d="M20.6778 24.7416L20.802 24.9244C20.7714 24.945 20.7431 24.9688 20.7174 24.9953C18.9482 26.8271 17.7214 27.221 15.943 27.3368C15.4714 27.3695 15.0025 27.2425 14.6118 26.9764C14.425 26.8451 14.2659 26.6782 14.1437 26.4854C14.0214 26.2925 13.9384 26.0775 13.8994 25.8525C13.6532 24.5656 14.6804 23.623 15.8111 23.1125L15.9803 23.9308C16.0004 24.0296 16.0482 24.1205 16.1181 24.1931C16.188 24.2657 16.2771 24.3169 16.375 24.3408C16.4166 24.3513 16.4593 24.3567 16.5022 24.3568C16.5813 24.3567 16.6595 24.339 16.7309 24.305C16.8023 24.271 16.8653 24.2215 16.9152 24.1602C18.2022 22.5844 20.0835 21.0895 22.2886 19.8589C20.6984 21.4163 19.0061 23.4622 18.4315 24.3568C17.6962 25.5028 16.3163 25.566 16.5114 26.0506C16.6508 26.3966 18.1969 26.4781 20.6778 24.7416Z" fill="url(#paint2_linear_545_8079)"/>
<path d="M20.191 13.0415C20.8783 13.3592 21.0094 13.9276 20.2886 13.8331C19.5677 13.7379 19.5754 12.7565 20.191 13.0415Z" fill="#FFBF5C"/>
<path d="M20.0554 23.3506C20.4349 23.2645 19.9769 24.3404 19.1753 24.3564C18.3738 24.3716 19.6752 23.4367 20.0554 23.3506Z" fill="url(#paint3_linear_545_8079)"/>
<path d="M17.71 41.6632C17.8989 41.8552 18.3051 42.5745 17.998 45.1019C17.8677 46.1809 17.3541 46.8293 16.66 46.7958C16.0169 46.7645 15.3197 46.1382 15.293 45.0395C15.2534 43.3441 16.0085 42.3901 16.3354 42.0586C16.6874 41.6998 17.0379 41.5405 17.2299 41.5405H17.2322C17.2523 41.5406 17.2724 41.5396 17.2924 41.5375C17.5271 41.5131 17.6353 41.587 17.71 41.6632Z" fill="url(#paint4_linear_545_8079)"/>
<path d="M14.816 28.9893C15.4362 29.2713 15.0713 30.0637 14.2826 29.925C13.4948 29.7864 14.5859 28.885 14.816 28.9893Z" fill="url(#paint5_linear_545_8079)"/>
<path d="M14.0854 27.9188C14.3438 28.0876 14.6272 28.2146 14.9251 28.2952C13.0476 29.2035 12.7269 30.3441 13.3334 31.0101C13.802 31.5244 14.8146 31.0581 15.4417 30.687C15.3206 31.8604 13.9879 32.3763 12.006 32.9615C12.0037 32.958 12.0011 32.9547 11.9984 32.9516C11.5916 32.4546 11.3422 31.8476 11.2822 31.2082C11.2222 30.5687 11.3543 29.9259 11.6616 29.362C12.1782 28.4004 13.0774 27.8685 14.0854 27.9188Z" fill="url(#paint6_linear_545_8079)"/>
<path d="M11.414 34.9655C12.0776 35.4699 11.113 35.8722 10.7373 35.7861C10.3617 35.7 10.9065 34.5807 11.414 34.9655Z" fill="#FF83AB"/>
<path d="M41.9133 27.0922L43.3253 26.5332" stroke="#00D0E6" stroke-width="0.8" stroke-linecap="round" stroke-linejoin="round"/>
<path d="M30.4868 29.6001L31.9781 29.8866" stroke="#00D0E6" stroke-width="0.8" stroke-linecap="round" stroke-linejoin="round"/>
<path d="M16.8152 29.4102L18.3065 29.6967" stroke="#00D0E6" stroke-width="0.8" stroke-linecap="round" stroke-linejoin="round"/>
<path d="M9.58911 39.9217L10.3938 38.6338" stroke="#00D0E6" stroke-width="0.8" stroke-linecap="round" stroke-linejoin="round"/>
<path d="M27.2839 22.9661L28.3811 22.2397" stroke="#FF549A" stroke-width="0.8" stroke-linecap="round" stroke-linejoin="round"/>
<path d="M38.1826 35.5449L39.0209 36.5591" stroke="#FF549A" stroke-width="0.8" stroke-linecap="round" stroke-linejoin="round"/>
<path d="M38.7783 19.3438L39.6852 19.5385" stroke="#FF549A" stroke-width="0.8" stroke-linecap="round" stroke-linejoin="round"/>
<path d="M14.8884 25.3631L16.1998 25.2559" stroke="#FF549A" stroke-width="0.8" stroke-linecap="round" stroke-linejoin="round"/>
<path d="M21.6345 20.9341H22.7917" stroke="#FFD100" stroke-width="0.8" stroke-linecap="round" stroke-linejoin="round"/>
<path d="M23.7974 28.5236L24.7365 27.8477" stroke="#FFD100" stroke-width="0.8" stroke-linecap="round" stroke-linejoin="round"/>
<path d="M45.9082 29.6953L46.9561 30.1861" stroke="#FFD100" stroke-width="0.8" stroke-linecap="round" stroke-linejoin="round"/>
<path d="M12.4805 34.7589L13.6291 34.6191" stroke="#FFD100" stroke-width="0.8" stroke-linecap="round" stroke-linejoin="round"/>
<path d="M18.4319 1.00098C18.3988 1.61858 18.1264 4.84869 18.1694 5.83835C18.2125 6.828 18.2893 11.2941 18.1648 13.0412C18.0403 14.7883 17.8252 19.0051 17.8252 19.0051" stroke="#FFE293" stroke-width="0.4" stroke-linecap="round" stroke-linejoin="round"/>
<path d="M19.7576 1.00098C20.0395 1.63772 19.7576 3.90206 19.7576 6.91406C19.7576 9.92606 19.7127 13.4596 19.7127 14.6618C19.7127 15.864 19.5425 17.3283 19.5425 17.3283" stroke="#FFE293" stroke-width="0.4" stroke-linecap="round" stroke-linejoin="round"/>
<path d="M22.8793 8.71494C22.8793 8.71494 22.7949 7.53808 22.881 7.02174C22.967 6.50539 22.8654 4.5212 22.881 4.03125" stroke="#FFE293" stroke-width="0.4" stroke-linecap="round" stroke-linejoin="round"/>
<path d="M24.6172 7.05762C24.6284 7.44527 24.7602 10.1603 24.8591 11.1136C24.9568 12.0558 24.8591 14.775 24.8591 14.775" stroke="#FFE293" stroke-width="0.4" stroke-linecap="round" stroke-linejoin="round"/>
<path d="M26.2803 8.5708C26.5103 9.19326 26.5441 12.484 26.4796 14.2422" stroke="#FFE293" stroke-width="0.4" stroke-linecap="round" stroke-linejoin="round"/>
<path d="M28.2595 10.5713C28.5584 11.5033 28.3715 13.5444 28.38 13.8328" stroke="#FFE293" stroke-width="0.4" stroke-linecap="round" stroke-linejoin="round"/>
<path d="M24.2665 7.011C24.2704 6.71321 24.2471 5.41895 24.2471 5.41895" stroke="#FFE293" stroke-width="0.4" stroke-linecap="round" stroke-linejoin="round"/>
<path d="M16.5635 16.7688C17.9481 16.6835 19.1081 17.5924 19.1081 17.5924" stroke="#FFE293" stroke-width="0.4" stroke-linecap="round" stroke-linejoin="round"/>
<path d="M16.7383 15.2183C17.2757 15.1275 21.1678 16.0155 21.4113 16.6496C21.4113 16.6496 21.7091 13.5832 21.58 13.0409C21.451 12.4986 21.3462 9.40941 21.5238 7.68826C21.7014 5.96712 21.3563 2.78002 21.4909 2.1875" stroke="#FFE293" stroke-width="0.4" stroke-linecap="round" stroke-linejoin="round"/>
<path d="M16.8152 13.2798C17.6531 13.1962 22.7465 14.7636 23.2954 15.2186C23.2561 14.6282 23.2548 13.5453 23.2898 12.895C23.3248 12.2448 23.1838 9.2754 23.1408 8.71484" stroke="#FFE293" stroke-width="0.4" stroke-linecap="round" stroke-linejoin="round"/>
<path d="M16.8894 11.4064C17.7821 11.1309 19.9249 12.0337 20.7135 12.2023C21.5022 12.3709 22.6894 12.9176 23.2953 13.1748C24.8965 13.8544 25.6767 14.4681 25.6767 14.4681" stroke="#FFE293" stroke-width="0.4" stroke-linecap="round" stroke-linejoin="round"/>
<path d="M17.0938 9.40983C17.7607 9.30226 19.4882 9.79709 19.883 9.79709C20.2779 9.79709 21.2785 10.1758 21.6125 10.3995C21.9465 10.6232 21.956 10.0031 21.956 10.0031C21.956 10.0031 22.63 10.7882 23.2504 10.9165C23.8707 11.0449 26.2588 12.3184 27.8294 13.8331" stroke="#FFE293" stroke-width="0.4" stroke-linecap="round" stroke-linejoin="round"/>
<path d="M17.0938 7.5166C17.9543 7.5166 20.8708 7.75412 21.4887 8.09792C22.1066 8.44171 22.8424 8.91503 22.8424 8.91503C22.8424 8.91503 24.6668 9.25926 25.1186 9.60349C25.5704 9.94772 28.3429 11.1413 29.3784 11.9668" stroke="#FFE293" stroke-width="0.4" stroke-linecap="round" stroke-linejoin="round"/>
<path d="M17.2175 5.64902C17.6596 5.44603 22.085 5.88117 23.8491 7.34414" stroke="#FFE293" stroke-width="0.4" stroke-linecap="round" stroke-linejoin="round"/>
<path d="M17.1909 3.80566C17.7235 3.8346 19.7562 4.03123 20.5333 4.03123C21.3104 4.03123 24.0403 5.27576 24.9286 5.80551" stroke="#FFE293" stroke-width="0.4" stroke-linecap="round" stroke-linejoin="round"/>
<path d="M17.3923 2.26608C18.0381 2.02897 21.3832 2.36899 21.7827 2.74656" stroke="#FFE293" stroke-width="0.4" stroke-linecap="round" stroke-linejoin="round"/>
<g opacity="0.76">
<path opacity="0.76" d="M27.8291 15.2183C28.4966 15.3478 28.5392 15.821 28.063 15.8118C27.586 15.8019 27.5647 15.1672 27.8291 15.2183Z" fill="#F2A540"/>
<path opacity="0.76" d="M24.7599 16.3452C26.0202 15.9345 27.9099 16.0709 29.1062 16.7049C27.7188 17.0114 26.3589 17.4314 25.0403 17.9606C21.3402 19.4404 18.3297 21.5853 16.5025 23.8232L16.0171 21.4725C15.9552 21.1729 15.967 20.8628 16.0515 20.5688C16.1361 20.2747 16.2909 20.0057 16.5025 19.7848C16.5383 19.7474 16.5749 19.7101 16.6122 19.6728C17.2869 18.9897 18.0194 18.3661 18.8013 17.809C17.6492 18.699 17.8512 20.7029 18.6428 19.9951C19.4604 19.2636 23.4623 16.7674 24.7599 16.3452Z" fill="#F2A540"/>
<path opacity="0.76" d="M26.2801 14.2421C26.2801 14.2421 26.0865 14.3176 25.7802 14.4372C25.7794 14.4372 25.7794 14.4372 25.7787 14.438C25.0739 14.646 24.3607 14.8929 23.6459 15.1786C23.0425 15.4201 22.4598 15.68 21.898 15.9581C21.8964 15.9583 21.8948 15.9588 21.8934 15.9596C20.8573 16.4689 19.863 17.059 18.9195 17.7243C18.9141 17.7274 18.909 17.731 18.9042 17.735C18.8707 17.7571 18.8379 17.7807 18.8067 17.8051C18.8046 17.8058 18.8027 17.8072 18.8014 17.8089C18.0194 18.366 17.287 18.9896 16.6122 19.6727L16.5635 19.6254L17.1913 3.8055C17.311 2.06974 17.5129 1.40073 18.4318 1.0007C18.9134 0.791157 19.4544 0.855162 19.9824 1.1851C18.7915 0.905456 18.4135 4.84863 18.4318 6.01063C18.4501 7.17186 18.5141 15.3043 19.5428 15.3904C20.5714 15.4765 23.1606 14.057 24.267 13.833C25.3733 13.609 26.2801 14.2421 26.2801 14.2421Z" fill="#F2A540"/>
<path opacity="0.76" d="M24.8034 7.38086C25.0723 7.87461 25.4785 8.74173 24.9024 8.57105C24.395 8.42018 23.0661 9.49989 22.1677 10.3038C22.2675 10.1643 22.3757 10.0165 22.4938 9.86182C23.8433 8.09482 24.2936 7.79461 24.8034 7.38086Z" fill="#F2A540"/>
<path opacity="0.76" d="M24.9291 5.80562C24.8041 5.92982 24.6754 6.05631 24.5451 6.18584C23.7945 6.92495 22.9168 7.77454 22.1296 8.91901C21.713 9.52943 21.3988 10.2037 21.1993 10.9154C20.4693 8.79329 22.82 7.30593 22.916 6.1706C23.0158 4.99641 19.9824 1.18506 19.9824 1.18506C20.7429 1.66129 23.8441 4.72439 24.9291 5.80562Z" fill="#FFFEE6"/>
</g>
<path d="M31.1092 14.1366C31.03 14.1368 30.9516 14.12 30.8793 14.0875C30.807 14.055 30.7425 14.0075 30.69 13.9481L24.5973 7.07551C24.5485 7.02048 24.511 6.95639 24.487 6.88688C24.463 6.81737 24.4529 6.74382 24.4573 6.67041C24.4617 6.59701 24.4806 6.52519 24.5127 6.45906C24.5449 6.39293 24.5898 6.33379 24.6448 6.285C24.6998 6.23622 24.7639 6.19875 24.8334 6.17474C24.9029 6.15073 24.9765 6.14064 25.0499 6.14505C25.1233 6.14947 25.1951 6.1683 25.2613 6.20047C25.3274 6.23264 25.3865 6.27752 25.4353 6.33254L31.528 13.2052C31.5996 13.2859 31.6463 13.3856 31.6626 13.4922C31.6789 13.5988 31.664 13.7079 31.6197 13.8063C31.5755 13.9047 31.5038 13.9882 31.4132 14.0468C31.3227 14.1054 31.2171 14.1366 31.1092 14.1366V14.1366Z" fill="#373780"/>
<path d="M21.1879 11.7796C20.9183 11.6609 21.2889 10.1403 22.1294 8.91892C22.9169 7.7747 23.7943 6.92497 24.5445 6.18581C24.6755 6.05674 24.8036 5.92997 24.9286 5.80549C24.9781 5.75589 25.0369 5.71653 25.1017 5.68967C25.1664 5.6628 25.2358 5.64896 25.3059 5.64893C25.376 5.64889 25.4454 5.66267 25.5101 5.68948C25.5749 5.71628 25.6337 5.75559 25.6833 5.80515C25.7328 5.8547 25.7721 5.91354 25.7989 5.9783C25.8257 6.04305 25.8395 6.11246 25.8395 6.18254C25.8395 6.25263 25.8256 6.32202 25.7987 6.38675C25.7719 6.45148 25.7325 6.51028 25.6829 6.55979C25.5563 6.6864 25.4264 6.81503 25.2932 6.94569C24.4811 7.74583 24.2409 7.57359 22.4937 9.86158C21.5901 11.0449 21.2578 11.8104 21.1879 11.7796Z" fill="#373780"/>
<path d="M16.5638 20.1853C16.5563 20.1853 16.5488 20.1851 16.5412 20.1848C16.4678 20.1819 16.3956 20.1646 16.3288 20.1338C16.262 20.1029 16.202 20.0593 16.1521 20.0053C16.1022 19.9512 16.0634 19.8879 16.038 19.8189C16.0125 19.7499 16.0009 19.6766 16.0039 19.6031L16.6314 3.78332C16.6316 3.77785 16.6319 3.77242 16.6323 3.76699C16.7437 2.15195 16.9135 1.05113 18.2083 0.487462C18.8596 0.203832 19.595 0.283088 20.2787 0.710552C21.2328 1.307 25.248 5.33063 25.7027 5.78747C25.807 5.89284 25.8652 6.03525 25.8647 6.18349C25.8641 6.33173 25.8048 6.47369 25.6997 6.57826C25.5946 6.68283 25.4524 6.74148 25.3042 6.74135C25.1559 6.74121 25.0138 6.68231 24.9089 6.57755C23.1597 4.82016 20.325 2.06031 19.685 1.66024C19.3133 1.42789 18.9669 1.37883 18.6553 1.51434C18.0612 1.77305 17.8698 2.10965 17.7501 3.8359L17.123 19.6475C17.1173 19.792 17.0559 19.9286 16.9516 20.0289C16.8474 20.1291 16.7084 20.1852 16.5638 20.1853V20.1853Z" fill="#373780"/>
<path d="M16.5025 24.383C16.3736 24.383 16.2487 24.3385 16.1488 24.2571C16.0489 24.1757 15.9801 24.0624 15.954 23.9362L15.4686 21.5856C15.3883 21.1972 15.4037 20.795 15.5134 20.4139C15.6231 20.0327 15.8238 19.6839 16.0983 19.3976C17.9078 17.5106 20.5145 15.8275 23.4382 14.6584C26.2153 13.5479 29.0217 12.9807 31.5558 13.0162C31.9077 13.0215 32.2542 13.1029 32.5716 13.2547C32.889 13.4065 33.1698 13.6253 33.3947 13.8959L35.0636 15.8969C35.1342 15.9815 35.1782 16.0851 35.1902 16.1946C35.2022 16.3041 35.1816 16.4147 35.1311 16.5126C35.0805 16.6105 35.0022 16.6913 34.9059 16.7449C34.8096 16.7985 34.6997 16.8225 34.5899 16.8139C31.7999 16.5956 28.4825 17.1876 25.2484 18.4809C21.7941 19.8621 18.7645 21.9384 16.9362 24.1772C16.8837 24.2415 16.8175 24.2933 16.7425 24.3289C16.6675 24.3645 16.5855 24.383 16.5025 24.383V24.383ZM31.3369 14.1347C29.0308 14.1347 26.3831 14.6871 23.854 15.6983C21.0754 16.8095 18.6081 18.3985 16.9067 20.1727C16.7579 20.328 16.6491 20.5171 16.5896 20.7238C16.5302 20.9305 16.5219 21.1485 16.5655 21.3591L16.8247 22.6142C18.7945 20.55 21.5943 18.7359 24.8325 17.441C27.7461 16.2759 30.7382 15.6547 33.3991 15.6498L32.5346 14.6132C32.413 14.4666 32.2612 14.3481 32.0894 14.2657C31.9177 14.1834 31.7302 14.1392 31.5398 14.1361C31.4726 14.1352 31.4047 14.1347 31.3369 14.1347Z" fill="#373780"/>
<path d="M23.1404 23.5261C23.0356 23.526 22.9329 23.4965 22.844 23.4409C22.7551 23.3853 22.6836 23.3059 22.6376 23.2117C22.5916 23.1175 22.573 23.0122 22.5838 22.908C22.5947 22.8037 22.6346 22.7045 22.699 22.6218C23.2062 21.9709 23.711 21.2511 24.2421 20.4214C25.6669 18.1957 27.3129 16.646 31.1107 15.7986C31.2556 15.7663 31.4075 15.7928 31.5329 15.8724C31.6583 15.9521 31.7469 16.0783 31.7792 16.2232C31.8115 16.3682 31.785 16.52 31.7054 16.6454C31.6257 16.7708 31.4996 16.8594 31.3546 16.8917C27.9169 17.6588 26.4894 18.9882 25.1854 21.0252C24.6355 21.8843 24.1112 22.6318 23.5826 23.3102C23.5302 23.3775 23.4631 23.432 23.3865 23.4694C23.3099 23.5068 23.2257 23.5262 23.1404 23.5261V23.5261Z" fill="#373780"/>
<path d="M15.7839 28.4351C14.2988 28.4352 13.0992 27.484 12.8259 26.0582C12.5626 24.6846 13.2447 22.7597 16.0334 21.8554C16.1747 21.8096 16.3284 21.8218 16.4607 21.8893C16.593 21.9568 16.693 22.0741 16.7389 22.2154C16.7847 22.3567 16.7725 22.5104 16.705 22.6427C16.6375 22.775 16.5202 22.875 16.3789 22.9208C15.0699 23.3453 13.642 24.3664 13.9258 25.8474C14.1332 26.9291 15.1162 27.3641 15.9414 27.3099C17.7127 27.1943 18.9348 26.8016 20.6983 24.9764C20.8016 24.8696 20.943 24.8082 21.0915 24.8056C21.24 24.8031 21.3834 24.8596 21.4902 24.9628C21.597 25.066 21.6585 25.2074 21.661 25.3559C21.6636 25.5044 21.607 25.6479 21.5038 25.7547C19.5074 27.8207 17.9793 28.2992 16.0144 28.4275C15.9369 28.4326 15.8599 28.4351 15.7839 28.4351Z" fill="#373780"/>
<path d="M11.5863 33.8498C11.5034 33.85 11.4216 33.8317 11.3467 33.7963C11.2718 33.7609 11.2057 33.7093 11.1532 33.6452C10.6084 32.981 10.2741 32.1694 10.1931 31.3142C10.1121 30.4589 10.288 29.599 10.6984 28.8443C11.4449 27.4545 12.8407 26.6872 14.3404 26.8419C14.4135 26.8494 14.4845 26.8713 14.5493 26.9062C14.614 26.9412 14.6712 26.9885 14.7177 27.0456C14.7641 27.1026 14.7988 27.1683 14.8199 27.2388C14.8409 27.3093 14.8479 27.3832 14.8403 27.4564C14.8328 27.5296 14.8109 27.6006 14.7759 27.6653C14.7409 27.73 14.6935 27.7872 14.6364 27.8336C14.5793 27.88 14.5137 27.9147 14.4432 27.9357C14.3726 27.9567 14.2987 27.9636 14.2255 27.956C13.1698 27.8471 12.2206 28.3774 11.685 29.3743C11.3802 29.9336 11.2491 30.5711 11.3085 31.2053C11.368 31.8395 11.6153 32.4415 12.0187 32.9344C12.086 33.0164 12.1287 33.1158 12.1417 33.221C12.1548 33.3263 12.1376 33.4331 12.0923 33.529C12.047 33.6249 11.9754 33.706 11.8858 33.7628C11.7962 33.8196 11.6923 33.8498 11.5863 33.8498V33.8498Z" fill="#373780"/>
<path d="M35.5316 20.5549C35.4454 20.5548 35.3604 20.5349 35.2832 20.4966C35.2059 20.4584 35.1385 20.4028 35.0863 20.3342C35.034 20.2657 34.9983 20.186 34.9818 20.1014C34.9653 20.0168 34.9686 19.9295 34.9914 19.8464C34.9975 19.8241 35.0157 19.7591 35.0461 19.659C35.4685 18.1671 35.2945 17.4958 35.0678 17.1945C34.8522 16.9082 34.435 16.7666 33.8252 16.7745C33.8228 16.7745 33.8204 16.7745 33.818 16.7745C33.6701 16.7746 33.5281 16.7161 33.4231 16.6118C33.3182 16.5075 33.2587 16.3659 33.2578 16.218C33.2569 16.07 33.3146 15.9277 33.4183 15.8221C33.522 15.7166 33.6632 15.6563 33.8112 15.6546C34.7946 15.6425 35.5206 15.9337 35.9625 16.5209C36.0568 16.6465 36.1365 16.7825 36.1999 16.9262C37.0816 15.3512 38.4539 13.7965 40.3462 14.1518C40.4921 14.1793 40.6211 14.2636 40.7048 14.3861C40.7886 14.5086 40.8203 14.6594 40.7929 14.8053C40.7656 14.9512 40.6814 15.0803 40.5589 15.1641C40.4365 15.248 40.2857 15.2798 40.1398 15.2526C37.796 14.8141 36.3003 19.3933 36.0953 20.0628C36.0863 20.0938 36.077 20.125 36.0676 20.1563C36.0328 20.2715 35.962 20.3724 35.8655 20.4442C35.769 20.516 35.6519 20.5548 35.5316 20.5549V20.5549Z" fill="#373780"/>
<path d="M34.635 26.8458C33.8043 26.8458 32.9921 26.5994 32.3014 26.1379C31.6106 25.6763 31.0722 25.0203 30.7543 24.2527C30.4364 23.4852 30.3532 22.6406 30.5153 21.8258C30.6774 21.011 31.0774 20.2626 31.6649 19.6751C32.2523 19.0877 33.0008 18.6876 33.8156 18.5255C34.6304 18.3635 35.475 18.4466 36.2425 18.7646C37.01 19.0825 37.666 19.6209 38.1276 20.3116C38.5892 21.0024 38.8355 21.8145 38.8355 22.6453C38.8342 23.7589 38.3913 24.8266 37.6038 25.6141C36.8164 26.4015 35.7487 26.8445 34.635 26.8458ZM34.635 19.5648C34.0258 19.5648 33.4302 19.7455 32.9236 20.084C32.417 20.4225 32.0222 20.9036 31.7891 21.4664C31.5559 22.0293 31.4949 22.6487 31.6138 23.2463C31.7326 23.8438 32.026 24.3927 32.4568 24.8235C32.8876 25.2543 33.4365 25.5477 34.0341 25.6666C34.6316 25.7854 35.251 25.7244 35.8139 25.4913C36.3768 25.2581 36.8579 24.8633 37.1964 24.3567C37.5348 23.8501 37.7155 23.2546 37.7155 22.6453C37.7146 21.8286 37.3897 21.0456 36.8122 20.4681C36.2347 19.8906 35.4517 19.5658 34.635 19.5648V19.5648Z" fill="#373780"/>
<path d="M11.0028 44.0202C10.9464 44.0201 10.8904 44.0116 10.8366 43.9949C8.67016 43.3216 7.24313 41.2363 7.2011 38.6822C7.1825 37.5527 7.45254 36.4308 7.96145 35.5231C8.53113 34.507 9.37129 33.7827 10.3911 33.4286C10.8353 33.2743 11.3157 33.1345 11.7803 32.9993C14.0427 32.3407 15.5183 31.8023 15.4193 30.3748C15.4142 30.3014 15.4236 30.2277 15.447 30.158C15.4704 30.0882 15.5072 30.0238 15.5555 29.9683C15.6038 29.9128 15.6626 29.8674 15.7284 29.8346C15.7942 29.8018 15.8659 29.7823 15.9393 29.7772C16.0127 29.7721 16.0863 29.7815 16.1561 29.8049C16.2258 29.8283 16.2903 29.8652 16.3457 29.9135C16.4012 29.9618 16.4466 30.0206 16.4794 30.0864C16.5122 30.1523 16.5316 30.224 16.5367 30.2973C16.6129 31.3974 16.1198 32.2843 15.0711 32.9335C14.2345 33.4514 13.146 33.7682 12.0933 34.0746C11.6214 34.212 11.1757 34.3417 10.7585 34.4866C9.51809 34.9174 8.28328 36.3761 8.32094 38.6638C8.34539 40.1494 8.97285 41.9141 10.6195 42.7094C10.8683 41.7847 11.3651 40.0634 11.8238 39.2241C12.2089 38.5193 12.892 38.6127 13.3001 38.6687C13.6346 38.7146 13.7945 38.7239 13.922 38.6206C14.1029 38.4742 14.4258 37.9663 14.5558 36.2097C14.5565 36.2008 14.5574 36.1919 14.5584 36.183C14.8447 33.8463 15.9156 32.8574 16.8532 32.9152C17.5272 32.9563 17.9979 33.5354 17.9979 34.3234C17.9979 34.9986 17.8355 35.5731 17.6922 36.08C17.4338 36.9942 17.3332 37.4617 17.8659 38.093C18.1545 38.4351 18.5679 38.3682 18.8638 38.2518C19.8749 37.8544 20.8479 36.4014 20.7511 34.3933C20.6603 32.5094 21.7167 30.7828 23.5081 29.8874C25.3497 28.9669 27.4638 29.1988 29.0256 30.4929C32.1271 33.0628 32.4261 34.9023 32.6444 36.2454L32.66 36.3413C32.7971 37.1785 33.2638 38.1568 33.8906 38.4069C34.3069 38.5729 34.8246 38.4242 35.4294 37.965C35.5392 37.8817 35.6759 37.8417 35.8133 37.8529C35.9507 37.864 36.0791 37.9254 36.1741 38.0254C36.512 38.3811 36.7073 38.8929 36.9141 39.4348C37.106 39.9376 37.3044 40.4575 37.6132 40.8438C37.9287 41.2384 38.3232 41.4363 38.8547 41.4664C39.3729 41.4956 39.7389 41.3365 40.0073 40.9653C40.8695 39.7728 40.5082 36.7627 39.6789 34.6577C38.9013 32.6837 39.1098 30.6373 40.1747 29.7919C40.855 29.2518 41.7643 29.3002 42.6695 29.9248C43.2772 30.3441 45.0732 31.3353 46.8649 32.1055C50.011 33.458 50.7118 33.1141 50.7813 33.0704C51.2945 32.7483 51.5361 32.2239 51.4994 31.5118C51.4397 30.3524 50.6611 29.1814 49.9997 28.8557C49.877 28.7952 49.7806 28.6919 49.7288 28.5653C49.677 28.4386 49.6734 28.2974 49.7186 28.1682C50.2262 26.7183 49.3802 25.7168 46.597 24.4728C46.4619 24.4118 46.3565 24.2998 46.3039 24.1613C46.2512 24.0228 46.2556 23.8691 46.3161 23.7338C46.3765 23.5986 46.4881 23.4928 46.6264 23.4396C46.7648 23.3865 46.9185 23.3903 47.054 23.4503C48.5205 24.1057 51.4921 25.4341 50.9009 28.1016C51.8283 28.7921 52.5516 30.1659 52.6179 31.4543C52.6754 32.5696 52.2346 33.4805 51.3768 34.019C50.3216 34.6816 48.044 33.8315 46.4226 33.1344C44.4796 32.2992 42.6549 31.2755 42.0334 30.8466C41.5413 30.5071 41.1503 30.4474 40.8711 30.6691C40.2997 31.1227 40.0799 32.6197 40.721 34.2472C41.5044 36.2358 42.2025 39.8408 40.9149 41.6216C40.4227 42.3024 39.6889 42.6353 38.7914 42.5846C36.8759 42.4761 36.2932 40.9491 35.8677 39.8341C35.7794 39.6027 35.6937 39.3782 35.6052 39.1896C35.0029 39.5316 34.2462 39.7546 33.4756 39.4472C32.3369 38.9929 31.7291 37.5876 31.5547 36.5222L31.5389 36.4251C31.328 35.1277 31.0891 33.6571 28.311 31.3553C26.8589 30.1521 25.1364 30.3256 24.0088 30.8893C22.6203 31.5833 21.8007 32.9053 21.8698 34.3394C21.9266 35.5191 21.6793 36.6293 21.1545 37.5502C20.6787 38.3851 20.0107 39.0045 19.2735 39.2942C18.399 39.6379 17.5528 39.4588 17.0098 38.8152C16.07 37.7013 16.3592 36.6781 16.6144 35.7754C16.7439 35.3172 16.8779 34.8433 16.8779 34.3234C16.8779 34.1377 16.8239 34.0355 16.785 34.0331C16.5731 34.0186 15.8892 34.555 15.6718 36.3062C15.543 38.0279 15.2205 39.0106 14.6266 39.4913C14.1091 39.91 13.5307 39.8308 13.1481 39.7784C13.0374 39.7588 12.925 39.7496 12.8125 39.7511C12.8108 39.7539 12.8088 39.7572 12.8066 39.7613C12.3398 40.6155 11.7386 42.8181 11.5464 43.5947C11.5163 43.7162 11.4465 43.8241 11.3479 43.9012C11.2494 43.9783 11.1279 44.0202 11.0028 44.0202L11.0028 44.0202Z" fill="#373780"/>
<path d="M42.6511 22.357C42.575 22.3571 42.4997 22.3417 42.4297 22.3116C42.3598 22.2815 42.2967 22.2374 42.2445 22.1821C41.8724 21.7892 41.6837 21.3572 41.6837 20.8981C41.6837 20.26 41.3994 19.6839 40.8386 19.1859C39.7369 18.2076 37.8237 17.7486 36.6826 17.8841C36.5351 17.9017 36.3867 17.8599 36.27 17.7681C36.1533 17.6762 36.0779 17.5417 36.0603 17.3942C36.0428 17.2467 36.0845 17.0983 36.1764 16.9816C36.2683 16.8649 36.4028 16.7895 36.5502 16.772C37.9622 16.6042 40.2303 17.1478 41.5824 18.3485C42.3814 19.0581 42.8037 19.9398 42.8037 20.8981C42.8037 21.0036 42.83 21.1716 43.0577 21.412C43.1329 21.4915 43.1832 21.5912 43.2024 21.699C43.2216 21.8068 43.2087 21.9178 43.1655 22.0183C43.1222 22.1189 43.0504 22.2045 42.959 22.2647C42.8676 22.3249 42.7606 22.357 42.6511 22.357V22.357Z" fill="#373780"/>
<path d="M16.7058 47.8903C16.6726 47.8903 16.6396 47.8895 16.6069 47.8879C15.4713 47.8328 14.2419 46.8248 14.2002 45.0651C14.1651 43.5773 14.6592 42.2017 15.556 41.2912C16.0778 40.7614 16.678 40.4554 17.2086 40.4473C17.4421 40.4196 17.6789 40.4456 17.9008 40.5234C18.1228 40.6012 18.324 40.7287 18.4891 40.8962C19.1604 41.5785 19.3549 42.9974 19.0838 45.234C18.8451 47.2023 17.6763 47.8903 16.7058 47.8903ZM17.2295 41.5671C17.0432 41.5671 16.7013 41.7244 16.354 42.0771C16.0298 42.4062 15.2801 43.3537 15.3199 45.0386C15.3456 46.1217 16.0301 46.7386 16.6612 46.7692C17.3395 46.8021 17.843 46.1623 17.9719 45.0992C18.277 42.5827 17.8769 41.871 17.6908 41.6817C17.6206 41.6104 17.5188 41.5408 17.2954 41.5641C17.2744 41.5663 17.2531 41.5668 17.2323 41.5672L17.2295 41.5671Z" fill="#373780"/>
<path d="M48.59 29.5492C47.7999 29.5492 46.7211 29.2608 45.285 28.3479C45.2229 28.3084 45.1691 28.2572 45.1268 28.197C45.0844 28.1368 45.0544 28.0688 45.0384 27.997C45.0223 27.9251 45.0206 27.8509 45.0333 27.7784C45.046 27.7059 45.0728 27.6366 45.1123 27.5745C45.1518 27.5124 45.2031 27.4587 45.2634 27.4164C45.3237 27.3742 45.3916 27.3442 45.4635 27.3283C45.5353 27.3123 45.6096 27.3107 45.6821 27.3234C45.7546 27.3362 45.8238 27.3631 45.8859 27.4027C47.2996 28.3014 48.5123 28.6317 49.2132 28.3086C49.5725 28.143 49.7906 27.8047 49.8617 27.3032C49.8825 27.1562 49.9609 27.0234 50.0796 26.9342C50.1983 26.8449 50.3476 26.8065 50.4946 26.8273C50.6417 26.8481 50.7744 26.9265 50.8637 27.0452C50.9529 27.1639 50.9914 27.3132 50.9706 27.4603C50.8464 28.3374 50.3888 28.9999 49.6821 29.3257C49.3387 29.4789 48.966 29.5552 48.59 29.5492Z" fill="#373780"/>
<defs>
<linearGradient id="paint0_linear_545_8079" x1="8.29345" y1="35.0059" x2="51.5297" y2="35.0059" gradientUnits="userSpaceOnUse">
<stop offset="0.31651" stop-color="#FF83AB"/>
<stop offset="1" stop-color="#C39AEF"/>
</linearGradient>
<linearGradient id="paint1_linear_545_8079" x1="34.8967" y1="30.7916" x2="36.6948" y2="30.7916" gradientUnits="userSpaceOnUse">
<stop stop-color="#FBB03B"/>
<stop offset="0.96641" stop-color="#FDE75D"/>
</linearGradient>
<linearGradient id="paint2_linear_545_8079" x1="13.8626" y1="23.6001" x2="22.2886" y2="23.6001" gradientUnits="userSpaceOnUse">
<stop offset="0.0594" stop-color="#29ABE2"/>
<stop offset="0.80988" stop-color="#A4E2E7"/>
</linearGradient>
<linearGradient id="paint3_linear_545_8079" x1="205.192" y1="320.684" x2="225.404" y2="320.684" gradientUnits="userSpaceOnUse">
<stop offset="0.0594" stop-color="#29ABE2"/>
<stop offset="0.80988" stop-color="#A4E2E7"/>
</linearGradient>
<linearGradient id="paint4_linear_545_8079" x1="300.281" y1="2926.67" x2="399.525" y2="2926.67" gradientUnits="userSpaceOnUse">
<stop offset="0.31651" stop-color="#FF83AB"/>
<stop offset="1" stop-color="#C39AEF"/>
</linearGradient>
<linearGradient id="paint5_linear_545_8079" x1="109.917" y1="378.753" x2="125.83" y2="378.753" gradientUnits="userSpaceOnUse">
<stop stop-color="#FBB03B"/>
<stop offset="0.96641" stop-color="#FDE75D"/>
</linearGradient>
<linearGradient id="paint6_linear_545_8079" x1="223.525" y1="1927.6" x2="441.233" y2="1927.6" gradientUnits="userSpaceOnUse">
<stop stop-color="#FBB03B"/>
<stop offset="0.96641" stop-color="#FDE75D"/>
</linearGradient>
</defs>
</svg>
