<svg width="1440" height="65" viewBox="0 0 1440 65" fill="none" xmlns="http://www.w3.org/2000/svg">
<path d="M1470 22.8394L1246.05 37.0091C1243.73 36.5215 1241.4 35.912 1239.08 35.0586L1159.46 21.6225C1149.77 18.0872 1137.95 17.7215 1127.69 20.5253L1031.79 46.6133C1029.47 47.2228 1026.95 47.7104 1024.43 48.0761L637.561 4.93078C634.655 5.2965 631.556 5.41842 628.65 5.29652L480.256 18.5369C478.125 18.415 475.994 18.2931 473.863 17.9274L262.509 0.365738C261.54 0.243832 260.765 0.121906 259.796 0L152 33.9274C145.413 33.196 112.723 35.5903 107.686 32.7865L-26.178 12.4166C-30.8274 9.85653 -36.4454 8.02793 -42.4509 7.17459L-117 17.1889V65.1746H1469.61V22.8394H1470Z" fill="#FCEDF1"/>
</svg>
