<svg width="1440" height="100" viewBox="0 0 1440 100" fill="none" xmlns="http://www.w3.org/2000/svg">
<path d="M1269.53 83.8039L1250.87 80.074C1234.69 76.9269 1217.27 77.7428 1201.8 82.5217L1175.5 90.6809C1158.96 95.8095 1139.94 96.3923 1122.88 92.3128L1024.4 68.8843C1017.47 67.2524 1010.18 66.3199 1002.72 66.2034L862.286 63.8722C856.776 63.7556 851.443 63.2894 846.11 62.3569L631.201 29.3969C625.335 28.3479 619.291 27.8817 613.425 27.8817L506.77 35.4584C496.994 35.4584 487.395 36.8571 478.507 39.4214L354.965 81.9826C350.521 83.2648 345.899 84.3138 341.1 85.0132L191.427 98.5338C180.762 100.049 169.919 99.816 159.431 98.0676L0 65.3875V-0.000190735H1440V50.3513L1314.32 82.6383C1299.93 86.2516 1284.11 86.7179 1269.53 83.8039Z" fill="#8A81CC"/>
</svg>
