<svg width="1440" height="129" viewBox="0 0 1440 129" fill="none" xmlns="http://www.w3.org/2000/svg">
<path d="M1389.1 15.2029L1368.09 20.2677C1349.88 24.5411 1330.27 23.4332 1312.86 16.9439L1283.25 5.86464C1264.64 -1.09949 1243.23 -1.89091 1224.02 3.64874L1113.16 35.4622C1105.36 37.678 1097.16 38.9443 1088.75 39.1025L930.671 42.2681C924.468 42.4263 918.465 43.0594 912.462 44.3256L670.539 89.0818C663.936 90.5063 657.133 91.1394 650.529 91.1394L530.468 80.851C519.463 80.851 508.657 78.9517 498.652 75.4697L359.582 32.6128C354.579 30.8718 349.377 29.4473 343.974 28.4976L175.489 10.1381C163.483 8.08047 151.277 8.39701 139.471 10.7711L-40 40.2104V129H1581V60.628L1439.53 16.7857C1423.32 11.8791 1405.51 11.246 1389.1 15.2029Z" fill="#81E4FF"/>
</svg>
